<svg xmlns="http://www.w3.org/2000/svg" viewBox="0 -0.5 128 128" shape-rendering="crispEdges">
<metadata>Made with Pixels to Svg https://codepen.io/shshaw/pen/XbxvNj</metadata>
<path stroke="#ffffff" d="M9 0h6M17 0h6M25 0h2M28 0h2M35 0h1M42 0h3M51 0h1M64 0h8M80 0h8M92 0h4M98 0h4M106 0h6M113 0h8M123 0h2M127 0h1M8 1h1M15 1h16M34 1h3M41 1h5M51 1h1M64 1h8M74 1h4M80 1h2M86 1h2M93 1h3M97 1h2M101 1h2M106 1h2M110 1h2M113 1h2M118 1h2M121 1h1M123 1h2M126 1h1M8 2h1M10 2h1M13 2h1M15 2h3M19 2h2M22 2h9M33 2h5M42 2h3M50 2h3M59 2h2M64 2h3M69 2h3M73 2h2M77 2h2M80 2h1M83 2h2M87 2h1M92 2h4M97 2h2M101 2h2M106 2h6M113 2h7M122 2h4M8 3h1M15 3h16M32 3h7M40 3h7M49 3h5M58 3h4M64 3h2M70 3h2M73 3h1M78 3h1M80 3h1M82 3h4M87 3h1M89 3h5M95 3h1M97 3h2M101 3h2M106 3h2M113 3h2M118 3h5M125 3h3M8 4h1M10 4h4M15 4h3M22 4h2M25 4h5M33 4h5M40 4h7M48 4h7M58 4h4M64 4h2M70 4h2M73 4h1M78 4h1M80 4h1M82 4h4M87 4h3M92 4h2M98 4h4M106 4h2M113 4h2M118 4h5M125 4h3M8 5h1M11 5h2M15 5h4M21 5h3M26 5h3M34 5h3M41 5h5M49 5h5M59 5h2M64 5h3M69 5h3M73 5h2M77 5h2M80 5h1M83 5h2M87 5h3M92 5h2M99 5h2M105 5h3M113 5h2M117 5h3M122 5h4M8 6h1M15 6h9M27 6h1M35 6h1M42 6h3M50 6h3M64 6h8M74 6h4M80 6h2M86 6h4M92 6h2M97 6h6M104 6h4M112 6h3M117 6h2M121 6h1M123 6h2M126 6h1M9 7h6M17 7h6M41 7h5M49 7h5M64 7h8M80 7h8M89 7h4M99 7h2M104 7h3M112 7h2M120 7h1M123 7h2M127 7h1M0 8h1M14 8h1M19 8h2M25 8h2M29 8h2M33 8h7M42 8h5M59 8h2M67 8h2M75 8h2M0 9h3M12 9h3M18 9h4M25 9h2M29 9h2M32 9h2M35 9h2M38 9h2M41 9h2M46 9h2M58 9h4M66 9h4M75 9h2M83 9h2M90 9h2M106 9h1M109 9h1M115 9h2M120 9h8M0 10h5M10 10h5M17 10h6M25 10h2M29 10h2M32 10h2M35 10h2M38 10h2M42 10h3M57 10h6M65 10h6M75 10h2M84 10h2M89 10h2M96 10h2M105 10h2M109 10h2M114 10h4M120 10h8M0 11h7M8 11h7M19 11h2M25 11h2M29 11h2M33 11h4M38 11h2M41 11h2M44 11h2M59 11h2M67 11h2M75 11h2M80 11h7M88 11h7M96 11h2M104 11h8M113 11h6M121 11h6M0 12h5M10 12h5M19 12h2M25 12h2M29 12h2M35 12h2M38 12h2M41 12h2M44 12h2M49 12h6M57 12h6M67 12h2M73 12h6M84 12h2M89 12h2M96 12h2M105 12h2M109 12h2M112 12h8M122 12h4M0 13h3M12 13h3M17 13h6M35 13h2M38 13h2M42 13h3M49 13h6M58 13h4M67 13h2M74 13h4M83 13h2M90 13h2M96 13h7M106 13h1M109 13h1M112 13h8M123 13h2M0 14h1M14 14h1M18 14h4M25 14h2M29 14h2M35 14h2M38 14h4M44 14h2M49 14h6M59 14h2M67 14h2M75 14h2M19 15h2M41 15h4M56 15h8M8 16h1M17 16h1M19 16h1M25 16h1M27 16h1M34 16h1M40 16h1M44 16h1M50 16h1M57 16h1M66 16h2M72 16h2M124 16h1M8 17h1M17 17h1M19 17h1M25 17h1M27 17h1M33 17h4M40 17h1M43 17h1M49 17h1M51 17h1M57 17h1M65 17h1M74 17h1M90 17h1M123 17h1M8 18h1M16 18h1M18 18h1M24 18h5M32 18h1M43 18h1M50 18h1M56 18h1M64 18h1M75 18h1M80 18h1M83 18h1M90 18h1M123 18h1M8 19h1M25 19h1M27 19h1M33 19h3M42 19h1M49 19h2M52 19h1M64 19h1M75 19h1M81 19h2M88 19h5M104 19h5M122 19h1M8 20h1M24 20h5M36 20h1M41 20h1M48 20h1M50 20h2M64 20h1M75 20h1M80 20h1M83 20h1M90 20h1M121 20h1M25 21h1M27 21h1M32 21h4M41 21h1M44 21h1M48 21h1M51 21h1M65 21h1M74 21h1M90 21h1M96 21h1M112 21h1M121 21h1M8 22h1M25 22h1M27 22h1M34 22h1M40 22h1M44 22h1M49 22h2M52 22h1M66 22h2M72 22h2M96 22h1M112 22h1M120 22h1M96 23h1M1 24h3M10 24h1M17 24h3M25 24h3M35 24h2M40 24h5M50 24h2M56 24h5M65 24h3M73 24h3M99 24h1M112 24h1M121 24h3M0 25h1M4 25h1M9 25h2M16 25h1M20 25h1M24 25h1M28 25h1M34 25h1M36 25h1M40 25h1M49 25h1M56 25h1M60 25h1M64 25h1M68 25h1M72 25h1M76 25h1M80 25h1M88 25h1M98 25h1M113 25h1M120 25h1M124 25h1M0 26h1M3 26h2M10 26h1M20 26h1M28 26h1M33 26h1M36 26h1M40 26h4M48 26h1M60 26h1M64 26h1M68 26h1M72 26h1M76 26h1M80 26h1M88 26h1M97 26h1M104 26h5M114 26h1M124 26h1M0 27h1M2 27h1M4 27h1M10 27h1M18 27h2M26 27h2M32 27h1M36 27h1M44 27h1M48 27h4M59 27h1M65 27h3M73 27h4M96 27h1M115 27h1M123 27h1M0 28h2M4 28h1M10 28h1M17 28h1M28 28h1M32 28h5M44 28h1M48 28h1M52 28h1M58 28h1M64 28h1M68 28h1M76 28h1M97 28h1M114 28h1M122 28h1M0 29h1M4 29h1M10 29h1M16 29h1M20 29h1M24 29h1M28 29h1M36 29h1M40 29h1M44 29h1M48 29h1M52 29h1M58 29h1M64 29h1M68 29h1M75 29h1M80 29h1M88 29h1M98 29h1M104 29h5M113 29h1M1 30h3M8 30h5M16 30h5M25 30h3M36 30h1M41 30h3M49 30h3M58 30h1M65 30h3M73 30h2M80 30h1M88 30h1M99 30h1M112 30h1M122 30h1M88 31h1M1 32h4M9 32h3M16 32h4M25 32h3M32 32h4M40 32h5M48 32h5M57 32h4M64 32h1M68 32h1M72 32h3M84 32h1M88 32h1M92 32h1M96 32h1M104 32h1M108 32h1M112 32h1M116 32h1M121 32h3M0 33h1M5 33h1M8 33h1M12 33h1M16 33h1M20 33h1M24 33h1M28 33h1M32 33h1M36 33h1M40 33h1M48 33h1M56 33h1M64 33h1M68 33h1M73 33h1M84 33h1M88 33h1M91 33h1M96 33h1M104 33h2M107 33h2M112 33h2M116 33h1M120 33h1M124 33h1M0 34h1M2 34h2M5 34h1M8 34h5M16 34h4M24 34h1M32 34h1M36 34h1M40 34h3M48 34h3M56 34h1M59 34h2M64 34h5M73 34h1M84 34h1M88 34h3M96 34h1M104 34h1M106 34h1M108 34h1M112 34h1M114 34h1M116 34h1M120 34h1M124 34h1M0 35h1M2 35h2M5 35h1M8 35h1M12 35h1M16 35h1M20 35h1M24 35h1M32 35h1M36 35h1M40 35h1M48 35h1M56 35h1M60 35h1M64 35h1M68 35h1M73 35h1M84 35h1M88 35h1M91 35h1M96 35h1M104 35h1M108 35h1M112 35h1M115 35h2M120 35h1M124 35h1M0 36h1M2 36h4M8 36h1M12 36h1M16 36h1M20 36h1M24 36h1M32 36h1M36 36h1M40 36h1M48 36h1M56 36h1M60 36h1M64 36h1M68 36h1M73 36h1M84 36h1M88 36h1M92 36h1M96 36h1M104 36h1M108 36h1M112 36h1M116 36h1M120 36h1M124 36h1M0 37h1M8 37h1M12 37h1M16 37h1M20 37h1M24 37h1M28 37h1M32 37h1M36 37h1M40 37h1M48 37h1M56 37h1M60 37h1M64 37h1M68 37h1M73 37h1M80 37h1M84 37h1M88 37h1M92 37h1M96 37h1M104 37h1M108 37h1M112 37h1M116 37h1M120 37h1M124 37h1M1 38h4M8 38h1M12 38h1M16 38h4M25 38h3M32 38h4M40 38h5M48 38h1M57 38h3M64 38h1M68 38h1M72 38h3M81 38h3M88 38h1M92 38h1M96 38h5M104 38h1M108 38h1M112 38h1M116 38h1M121 38h3M0 40h4M9 40h3M16 40h4M25 40h4M32 40h5M40 40h1M44 40h1M48 40h1M52 40h1M56 40h1M60 40h1M64 40h1M68 40h1M72 40h1M76 40h1M80 40h5M88 40h3M96 40h1M104 40h3M114 40h1M0 41h1M4 41h1M8 41h1M12 41h1M16 41h1M20 41h1M24 41h1M34 41h1M40 41h1M44 41h1M48 41h1M52 41h1M56 41h1M60 41h1M65 41h1M67 41h1M73 41h1M75 41h1M84 41h1M88 41h1M97 41h1M106 41h1M113 41h1M115 41h1M0 42h4M8 42h1M12 42h1M16 42h4M25 42h3M34 42h1M40 42h1M44 42h1M48 42h1M52 42h1M56 42h1M60 42h1M66 42h1M74 42h1M83 42h1M88 42h1M97 42h1M106 42h1M112 42h1M116 42h1M0 43h1M8 43h1M12 43h1M16 43h1M20 43h1M28 43h1M34 43h1M40 43h1M44 43h1M48 43h1M52 43h1M56 43h1M60 43h1M65 43h1M67 43h1M74 43h1M82 43h1M88 43h1M98 43h1M106 43h1M0 44h1M8 44h1M12 44h1M16 44h1M20 44h1M28 44h1M34 44h1M40 44h1M44 44h1M49 44h1M51 44h1M56 44h1M58 44h1M60 44h1M64 44h1M68 44h1M74 44h1M81 44h1M88 44h1M99 44h1M106 44h1M0 45h1M8 45h1M11 45h1M16 45h1M20 45h1M24 45h1M28 45h1M34 45h1M40 45h1M44 45h1M49 45h1M51 45h1M56 45h2M59 45h2M64 45h1M68 45h1M74 45h1M80 45h1M88 45h1M99 45h1M106 45h1M0 46h1M9 46h2M12 46h1M16 46h1M20 46h1M25 46h3M34 46h1M41 46h3M50 46h1M56 46h1M60 46h1M64 46h1M68 46h1M74 46h1M80 46h5M88 46h3M100 46h1M104 46h3M120 47h5M0 48h1M16 48h1M36 48h1M50 48h2M64 48h1M72 48h1M84 48h1M88 48h1M96 48h1M0 49h1M16 49h1M36 49h1M49 49h1M64 49h1M88 49h1M96 49h1M1 50h1M9 50h3M16 50h1M18 50h2M25 50h3M33 50h2M36 50h1M41 50h3M48 50h4M57 50h4M64 50h1M66 50h2M72 50h1M84 50h1M88 50h1M91 50h1M96 50h1M104 50h2M107 50h1M112 50h4M121 50h3M12 51h1M16 51h2M20 51h1M24 51h1M28 51h1M32 51h1M35 51h2M40 51h1M44 51h1M49 51h1M56 51h1M60 51h1M64 51h2M68 51h1M72 51h1M84 51h1M88 51h1M90 51h1M96 51h1M104 51h1M106 51h1M108 51h1M112 51h1M116 51h1M120 51h1M124 51h1M9 52h4M16 52h1M20 52h1M24 52h1M32 52h1M36 52h1M40 52h5M49 52h1M56 52h1M60 52h1M64 52h1M68 52h1M72 52h1M84 52h1M88 52h2M96 52h1M104 52h1M106 52h1M108 52h1M112 52h1M116 52h1M120 52h1M124 52h1M8 53h1M12 53h1M16 53h1M20 53h1M24 53h1M28 53h1M32 53h1M36 53h1M40 53h1M49 53h1M57 53h4M64 53h1M68 53h1M72 53h1M80 53h1M84 53h1M88 53h1M90 53h1M96 53h1M104 53h1M108 53h1M112 53h1M116 53h1M120 53h1M124 53h1M9 54h4M16 54h4M25 54h3M33 54h4M41 54h4M49 54h1M60 54h1M64 54h1M68 54h1M72 54h1M80 54h1M84 54h1M88 54h1M91 54h1M97 54h1M104 54h1M108 54h1M112 54h1M116 54h1M121 54h3M56 55h4M81 55h3M33 56h1M90 56h2M96 56h1M104 56h2M113 56h2M117 56h1M33 57h1M89 57h1M96 57h1M106 57h1M112 57h1M115 57h2M0 58h1M2 58h2M9 58h2M12 58h1M16 58h1M18 58h2M25 58h4M32 58h3M40 58h1M44 58h1M48 58h1M52 58h1M56 58h1M60 58h1M64 58h1M68 58h1M72 58h1M76 58h1M80 58h5M89 58h1M96 58h1M106 58h1M122 58h1M0 59h2M4 59h1M8 59h1M11 59h2M16 59h2M20 59h1M24 59h1M33 59h1M40 59h1M44 59h1M48 59h1M52 59h1M56 59h1M60 59h1M65 59h1M67 59h1M72 59h1M76 59h1M83 59h1M88 59h1M107 59h1M121 59h1M123 59h1M0 60h1M4 60h1M8 60h1M12 60h1M16 60h1M25 60h3M33 60h1M40 60h1M44 60h1M48 60h1M52 60h1M56 60h1M58 60h1M60 60h1M66 60h1M72 60h1M76 60h1M82 60h1M89 60h1M96 60h1M106 60h1M120 60h1M124 60h1M0 61h4M9 61h4M16 61h1M28 61h1M33 61h1M40 61h1M44 61h1M49 61h1M51 61h1M56 61h1M58 61h1M60 61h1M65 61h1M67 61h1M73 61h4M81 61h1M89 61h1M96 61h1M106 61h1M120 61h1M124 61h1M0 62h1M12 62h1M16 62h1M24 62h4M34 62h1M41 62h4M50 62h1M57 62h4M64 62h1M68 62h1M76 62h1M80 62h5M90 62h2M96 62h1M104 62h2M120 62h5M0 63h1M12 63h1M72 63h4M1 64h3M9 64h1M11 64h1M19 64h2M25 64h3M33 64h1M35 64h1M40 64h2M50 64h1M65 64h3M73 64h1M75 64h1M80 64h2M88 64h1M90 64h1M97 64h3M104 64h2M112 64h1M116 64h1M122 64h1M0 65h1M4 65h1M24 65h1M28 65h1M57 65h3M64 65h1M68 65h1M96 65h1M100 65h1M113 65h3M0 66h1M8 66h1M12 66h1M17 66h3M25 66h3M33 66h3M41 66h3M49 66h3M56 66h1M60 66h1M65 66h3M73 66h3M81 66h3M89 66h1M98 66h1M105 66h1M112 66h1M116 66h1M121 66h3M0 67h1M8 67h1M12 67h1M16 67h1M20 67h1M28 67h1M36 67h1M44 67h1M52 67h1M56 67h1M64 67h1M68 67h1M72 67h1M76 67h1M80 67h1M84 67h1M89 67h1M98 67h1M105 67h1M112 67h5M120 67h1M124 67h1M0 68h1M4 68h1M8 68h1M12 68h1M16 68h5M25 68h4M33 68h4M41 68h4M49 68h4M56 68h1M60 68h1M64 68h5M72 68h5M80 68h5M89 68h1M98 68h1M105 68h1M112 68h1M116 68h1M120 68h5M1 69h3M8 69h1M12 69h1M16 69h1M24 69h1M28 69h1M32 69h1M36 69h1M40 69h1M44 69h1M48 69h1M52 69h1M57 69h3M64 69h1M72 69h1M80 69h1M89 69h1M98 69h1M105 69h1M112 69h1M116 69h1M120 69h1M124 69h1M4 70h1M9 70h4M17 70h4M25 70h4M33 70h4M41 70h4M49 70h4M60 70h1M65 70h4M73 70h4M81 70h4M89 70h1M98 70h1M105 70h1M112 70h1M116 70h1M120 70h1M124 70h1M2 71h2M58 71h2M3 72h2M17 72h4M25 72h3M33 72h1M35 72h1M40 72h2M49 72h3M56 72h2M65 72h1M67 72h1M72 72h1M76 72h1M80 72h1M84 72h1M98 72h2M105 72h3M123 72h1M16 73h1M18 73h1M24 73h1M28 73h1M48 73h1M52 73h1M73 73h3M97 73h1M100 73h1M104 73h1M108 73h1M122 73h1M124 73h1M0 74h5M9 74h1M11 74h1M16 74h4M25 74h3M33 74h3M41 74h3M56 74h1M60 74h1M64 74h1M68 74h1M72 74h1M76 74h1M80 74h1M84 74h1M89 74h3M97 74h1M104 74h1M107 74h2M112 74h1M114 74h1M122 74h1M0 75h1M10 75h1M12 75h1M16 75h1M18 75h1M24 75h1M28 75h1M32 75h1M36 75h1M40 75h1M44 75h1M48 75h1M52 75h1M56 75h1M60 75h1M64 75h1M68 75h1M72 75h1M76 75h1M80 75h1M84 75h1M88 75h1M91 75h2M96 75h4M104 75h1M106 75h1M108 75h1M113 75h1M121 75h3M0 76h3M9 76h4M16 76h1M18 76h1M24 76h1M28 76h1M32 76h1M36 76h1M40 76h1M44 76h1M48 76h1M52 76h1M56 76h1M60 76h1M64 76h1M68 76h1M72 76h1M76 76h1M80 76h1M84 76h1M88 76h1M90 76h1M92 76h1M97 76h1M104 76h2M108 76h1M112 76h1M114 76h1M122 76h1M0 77h1M8 77h1M10 77h1M16 77h1M18 77h1M24 77h1M28 77h1M32 77h1M36 77h1M40 77h1M44 77h1M48 77h1M52 77h1M56 77h1M60 77h1M65 77h4M72 77h1M76 77h1M80 77h1M84 77h1M88 77h2M92 77h1M97 77h1M104 77h1M108 77h1M122 77h1M0 78h5M9 78h4M16 78h1M18 78h3M25 78h3M33 78h3M41 78h3M49 78h4M57 78h4M68 78h1M73 78h3M81 78h3M89 78h3M96 78h5M105 78h3M120 78h1M122 78h1M64 79h4M90 79h1M121 79h1M3 80h2M8 80h2M19 80h2M27 80h2M32 80h5M40 80h5M49 80h3M57 80h3M66 80h1M88 80h1M92 80h1M96 80h1M100 80h1M52 81h1M56 81h1M60 81h1M73 81h4M88 81h1M91 81h1M96 81h1M99 81h1M104 81h1M114 81h1M116 81h1M120 81h1M122 81h1M1 82h3M8 82h1M17 82h3M24 82h1M28 82h1M32 82h4M40 82h1M44 82h1M48 82h5M56 82h1M60 82h1M66 82h1M72 82h1M74 82h2M77 82h1M91 82h1M99 82h1M113 82h1M115 82h1M121 82h1M123 82h1M4 83h1M8 83h1M16 83h1M20 83h1M24 83h1M28 83h1M32 83h1M36 83h1M40 83h2M44 83h1M49 83h4M57 83h3M65 83h1M72 83h1M74 83h1M77 83h1M80 83h5M90 83h1M98 83h1M104 83h1M112 83h1M114 83h1M122 83h1M124 83h1M1 84h4M8 84h1M16 84h1M20 84h1M24 84h1M28 84h1M32 84h1M36 84h1M40 84h1M42 84h1M44 84h1M64 84h1M72 84h2M75 84h1M77 84h1M84 84h1M89 84h1M92 84h1M97 84h1M99 84h2M104 84h1M113 84h1M115 84h1M121 84h1M123 84h1M0 85h1M4 85h1M8 85h1M16 85h1M20 85h1M24 85h1M28 85h1M32 85h1M36 85h1M40 85h1M43 85h2M48 85h5M56 85h5M64 85h1M68 85h1M73 85h4M84 85h1M89 85h1M91 85h1M97 85h1M99 85h2M104 85h1M114 85h1M116 85h1M120 85h1M122 85h1M1 86h4M8 86h1M17 86h3M25 86h4M32 86h1M36 86h1M40 86h1M44 86h1M65 86h3M88 86h1M91 86h2M96 86h1M100 86h1M104 86h1M2 88h1M6 88h1M9 88h1M11 88h1M13 88h1M15 88h3M19 88h2M22 88h2M27 88h2M35 88h2M43 88h2M50 88h2M53 88h2M74 88h2M77 88h2M82 88h2M85 88h2M98 88h2M101 88h2M106 88h2M109 88h2M115 88h2M0 89h1M4 89h1M8 89h1M10 89h1M12 89h1M14 89h1M17 89h3M21 89h3M27 89h2M35 89h2M43 89h2M50 89h2M53 89h2M74 89h2M77 89h2M82 89h2M85 89h2M98 89h2M101 89h2M106 89h2M109 89h2M115 89h2M2 90h1M6 90h1M9 90h1M11 90h1M13 90h1M15 90h3M19 90h2M22 90h2M27 90h2M35 90h2M40 90h5M50 90h2M53 90h2M64 90h5M72 90h4M77 90h2M82 90h2M85 90h2M88 90h7M96 90h4M101 90h2M106 90h2M109 90h2M112 90h5M0 91h1M4 91h1M8 91h1M10 91h1M12 91h1M14 91h1M16 91h3M20 91h3M27 91h2M35 91h2M43 91h2M50 91h2M53 91h2M67 91h2M77 91h2M82 91h2M85 91h2M93 91h2M101 91h2M106 91h2M109 91h2M115 91h2M2 92h1M6 92h1M9 92h1M11 92h1M13 92h1M15 92h3M19 92h2M22 92h2M27 92h2M32 92h5M40 92h5M48 92h4M53 92h2M56 92h7M64 92h5M72 92h4M77 92h2M82 92h2M85 92h2M88 92h4M93 92h2M96 92h7M104 92h7M112 92h5M120 92h5M0 93h1M4 93h1M8 93h1M10 93h1M12 93h1M14 93h1M17 93h3M21 93h3M27 93h2M35 93h2M43 93h2M50 93h2M53 93h2M58 93h2M61 93h2M67 93h2M74 93h2M77 93h2M82 93h2M85 93h2M90 93h2M93 93h2M123 93h2M2 94h1M6 94h1M9 94h1M11 94h1M13 94h1M15 94h3M19 94h2M22 94h2M27 94h2M35 94h2M43 94h2M50 94h2M53 94h2M58 94h2M61 94h2M67 94h2M74 94h2M77 94h2M82 94h2M85 94h2M90 94h2M93 94h2M123 94h2M0 95h1M4 95h1M8 95h1M10 95h1M12 95h1M14 95h1M16 95h3M20 95h3M27 95h2M35 95h2M43 95h2M50 95h2M53 95h2M58 95h2M61 95h2M67 95h2M74 95h2M77 95h2M82 95h2M85 95h2M90 95h2M93 95h2M123 95h2M3 96h2M11 96h2M27 96h2M43 96h2M51 96h2M58 96h2M61 96h2M66 96h2M69 96h2M82 96h2M85 96h2M98 96h2M101 96h2M114 96h2M117 96h2M123 96h2M3 97h2M11 97h2M27 97h2M43 97h2M51 97h2M58 97h2M61 97h2M66 97h2M69 97h2M82 97h2M85 97h2M98 97h2M101 97h2M114 97h2M117 97h2M123 97h2M3 98h2M11 98h2M27 98h2M43 98h2M51 98h5M58 98h2M61 98h2M66 98h2M69 98h3M74 98h10M85 98h11M98 98h2M101 98h15M117 98h11M3 99h2M11 99h2M27 99h2M43 99h2M51 99h2M58 99h2M61 99h2M66 99h2M74 99h2M98 99h2M3 100h21M27 100h21M51 100h5M58 100h2M61 100h3M66 100h6M74 100h2M77 100h15M93 100h3M98 100h2M101 100h15M117 100h11M19 101h2M27 101h2M43 101h2M51 101h2M58 101h2M61 101h2M74 101h2M77 101h2M90 101h2M93 101h2M98 101h2M101 101h2M114 101h2M117 101h2M19 102h2M27 102h2M43 102h2M51 102h2M58 102h2M61 102h2M74 102h2M77 102h2M90 102h2M93 102h2M98 102h2M101 102h2M114 102h2M117 102h2M19 103h2M27 103h2M43 103h2M51 103h2M58 103h2M61 103h2M74 103h2M77 103h2M90 103h2M93 103h2M98 103h2M101 103h2M114 103h2M117 103h2M2 104h2M5 104h2M26 104h2M29 104h2M35 104h2M58 104h2M61 104h2M67 104h2M75 104h2M88 104h8M104 104h4M116 104h12M2 105h2M5 105h2M26 105h2M29 105h2M35 105h2M58 105h2M61 105h2M67 105h2M75 105h2M88 105h8M104 105h4M116 105h12M2 106h2M5 106h2M8 106h8M26 106h2M29 106h2M35 106h5M43 106h5M58 106h2M61 106h2M64 106h8M75 106h2M88 106h8M104 106h4M116 106h12M2 107h2M5 107h2M26 107h2M29 107h2M35 107h2M43 107h2M58 107h2M61 107h2M67 107h2M75 107h2M88 107h8M104 107h4M116 107h12M0 108h24M26 108h6M35 108h5M43 108h5M50 108h27M83 108h25M116 108h4M11 109h2M18 109h2M21 109h2M43 109h2M50 109h2M53 109h2M58 109h2M61 109h2M67 109h2M83 109h2M88 109h20M116 109h4M11 110h2M18 110h2M21 110h2M43 110h2M50 110h2M53 110h2M58 110h2M61 110h2M67 110h2M83 110h2M88 110h20M116 110h4M11 111h2M18 111h2M21 111h2M43 111h2M50 111h2M53 111h2M58 111h2M61 111h2M67 111h2M83 111h2M88 111h20M116 111h4M32 112h6M64 112h6M74 112h3M82 112h3M91 112h3M109 112h2M114 112h3M121 112h4M9 113h4M16 113h6M24 113h7M32 113h2M36 113h2M49 113h2M53 113h2M57 113h3M61 113h2M66 113h2M73 113h2M76 113h2M81 113h2M84 113h2M90 113h2M108 113h2M113 113h2M120 113h2M124 113h2M1 114h3M5 114h2M8 114h2M12 114h2M16 114h2M20 114h2M25 114h2M28 114h2M33 114h2M41 114h6M49 114h2M53 114h2M56 114h2M59 114h3M65 114h4M72 114h2M77 114h2M80 114h2M85 114h2M91 114h2M97 114h6M105 114h6M112 114h2M120 114h2M124 114h2M0 115h2M3 115h3M8 115h5M16 115h2M25 115h2M28 115h2M34 115h2M40 115h2M43 115h2M49 115h2M53 115h2M59 115h2M64 115h2M68 115h2M72 115h7M80 115h2M85 115h2M89 115h5M96 115h2M99 115h2M102 115h4M107 115h2M110 115h7M120 115h2M124 115h2M0 116h2M4 116h1M8 116h2M12 116h2M16 116h2M25 116h2M28 116h2M33 116h2M40 116h2M43 116h2M49 116h2M53 116h2M59 116h2M64 116h2M68 116h2M72 116h2M77 116h2M81 116h2M84 116h2M88 116h2M92 116h2M96 116h2M99 116h2M102 116h4M107 116h2M110 116h4M120 116h2M124 116h2M0 117h2M3 117h3M8 117h5M16 117h2M25 117h2M28 117h2M32 117h2M36 117h2M40 117h2M43 117h2M49 117h5M59 117h2M65 117h4M73 117h2M76 117h2M81 117h2M84 117h2M88 117h2M92 117h2M97 117h6M105 117h6M113 117h2M120 117h2M124 117h2M1 118h3M5 118h2M8 118h2M16 118h2M25 118h2M28 118h2M32 118h6M41 118h3M49 118h2M59 118h2M66 118h2M74 118h3M80 118h3M84 118h3M89 118h4M105 118h2M114 118h3M120 118h2M124 118h2M8 119h2M48 119h2M64 119h6M104 119h2M10 120h2M17 120h2M27 120h2M36 120h3M43 120h2M50 120h2M66 120h3M92 120h4M97 120h4M105 120h3M0 121h6M10 121h2M18 121h2M26 121h2M35 121h2M38 121h2M43 121h2M50 121h2M57 121h3M61 121h2M65 121h2M68 121h2M92 121h2M97 121h2M100 121h2M107 121h2M8 122h6M19 122h2M25 122h2M35 122h2M38 122h2M43 122h2M56 122h2M59 122h3M65 122h2M68 122h2M92 122h2M97 122h2M100 122h2M106 122h2M114 122h4M0 123h6M10 123h2M18 123h2M26 123h2M35 123h2M43 123h2M48 123h6M66 123h3M75 123h2M92 123h2M97 123h2M100 123h2M105 123h2M114 123h4M10 124h2M17 124h2M27 124h2M35 124h2M43 124h2M57 124h3M61 124h2M75 124h2M83 124h2M88 124h3M92 124h2M97 124h2M100 124h2M105 124h4M114 124h4M0 125h6M35 125h2M40 125h2M43 125h2M50 125h2M56 125h2M59 125h3M89 125h2M92 125h2M114 125h4M8 126h6M16 126h6M24 126h6M35 126h2M40 126h2M43 126h2M50 126h2M90 126h4M35 127h2M41 127h3M91 127h3" />
</svg>