<svg xmlns="http://www.w3.org/2000/svg" viewBox="0 -0.5 24 24" shape-rendering="crispEdges">
<path stroke="#000000" d="M0 0h24M0 23h24" />
<path stroke="rgba(4,4,4,0.6823529411764706)" d="M0 1h1M23 1h1M0 2h1M23 2h1M0 3h1M23 3h1M0 4h1M23 4h1M0 5h1M23 5h1M0 6h1M23 6h1M0 7h1M23 7h1M0 8h1M23 8h1M0 9h1M23 9h1M0 10h1M23 10h1M0 11h1M23 11h1M0 12h1M23 12h1M0 13h1M23 13h1M0 14h1M23 14h1M0 15h1M23 15h1M0 16h1M23 16h1M0 17h1M23 17h1M0 18h1M23 18h1M0 19h1M23 19h1M0 20h1M23 20h1M0 21h1M23 21h1M0 22h1M23 22h1" />
<path stroke="#ffffff" d="M1 1h1M1 4h1" />
<path stroke="#fdfdfd" d="M2 1h1" />
<path stroke="#f6f6f6" d="M3 1h1" />
<path stroke="#f7f9f7" d="M4 1h1M1 3h1M19 20h2" />
<path stroke="#ddf0d8" d="M5 1h1" />
<path stroke="#fcfefc" d="M6 1h1" />
<path stroke="#d5e8d0" d="M7 1h2M11 1h1M13 1h2M16 1h1M18 1h4M1 5h1M1 6h1M20 6h1M1 7h1M20 7h1M20 8h1M1 9h1M20 9h1M1 11h1M20 12h1M1 13h1M20 13h1M20 14h1M1 15h1M20 15h1M20 16h1M1 19h1M5 20h2M10 20h1M12 20h6M1 21h1" />
<path stroke="#cee1c9" d="M9 1h1" />
<path stroke="#d4e7cf" d="M10 1h1" />
<path stroke="#daedd5" d="M12 1h1M1 12h1M18 20h1" />
<path stroke="#d8ebd3" d="M15 1h1M20 10h1M7 20h1" />
<path stroke="#cde0c8" d="M17 1h1" />
<path stroke="#a1b29d" d="M22 1h1M2 2h3M6 2h3M12 2h1M16 2h1M18 2h2M21 2h1M2 3h1M2 4h1M21 4h1M21 5h1M2 6h1M21 6h1M2 7h1M21 7h1M2 8h1M21 8h1M2 9h1M21 10h1M2 11h1M21 11h1M2 12h1M21 12h1M21 13h1M2 14h1M21 14h1M2 15h1M21 16h1M2 17h1M21 18h1M2 20h1M21 20h1M2 21h2M7 21h2M11 21h1M13 21h3M17 21h1M19 21h1M1 22h1" />
<path stroke="#fcfcfc" d="M1 2h1" />
<path stroke="#9bac97" d="M5 2h1" />
<path stroke="#a0b19c" d="M9 2h1M21 21h1" />
<path stroke="#aebfaa" d="M10 2h1" />
<path stroke="#9aab96" d="M11 2h1M15 2h1M17 2h1M5 21h1" />
<path stroke="#90a18c" d="M13 2h1" />
<path stroke="#a2b39e" d="M14 2h1M6 21h1" />
<path stroke="#aabba6" d="M20 2h1" />
<path stroke="#5e6c5b" d="M22 2h1M8 3h1M16 22h1" />
<path stroke="#616f5e" d="M3 3h1M3 16h1" />
<path stroke="#5f6d5c" d="M4 3h1M6 3h1M9 3h3M13 3h1M16 3h1M18 3h2M22 3h1M3 4h1M22 4h1M3 5h1M3 6h1M3 7h1M22 7h1M3 8h1M22 8h1M3 9h1M22 9h1M3 10h1M3 11h1M22 13h1M22 14h1M22 18h1M22 20h1M22 21h1M2 22h2M8 22h2M12 22h4M18 22h1M20 22h1" />
<path stroke="#586655" d="M5 3h1M22 15h1" />
<path stroke="#596756" d="M7 3h1M6 22h1" />
<path stroke="#62705f" d="M12 3h1" />
<path stroke="#606e5d" d="M14 3h1M22 16h1M22 22h1" />
<path stroke="#5b6958" d="M15 3h1M3 12h1" />
<path stroke="#5d6b5a" d="M17 3h1" />
<path stroke="#a8b9a4" d="M20 3h1" />
<path stroke="#a5b6a1" d="M21 3h1" />
<path stroke="#d1e4cc" d="M20 4h1M9 20h1" />
<path stroke="#acbda8" d="M2 5h1" />
<path stroke="#e2f5dd" d="M20 5h1" />
<path stroke="#667463" d="M22 5h1M10 22h1M17 22h1" />
<path stroke="#657362" d="M22 6h1M22 17h1" />
<path stroke="#caddc5" d="M1 8h1M1 17h1" />
<path stroke="#a9baa5" d="M21 9h1M2 10h1" />
<path stroke="#d6e9d1" d="M1 10h1M1 20h1" />
<path stroke="#566453" d="M22 10h1M21 22h1" />
<path stroke="#def1d9" d="M20 11h1" />
<path stroke="#687665" d="M22 11h1" />
<path stroke="#5a6857" d="M22 12h1M3 18h1" />
<path stroke="#a3b49f" d="M2 13h1" />
<path stroke="#556352" d="M3 13h1M22 19h1" />
<path stroke="#dcefd7" d="M1 14h1M1 16h1" />
<path stroke="#677564" d="M3 14h1M11 22h1" />
<path stroke="#6d7b6a" d="M3 15h1" />
<path stroke="#9cad98" d="M21 15h1" />
<path stroke="#9dae99" d="M2 16h1M12 21h1" />
<path stroke="#546251" d="M3 17h1" />
<path stroke="#cfe2ca" d="M20 17h1M8 20h1" />
<path stroke="#a4b5a0" d="M21 17h1" />
<path stroke="#d3e6ce" d="M1 18h1M4 20h1" />
<path stroke="#95a691" d="M2 18h1" />
<path stroke="#d7ead2" d="M20 18h1" />
<path stroke="#9fb09b" d="M2 19h1M21 19h1M20 21h1" />
<path stroke="#5c6a59" d="M3 19h1M7 22h1" />
<path stroke="#f8faf8" d="M20 19h1" />
<path stroke="#d0e3cb" d="M3 20h1" />
<path stroke="#d2e5cd" d="M11 20h1" />
<path stroke="#abbca7" d="M4 21h1M10 21h1" />
<path stroke="#99aa95" d="M9 21h1" />
<path stroke="#9eaf9a" d="M16 21h1M18 21h1" />
<path stroke="#647261" d="M4 22h2" />
<path stroke="#6e7c6b" d="M19 22h1" />
</svg>