<svg xmlns="http://www.w3.org/2000/svg" viewBox="0 -0.5 182 22" shape-rendering="crispEdges">
<metadata>Made with Pixels to Svg https://codepen.io/shshaw/pen/XbxvNj</metadata>
<path stroke="#000000" d="M0 0h182M0 1h1M181 1h1M0 2h1M181 2h1M0 3h1M181 3h1M0 4h1M181 4h1M0 5h1M181 5h1M0 6h1M181 6h1M0 7h1M181 7h1M0 8h1M181 8h1M0 9h1M181 9h1M0 10h1M181 10h1M0 11h1M181 11h1M0 12h1M181 12h1M0 13h1M181 13h1M0 14h1M181 14h1M0 15h1M181 15h1M0 16h1M181 16h1M0 17h1M181 17h1M0 18h1M181 18h1M0 19h1M181 19h1M0 20h1M181 20h1M0 21h182" />
<path stroke="#cecece" d="M1 1h2" />
<path stroke="#ababab" d="M3 1h2M7 1h1M1 2h1M1 3h1M1 5h1" />
<path stroke="#939393" d="M5 1h2M8 1h172M1 4h1M1 6h1M1 7h1M1 8h1M1 9h1M1 10h1M1 11h1M1 12h1M1 13h1M1 14h1M1 15h1M1 16h1M1 17h1M1 18h1M1 19h1M1 20h1" />
<path stroke="#6d6d6d" d="M180 1h1M142 7h1M21 20h1M161 20h1" />
<path stroke="#5d5d5d" d="M2 2h3M6 2h2M10 2h1M12 2h1M14 2h1M18 2h1M20 2h1M22 2h1M24 2h3M28 2h2M31 2h1M33 2h3M37 2h2M42 2h2M45 2h1M49 2h1M53 2h1M55 2h4M60 2h1M62 2h3M66 2h4M71 2h3M75 2h1M77 2h2M80 2h1M83 2h1M85 2h3M90 2h3M94 2h3M98 2h1M100 2h1M102 2h3M106 2h2M109 2h4M114 2h5M123 2h5M129 2h1M131 2h8M140 2h1M142 2h5M148 2h5M154 2h1M156 2h1M160 2h1M163 2h5M171 2h3M175 2h4M40 3h1M42 3h1M62 3h1M80 3h1M102 3h1M122 3h1M140 3h1M142 3h1M160 3h1M40 4h1M42 4h1M60 4h1M62 4h1M80 4h1M100 4h1M120 4h1M122 4h1M142 4h1M160 4h1M162 4h1M2 5h1M20 5h1M22 5h1M40 5h1M42 5h1M80 5h1M82 5h1M100 5h1M102 5h1M142 5h1M22 6h1M42 6h1M60 6h1M62 6h1M80 6h1M102 6h1M122 6h1M140 6h1M142 6h1M160 6h1M162 6h1M2 7h1M20 7h1M40 7h1M60 7h1M62 7h1M80 7h1M100 7h1M102 7h1M120 7h1M122 7h1M140 7h1M162 7h1M2 8h1M20 8h1M22 8h1M40 8h1M42 8h1M62 8h1M80 8h1M102 8h1M120 8h1M122 8h1M142 8h1M160 8h1M162 8h1M2 9h1M22 9h1M40 9h1M42 9h1M62 9h1M102 9h1M122 9h1M140 9h1M160 9h1M162 9h1M22 10h1M40 10h1M42 10h1M60 10h1M62 10h1M80 10h1M100 10h1M122 10h1M140 10h1M142 10h1M162 10h1M2 11h1M20 11h1M22 11h1M40 11h1M42 11h1M60 11h1M62 11h1M102 11h1M120 11h1M122 11h1M140 11h1M142 11h1M160 11h1M2 12h1M20 12h1M22 12h1M40 12h1M60 12h1M62 12h1M80 12h1M100 12h1M102 12h1M122 12h1M140 12h1M142 12h1M160 12h1M22 13h1M40 13h1M42 13h1M82 13h1M120 13h1M122 13h1M142 13h1M20 14h1M22 14h1M40 14h1M42 14h1M80 14h1M100 14h1M120 14h1M122 14h1M142 14h1M160 14h1M2 15h1M22 15h1M40 15h1M42 15h1M62 15h1M80 15h1M82 15h1M100 15h1M102 15h1M120 15h1M122 15h1M140 15h1M142 15h1M160 15h1M162 15h1M2 16h1M40 16h1M62 16h1M80 16h1M82 16h1M100 16h1M102 16h1M120 16h1M122 16h1M140 16h1M142 16h1M162 16h1M2 17h1M20 17h1M22 17h1M40 17h1M60 17h1M62 17h1M100 17h1M102 17h1M120 17h1M122 17h1M140 17h1M142 17h1M160 17h1M162 17h1M2 18h1M20 18h1M22 18h1M40 18h1M42 18h1M62 18h1M82 18h1M100 18h1M102 18h1M140 18h1M142 18h1M160 18h1M20 19h1M60 19h1M80 19h1M100 19h1M140 19h1M160 19h1M3 20h2M6 20h2M10 20h1M12 20h1M14 20h2M17 20h4M24 20h1M26 20h1M28 20h1M30 20h2M33 20h5M39 20h2M42 20h4M49 20h3M53 20h4M58 20h3M62 20h5M69 20h3M73 20h2M79 20h2M82 20h1M84 20h3M90 20h3M94 20h2M97 20h1M99 20h2M102 20h1M105 20h1M107 20h5M114 20h2M117 20h1M119 20h1M122 20h1M124 20h1M127 20h1M129 20h4M134 20h2M137 20h2M142 20h2M146 20h5M152 20h2M155 20h3M159 20h2M162 20h3M166 20h5M172 20h7" />
<path stroke="#676767" d="M5 2h1M15 2h1M51 2h1M119 2h1M169 2h2M60 3h1M2 6h1M80 11h1M2 14h1M20 16h1M42 17h1M2 20h1M13 20h1M121 20h1" />
<path stroke="#626262" d="M8 2h1M16 2h1M40 2h1M44 2h1M47 2h2M50 2h1M54 2h1M76 2h1M97 2h1M130 2h1M155 2h1M174 2h1M82 3h1M162 3h1M22 4h1M102 4h1M60 5h1M82 6h1M120 6h1M42 7h1M160 7h1M82 8h1M140 8h1M142 9h1M20 10h1M82 12h1M62 14h1M140 14h1M22 16h1M160 16h1M40 19h1M8 20h2M27 20h1M46 20h2M67 20h2M76 20h2M83 20h1M106 20h1M112 20h1M158 20h1" />
<path stroke="#5a5a5a" d="M9 2h1M11 2h1M13 2h1M17 2h1M23 2h1M30 2h1M65 2h1M82 2h1M84 2h1M89 2h1M93 2h1M113 2h1M122 2h1M128 2h1M147 2h1M157 2h1M22 3h1M120 3h1M82 4h1M62 5h1M160 5h1M20 6h1M40 6h1M60 9h1M82 9h1M102 10h1M160 10h1M162 12h1M20 13h1M60 13h1M62 13h1M80 13h1M160 13h1M60 14h1M82 14h1M20 15h1M60 15h1M82 17h1M60 18h1M122 18h1M120 19h1M11 20h1M25 20h1M32 20h1M57 20h1M75 20h1M88 20h2M128 20h1M136 20h1M139 20h2M144 20h2M171 20h1" />
<path stroke="#707070" d="M19 2h1M59 2h1M79 2h1M99 2h1M108 2h1M139 2h1M179 2h1M121 9h1M39 14h1M42 16h1M81 17h1M2 19h1M16 19h1M42 19h1M122 19h1M162 19h1M41 20h1M61 20h1M81 20h1M101 20h1" />
<path stroke="#7e7e7e" d="M21 2h1M41 2h1M61 2h1M101 2h1M141 2h1M21 3h1M41 3h1M59 3h1M61 3h1M79 3h1M81 3h1M99 3h1M101 3h1M119 3h1M121 3h1M139 3h1M141 3h1M159 3h1M179 3h1M19 4h1M21 4h1M41 4h1M79 4h1M81 4h1M99 4h1M121 4h1M139 4h1M141 4h1M161 4h1M179 4h1M19 5h1M21 5h1M39 5h1M41 5h1M61 5h1M81 5h1M101 5h1M139 5h1M141 5h1M159 5h1M161 5h1M179 5h1M19 6h1M21 6h1M39 6h1M41 6h1M61 6h1M79 6h1M101 6h1M141 6h1M159 6h1M161 6h1M179 6h1M19 7h1M21 7h1M39 7h1M41 7h1M61 7h1M79 7h1M81 7h1M99 7h1M101 7h1M121 7h1M159 7h1M161 7h1M19 8h1M21 8h1M41 8h1M59 8h1M61 8h1M81 8h1M101 8h1M139 8h1M141 8h1M159 8h1M161 8h1M179 8h1M19 9h1M39 9h1M41 9h1M59 9h1M61 9h1M79 9h1M81 9h1M119 9h1M139 9h1M19 10h1M21 10h1M39 10h1M41 10h1M59 10h1M61 10h1M79 10h1M119 10h1M121 10h1M141 10h1M159 10h1M161 10h1M179 10h1M39 11h1M61 11h1M101 11h1M119 11h1M139 11h1M159 11h1M161 11h1M179 11h1M39 12h1M41 12h1M59 12h1M99 12h1M139 12h1M161 12h1M179 12h1M19 13h1M21 13h1M41 13h1M79 13h1M81 13h1M99 13h1M101 13h1M119 13h1M121 13h1M139 13h1M141 13h1M159 13h1M161 13h1M179 13h1M19 14h1M41 14h1M59 14h1M61 14h1M79 14h1M81 14h1M99 14h1M101 14h1M119 14h1M121 14h1M139 14h1M141 14h1M159 14h1M161 14h1M179 14h1M39 15h1M59 15h1M61 15h1M79 15h1M121 15h1M159 15h1M161 15h1M179 15h1M19 16h1M39 16h1M61 16h1M79 16h1M99 16h1M139 16h1M141 16h1M159 16h1M179 16h1M19 17h1M21 17h1M61 17h1M101 17h1M119 17h1M139 17h1M141 17h1M159 17h1M161 17h1M179 17h1M21 18h1M39 18h1M41 18h1M61 18h1M119 18h1M139 18h1M141 18h1M179 18h1M3 19h9M14 19h2M19 19h1M21 19h1M23 19h1M25 19h1M28 19h1M30 19h1M32 19h2M35 19h2M39 19h1M41 19h1M43 19h1M45 19h2M48 19h1M50 19h1M52 19h3M65 19h7M73 19h1M79 19h1M81 19h1M83 19h3M87 19h1M90 19h3M95 19h3M99 19h1M101 19h1M103 19h1M105 19h4M110 19h2M116 19h1M119 19h1M123 19h2M126 19h4M131 19h2M134 19h4M145 19h8M154 19h1M156 19h1M158 19h2M163 19h5M169 19h1M171 19h1M175 19h3M179 19h1" />
<path stroke="#666666" d="M27 2h1M46 2h1M120 2h1M153 2h1M159 2h1M162 2h1M2 3h1M100 6h1M60 8h1M100 8h1M120 9h1M120 10h1M100 11h1M2 13h1M140 13h1M60 16h1M162 18h1M16 20h1M23 20h1M72 20h1M93 20h1M103 20h1" />
<path stroke="#606060" d="M32 2h1M52 2h1M70 2h1M105 2h1M158 2h1M168 2h1M20 3h1M2 4h1M140 4h1M120 5h1M122 5h1M140 5h1M162 5h1M22 7h1M82 7h1M20 9h1M100 9h1M2 10h1M82 10h1M100 13h1M102 13h1M162 13h1M162 14h1M80 17h1M80 18h1M120 18h1M5 20h1M22 20h1M29 20h1M48 20h1M52 20h1M87 20h1M96 20h1M98 20h1M104 20h1M116 20h1M118 20h1M120 20h1M123 20h1M126 20h1M133 20h1M151 20h1M165 20h1M179 20h1" />
<path stroke="#6b6b6b" d="M36 2h1M88 2h1M100 3h1M42 12h1M120 12h1M22 19h1M62 19h1M141 20h1" />
<path stroke="#777777" d="M39 2h1M159 4h1M59 5h1M79 8h1M179 9h1M81 16h1M119 16h1M99 18h1M59 19h1M64 19h1M113 19h1M121 19h1M173 19h1" />
<path stroke="#565656" d="M74 2h1M20 4h1M162 11h1M38 20h1M78 20h1M113 20h1M125 20h1M154 20h1" />
<path stroke="#808080" d="M81 2h1M39 3h1M161 3h1M59 4h1M99 5h1M59 6h1M59 7h1M179 7h1M39 8h1M161 9h1M81 10h1M101 10h1M61 12h1M119 12h1M119 15h1M101 16h1M161 16h1M39 17h1M59 17h1M99 17h1M19 18h1M59 18h1M121 18h1M18 19h1M37 19h2M56 19h1M72 19h1M76 19h2M86 19h1M109 19h1M114 19h2M117 19h1M157 19h1M178 19h1" />
<path stroke="#7c7c7c" d="M121 2h1M61 4h1M139 6h1M99 10h1M59 11h1M81 11h1M121 11h1M61 13h1M81 15h1M141 15h1M79 17h1M121 17h1M159 18h1M31 19h1M51 19h1M58 19h1M63 19h1M78 19h1M94 19h1M125 19h1M138 19h2M161 19h1M168 19h1M170 19h1M172 19h1" />
<path stroke="#7a7a7a" d="M161 2h1M101 4h1M119 5h1M119 6h1M119 8h1M21 9h1M99 9h1M159 9h1M139 10h1M79 11h1M141 11h1M21 12h1M159 12h1M39 13h1M59 13h1M19 15h1M99 15h1M161 18h1M24 19h1M27 19h1M29 19h1M88 19h2M98 19h1M104 19h1M141 19h2M144 19h1" />
<path stroke="#474747" d="M180 2h1M180 3h1M180 4h1M180 5h1M180 6h1M180 7h1M180 8h1M180 9h1M180 10h1M180 11h1M180 12h1M180 13h1M180 14h1M180 15h1M180 16h1M180 17h1M180 18h1M180 19h1M180 20h1" />
<path stroke="rgba(4,4,4,0.7294117647058823)" d="M3 3h8M12 3h1M14 3h5M23 3h1M25 3h11M37 3h1M43 3h1M45 3h2M48 3h3M52 3h2M56 3h2M63 3h7M71 3h8M83 3h7M92 3h6M103 3h1M105 3h2M109 3h5M115 3h4M123 3h1M125 3h2M128 3h7M136 3h3M143 3h3M147 3h3M151 3h7M163 3h4M168 3h4M175 3h4M3 4h1M23 4h1M43 4h1M63 4h1M83 4h1M103 4h1M123 4h1M163 4h1M3 5h1M23 5h1M63 5h1M103 5h1M123 5h1M143 5h1M163 5h1M3 6h1M43 6h1M83 6h1M103 6h1M123 6h1M143 6h1M163 6h1M3 7h1M23 7h1M43 7h1M63 7h1M103 7h1M163 7h1M3 8h1M23 8h1M43 8h1M83 8h1M103 8h1M143 8h1M163 8h1M3 9h1M43 9h1M63 9h1M103 9h1M123 9h1M143 9h1M3 10h1M63 10h1M83 10h1M123 10h1M143 10h1M3 11h1M23 11h1M43 11h1M63 11h1M103 11h1M143 11h1M163 11h1M3 12h1M43 12h1M83 12h1M103 12h1M123 12h1M163 12h1M23 13h1M43 13h1M83 13h1M123 13h1M143 13h1M43 14h1M63 14h1M83 14h1M103 14h1M143 14h1M3 15h1M23 15h1M43 15h1M63 15h1M83 15h1M103 15h1M123 15h1M143 15h1M163 15h1M3 16h1M23 16h1M43 16h1M63 16h1M83 16h1M103 16h1M123 16h1M143 16h1M163 16h1M3 17h1M23 17h1M43 17h1M63 17h1M103 17h1M123 17h1M143 17h1M163 17h1M3 18h1M43 18h1M63 18h1M83 18h1M103 18h1M123 18h1M163 18h1" />
<path stroke="rgba(12,12,4,0.7294117647058823)" d="M11 3h1M127 3h1M172 3h1M103 10h1" />
<path stroke="rgba(8,9,4,0.7294117647058823)" d="M13 3h1M36 3h1M47 3h1M54 3h1M114 3h1M150 3h1M158 3h1M173 3h1M23 6h1M163 9h1M23 10h1M43 10h1M63 12h1M103 13h1" />
<path stroke="#737373" d="M19 3h1M119 4h1M99 6h1M141 7h1M141 9h1M21 11h1M19 12h1M141 12h1M21 14h1M21 15h1M79 18h1M81 18h1M101 18h1M55 19h1M61 19h1M82 19h1M102 19h1M112 19h1M133 19h1M153 19h1M174 19h1" />
<path stroke="rgba(13,15,4,0.7294117647058823)" d="M24 3h1M83 5h1M83 17h1" />
<path stroke="rgba(6,6,4,0.7294117647058823)" d="M38 3h1M44 3h1M51 3h1M55 3h1M58 3h1M70 3h1M91 3h1M98 3h1M104 3h1M107 3h1M124 3h1M135 3h1M146 3h1M167 3h1M174 3h1M143 4h1M43 5h1M63 6h1M83 7h1M123 7h1M143 7h1M63 8h1M123 8h1M23 9h1M83 9h1M163 10h1M83 11h1M123 11h1M143 12h1M3 13h1M63 13h1M163 13h1M3 14h1M23 14h1M123 14h1M163 14h1M23 18h1M143 18h1" />
<path stroke="rgba(15,16,4,0.7294117647058823)" d="M90 3h1M108 3h1M23 12h1" />
<path stroke="rgba(27,30,4,0.7294117647058823)" d="M4 4h1M35 4h1M56 4h1M69 4h1M89 4h1M117 4h1M38 5h1M85 5h1M117 5h1M149 5h1M153 5h1M170 5h1M54 6h1M56 6h1M94 6h1M104 6h1M144 6h1M155 6h1M174 6h1M7 7h1M26 7h1M54 7h1M76 7h1M95 7h1M104 7h1M109 7h1M69 8h1M86 8h1M94 8h1M129 8h1M152 8h1M11 9h1M29 9h1M37 9h1M74 9h1M115 9h1M144 9h1M153 9h1M156 9h1M170 9h1M6 10h1M26 10h1M32 10h1M68 10h1M127 10h1M169 10h1M14 11h1M44 11h1M68 11h1M76 11h1M87 11h1M104 11h1M128 11h1M150 11h1M8 12h1M33 12h1M44 12h1M49 12h2M55 12h1M67 12h1M113 12h1M125 12h1M145 12h1M164 12h1M6 13h1M57 13h1M116 13h1M124 13h1M13 14h1M49 14h1M89 14h1M131 14h1M177 14h1M8 15h1M16 15h1M29 15h1M108 15h1M127 15h1M131 15h1M167 15h1M30 16h1M46 16h1M56 16h1M94 16h1M111 16h1M177 16h1M28 17h1M51 17h1M94 17h1M144 17h1M171 17h1M9 18h1M52 18h1M65 18h1M67 18h1M75 18h1M94 18h1M105 18h1M128 18h1M158 18h1M168 18h1M171 18h1" />
<path stroke="rgba(39,37,5,0.7294117647058823)" d="M5 4h2M8 4h1M12 4h1M15 4h4M25 4h7M36 4h1M44 4h5M50 4h1M52 4h3M64 4h1M66 4h1M68 4h1M71 4h3M75 4h3M84 4h1M86 4h1M90 4h1M93 4h1M95 4h1M104 4h1M106 4h2M109 4h4M115 4h1M118 4h1M125 4h6M134 4h1M138 4h1M144 4h2M148 4h1M150 4h5M158 4h1M165 4h1M168 4h2M171 4h1M174 4h1M176 4h1M178 4h1M4 5h4M9 5h3M15 5h3M24 5h1M26 5h2M29 5h4M36 5h1M45 5h3M49 5h6M57 5h2M64 5h3M68 5h3M72 5h1M74 5h5M84 5h1M88 5h2M91 5h2M94 5h3M98 5h1M104 5h2M109 5h5M115 5h2M124 5h1M127 5h3M131 5h2M134 5h1M136 5h3M144 5h3M148 5h1M151 5h1M155 5h4M164 5h1M167 5h1M173 5h2M178 5h1M4 6h1M6 6h1M8 6h1M11 6h1M14 6h3M18 6h1M24 6h2M27 6h5M33 6h6M44 6h1M46 6h1M48 6h2M51 6h1M53 6h1M55 6h1M64 6h2M67 6h2M71 6h2M74 6h4M87 6h1M89 6h1M91 6h3M95 6h2M98 6h1M105 6h7M113 6h2M116 6h3M124 6h1M126 6h2M129 6h2M132 6h1M138 6h1M145 6h3M150 6h5M158 6h1M164 6h1M166 6h1M169 6h1M173 6h1M175 6h1M6 7h1M8 7h4M14 7h3M18 7h1M24 7h1M28 7h1M30 7h2M33 7h1M35 7h3M44 7h1M46 7h5M52 7h1M55 7h2M66 7h1M68 7h1M71 7h1M73 7h3M78 7h1M84 7h2M87 7h1M90 7h5M97 7h2M108 7h1M112 7h2M118 7h1M125 7h1M128 7h2M131 7h1M133 7h3M138 7h1M144 7h1M147 7h2M153 7h6M165 7h1M168 7h5M174 7h2M177 7h2M4 8h1M6 8h1M8 8h10M24 8h3M28 8h5M35 8h2M38 8h1M45 8h3M50 8h2M53 8h3M57 8h2M64 8h2M67 8h2M70 8h5M84 8h1M87 8h1M90 8h3M95 8h3M104 8h2M107 8h1M109 8h2M112 8h5M124 8h2M128 8h1M130 8h2M133 8h1M135 8h1M137 8h1M144 8h4M149 8h1M151 8h1M153 8h3M157 8h2M164 8h1M167 8h3M171 8h8M4 9h2M7 9h2M10 9h1M12 9h3M16 9h1M18 9h1M24 9h1M26 9h2M31 9h2M34 9h1M36 9h1M38 9h1M44 9h3M50 9h1M52 9h1M54 9h1M56 9h3M65 9h1M76 9h1M84 9h5M90 9h3M94 9h3M98 9h1M104 9h6M112 9h2M116 9h1M118 9h1M124 9h3M131 9h2M136 9h2M145 9h1M147 9h1M150 9h1M155 9h1M158 9h1M165 9h2M169 9h1M172 9h4M177 9h2M4 10h1M7 10h2M11 10h1M14 10h2M18 10h1M25 10h1M28 10h4M33 10h1M35 10h2M45 10h1M48 10h1M50 10h3M54 10h5M69 10h6M76 10h2M86 10h3M90 10h4M95 10h1M98 10h1M104 10h1M107 10h3M112 10h2M115 10h2M124 10h3M128 10h1M130 10h9M144 10h2M148 10h1M150 10h5M158 10h1M164 10h1M170 10h1M172 10h1M175 10h4M6 11h1M11 11h3M15 11h2M18 11h1M24 11h4M29 11h1M32 11h1M35 11h1M37 11h1M47 11h3M52 11h2M55 11h3M67 11h1M70 11h5M77 11h2M84 11h2M88 11h1M90 11h3M96 11h1M105 11h6M112 11h2M117 11h1M125 11h1M129 11h1M132 11h6M144 11h1M148 11h1M151 11h1M154 11h4M164 11h4M169 11h5M176 11h1M178 11h1M5 12h3M9 12h1M12 12h3M17 12h1M24 12h2M27 12h2M30 12h1M36 12h3M45 12h2M52 12h3M56 12h1M58 12h1M65 12h2M68 12h2M72 12h3M76 12h1M84 12h1M86 12h1M88 12h2M91 12h2M98 12h1M109 12h4M126 12h3M131 12h3M136 12h2M146 12h2M149 12h1M151 12h1M153 12h1M155 12h1M157 12h2M165 12h3M169 12h1M172 12h7M4 13h2M8 13h4M13 13h3M17 13h1M24 13h5M30 13h1M32 13h1M44 13h2M49 13h1M52 13h1M54 13h3M58 13h1M64 13h4M69 13h1M71 13h8M84 13h1M88 13h1M90 13h1M93 13h1M97 13h1M104 13h1M107 13h9M117 13h2M125 13h3M129 13h6M136 13h3M144 13h1M147 13h4M152 13h3M156 13h3M164 13h1M166 13h3M172 13h1M174 13h1M176 13h1M178 13h1M4 14h3M9 14h2M12 14h1M14 14h1M18 14h1M24 14h1M26 14h4M32 14h1M34 14h1M38 14h1M45 14h1M47 14h1M50 14h6M57 14h2M64 14h1M68 14h2M72 14h3M76 14h2M84 14h3M91 14h2M94 14h5M104 14h1M106 14h1M109 14h1M111 14h4M124 14h7M132 14h1M134 14h1M137 14h2M144 14h1M147 14h3M152 14h5M158 14h1M164 14h1M168 14h7M176 14h1M5 15h1M7 15h1M9 15h1M11 15h2M18 15h1M24 15h2M28 15h1M30 15h9M44 15h5M51 15h2M54 15h4M64 15h2M69 15h1M71 15h2M74 15h1M77 15h2M85 15h2M88 15h4M93 15h4M105 15h3M109 15h3M114 15h3M118 15h1M124 15h2M128 15h3M132 15h7M146 15h1M149 15h1M152 15h1M154 15h3M158 15h1M164 15h1M166 15h1M169 15h2M172 15h3M176 15h1M4 16h1M6 16h1M8 16h1M10 16h2M13 16h6M25 16h2M28 16h2M32 16h1M34 16h1M36 16h2M44 16h2M48 16h1M51 16h2M58 16h1M64 16h1M67 16h1M70 16h2M76 16h3M84 16h4M90 16h1M92 16h2M95 16h2M105 16h1M108 16h1M114 16h4M127 16h5M134 16h1M137 16h2M144 16h3M150 16h3M155 16h4M164 16h7M172 16h4M178 16h1M4 17h9M14 17h4M25 17h2M29 17h1M31 17h1M33 17h3M37 17h2M45 17h2M48 17h3M52 17h3M64 17h1M66 17h2M70 17h1M72 17h2M76 17h3M85 17h3M89 17h1M95 17h1M104 17h2M107 17h3M111 17h4M116 17h2M124 17h1M127 17h3M131 17h1M134 17h5M145 17h3M150 17h2M153 17h1M156 17h2M164 17h2M170 17h1M174 17h2M178 17h1M4 18h2M8 18h1M10 18h1M12 18h2M16 18h3M24 18h4M29 18h1M31 18h3M36 18h3M47 18h2M50 18h2M53 18h5M69 18h1M71 18h2M74 18h1M78 18h1M85 18h1M87 18h2M90 18h1M92 18h2M95 18h1M97 18h2M104 18h1M107 18h1M109 18h1M113 18h1M124 18h3M129 18h2M134 18h3M144 18h2M148 18h1M153 18h2M156 18h2M164 18h1M167 18h1M170 18h1M172 18h2M177 18h1" />
<path stroke="rgba(26,26,4,0.7294117647058823)" d="M7 4h1M74 4h1M94 4h1M113 4h1M44 5h1M118 5h1M7 6h1M133 6h1M111 8h1M118 8h1M165 8h2M30 9h1M168 9h1M36 11h1M177 11h1M108 12h1M171 12h1M16 13h1M46 13h1M17 14h1M87 14h1M50 15h1M67 15h1M148 15h1M33 16h1M124 16h1M167 17h1M6 18h1M73 18h1M131 18h1" />
<path stroke="rgba(39,37,6,0.7294117647058823)" d="M9 4h1M11 4h1M13 4h1M51 4h1M78 4h1M131 4h1M136 4h1M172 4h1M18 5h1M35 5h1M90 5h1M152 5h1M168 5h1M32 6h1M45 6h1M58 6h1M66 6h1M85 6h1M88 6h1M134 6h1M136 6h1M167 6h1M177 6h1M25 7h1M34 7h1M70 7h1M107 7h1M111 7h1M130 7h1M137 7h1M167 7h1M49 8h1M93 8h1M117 8h1M134 8h1M148 8h1M6 9h1M25 9h1M47 9h1M53 9h1M69 9h1M93 9h1M128 9h2M9 10h1M53 10h1M78 10h1M85 10h1M96 10h1M111 10h1M129 10h1M149 10h1M155 10h1M165 10h1M5 11h1M33 11h1M45 11h1M75 11h1M115 11h1M124 11h1M145 11h1M147 11h1M175 11h1M16 12h1M32 12h1M70 12h1M85 12h1M107 12h1M18 13h1M33 13h2M145 13h1M171 13h1M173 13h1M11 14h1M15 14h1M35 14h1M78 14h1M93 14h1M107 14h2M110 14h1M135 14h1M175 14h1M26 15h1M49 15h1M70 15h1M98 15h1M150 15h1M153 15h1M168 15h1M24 16h1M49 16h1M57 16h1M66 16h1M72 16h1M75 16h1M106 16h1M110 16h1M118 16h1M153 16h1M18 17h1M30 17h1M74 17h1M88 17h1M132 17h1M152 17h1M168 17h1M173 17h1M11 18h1M15 18h1M46 18h1M111 18h1M118 18h1M151 18h2M165 18h1" />
<path stroke="rgba(46,42,12,0.7294117647058823)" d="M10 4h1M24 4h1M57 6h1M148 6h1M13 7h1M7 8h1M56 8h1M98 8h1M170 8h1M157 9h1M12 10h1M17 10h1M106 10h1M29 12h1M75 12h1M90 12h1M96 13h1M170 13h1M145 14h1M68 15h1M117 15h1M31 16h1M47 16h1M136 16h1M127 18h1" />
<path stroke="rgba(23,24,4,0.7294117647058823)" d="M14 4h1M97 5h1M67 7h1M105 7h1M166 7h1M75 8h1M150 8h1M17 9h1M117 10h1M153 11h1M154 12h1M37 14h1M14 18h1" />
<path stroke="rgba(37,37,4,0.7294117647058823)" d="M32 4h1M55 4h1M65 4h1M85 4h1M88 4h1M92 4h1M98 4h1M146 4h2M149 4h1M155 4h2M166 4h1M8 5h1M12 5h2M25 5h1M28 5h1M55 5h1M86 5h1M114 5h1M147 5h1M165 5h1M9 6h2M69 6h2M84 6h1M38 7h1M64 7h2M96 7h1M106 7h1M124 7h1M127 7h1M152 7h1M48 8h1M108 8h1M126 8h1M132 8h1M156 8h1M51 9h1M127 9h1M149 9h1M152 9h1M171 9h1M16 10h1M27 10h1M37 10h1M47 10h1M65 10h1M156 10h1M167 10h1M9 11h2M17 11h1M28 11h1M31 11h1M38 11h1M46 11h1M54 11h1M64 11h1M86 11h1M89 11h1M94 11h1M146 11h1M174 11h1M11 12h1M34 12h1M47 12h1M57 12h1M77 12h1M87 12h1M95 12h1M130 12h1M134 12h1M148 12h1M170 12h1M53 13h1M68 13h1M86 13h1M31 14h1M44 14h1M56 14h1M90 14h1M105 14h1M117 14h2M146 14h1M10 15h1M15 15h1M97 15h1M104 15h1M145 15h1M147 15h1M171 15h1M177 15h2M9 16h1M35 16h1M38 16h1M55 16h1M73 16h2M88 16h1M104 16h1M109 16h1M125 16h1M132 16h1M148 16h1M36 17h1M44 17h1M65 17h1M68 17h2M90 17h1M98 17h1M154 17h1M166 17h1M7 18h1M30 18h1M49 18h1M86 18h1M110 18h1M115 18h1M149 18h1" />
<path stroke="rgba(45,41,8,0.7294117647058823)" d="M33 4h1M132 4h1M67 5h1M106 5h1M125 5h1M169 5h1M171 5h1M176 5h1M5 6h1M13 6h1M17 6h1M97 6h1M4 7h1M58 7h1M173 7h1M76 8h1M89 8h1M64 9h1M71 9h1M130 9h1M135 9h1M164 9h1M176 9h1M34 10h1M174 10h1M8 11h1M93 11h1M111 11h1M118 11h1M131 11h1M15 12h1M129 12h1M35 13h1M91 13h1M128 13h1M146 13h1M16 14h1M150 14h1M178 14h1M66 15h1M84 15h1M91 16h1M171 16h1M176 16h1M126 17h1M130 17h1M158 17h1M172 17h1M66 18h1M96 18h1M166 18h1" />
<path stroke="rgba(42,38,8,0.7294117647058823)" d="M34 4h1M38 4h1M108 4h1M137 4h1M170 4h1M173 4h1M14 5h1M126 5h1M172 5h1M177 5h1M12 6h1M26 6h1M47 6h1M52 6h1M112 6h1M128 6h1M168 6h1M32 7h1M126 7h1M5 8h1M33 8h1M78 8h1M138 8h1M68 9h1M70 9h1M72 9h1M5 10h1M89 10h1M168 10h1M50 11h1M65 11h1M69 11h1M152 11h1M105 12h1M117 12h1M12 13h1M29 13h1M47 13h1M151 13h1M155 13h1M165 13h1M7 14h1M33 14h1M48 14h1M66 14h1M70 14h1M115 14h1M165 14h1M14 15h1M27 15h1M58 15h1M87 15h1M7 16h1M12 16h1M27 16h1M89 16h1M107 16h1M113 16h1M149 16h1M56 17h1M97 17h1M68 18h1M108 18h1M116 18h1M174 18h1" />
<path stroke="rgba(32,34,5,0.7294117647058823)" d="M37 4h1M58 4h1M114 4h1M133 4h1M135 4h1M48 5h1M71 5h1M175 5h1M137 6h1M171 6h2M176 6h1M12 7h1M57 7h1M72 7h1M86 7h1M88 7h1M114 7h1M117 7h1M176 7h1M27 8h1M85 8h1M127 8h1M48 9h1M67 9h1M77 9h1M97 9h1M110 9h2M146 9h1M10 10h1M24 10h1M44 10h1M64 10h1M67 10h1M105 10h1M147 10h1M171 10h1M95 11h1M97 11h1M26 12h1M51 12h1M78 12h1M116 12h1M124 12h1M138 12h1M156 12h1M168 12h1M31 13h1M37 13h1M48 13h1M85 13h1M92 13h1M94 13h1M135 13h1M177 13h1M75 14h1M136 14h1M13 15h1M17 15h1M53 15h1M92 15h1M112 15h1M165 15h1M53 16h1M65 16h1M133 16h1M135 16h1M147 16h1M24 17h1M27 17h1M92 17h2M96 17h1M110 17h1M58 18h1M133 18h1M147 18h1M150 18h1M175 18h1M178 18h1" />
<path stroke="#848484" d="M39 4h1M121 5h1M119 7h1M139 7h1M99 8h1M99 11h1M79 12h1M101 12h1M41 15h1M59 16h1M13 19h1M26 19h1M44 19h1M47 19h1M74 19h2M118 19h1M155 19h1" />
<path stroke="rgba(42,37,8,0.7294117647058823)" d="M49 4h1M34 5h1M130 5h1M50 6h1M135 6h1M149 6h1M178 6h1M29 7h1M45 7h1M115 7h2M132 7h1M44 8h1M15 9h1M66 9h1M89 9h1M117 9h1M134 9h1M75 10h1M166 10h1M173 10h1M7 11h1M98 11h1M114 11h1M158 11h1M4 12h1M31 12h1M71 12h1M94 12h1M144 12h1M7 13h1M87 13h1M95 13h1M98 13h1M8 14h1M25 14h1M36 14h1M65 14h1M67 14h1M133 14h1M151 14h1M157 14h1M167 14h1M73 15h1M144 15h1M157 15h1M175 15h1M69 16h1M154 16h1M32 17h1M118 17h1M133 17h1M91 18h1M112 18h1M138 18h1M176 18h1" />
<path stroke="rgba(34,34,5,0.7294117647058823)" d="M57 4h1M70 4h1M87 4h1M91 4h1M97 4h1M164 4h1M167 4h1M56 5h1M108 5h1M154 5h1M166 5h1M78 6h1M125 6h1M27 7h1M89 7h1M151 7h1M77 8h1M33 9h1M73 9h1M75 9h1M114 9h1M133 9h1M154 9h1M13 10h1M46 10h1M66 10h1M58 11h1M116 11h1M130 11h1M138 11h1M48 12h1M93 12h1M96 12h2M135 12h1M152 12h1M38 13h1M50 13h1M106 13h1M169 13h1M46 14h1M88 14h1M151 15h1M50 16h1M98 16h1M58 17h1M106 17h1M115 17h1M148 17h2M169 17h1M28 18h1M64 18h1M77 18h1M106 18h1M114 18h1M132 18h1M146 18h1M155 18h1" />
<path stroke="rgba(46,43,10,0.7294117647058823)" d="M67 4h1M116 4h1M157 4h1M37 5h1M73 5h1M93 5h1M135 5h1M73 6h1M86 6h1M156 6h2M170 6h1M5 7h1M17 7h1M53 7h1M69 7h1M149 7h2M34 8h1M37 8h1M52 8h1M66 8h1M88 8h1M106 8h1M136 8h1M49 9h1M138 9h1M151 9h1M167 9h1M97 10h1M110 10h1M157 10h1M34 11h1M10 12h1M18 12h1M35 12h1M104 12h1M114 12h1M118 12h1M51 13h1M70 13h1M105 13h1M175 13h1M166 14h1M4 15h1M126 15h1M5 16h1M68 16h1M97 16h1M47 17h1M55 17h1M177 17h1M35 18h1M45 18h1M70 18h1M89 18h1M117 18h1M169 18h1" />
<path stroke="rgba(49,45,15,0.7294117647058823)" d="M96 4h1M175 4h1M177 4h1M33 5h1M87 5h1M115 6h1M145 7h1M164 7h1M28 9h1M55 9h1M148 9h1M51 11h1M150 12h1M116 14h1M75 15h1M113 15h1M112 16h1M13 17h1M155 17h1M137 18h1" />
<path stroke="rgba(30,32,4,0.7294117647058823)" d="M105 4h1M124 4h1M133 5h1M90 6h1M131 6h1M165 6h1M51 7h1M77 7h1M146 7h1M18 8h1M9 9h1M35 9h1M49 10h1M84 10h1M114 10h1M146 10h1M4 11h1M30 11h1M149 11h1M168 11h1M64 12h1M115 12h1M36 13h1M89 13h1M71 14h1M6 15h1M76 15h1M54 16h1M57 17h1M75 17h1M91 17h1M125 17h1M176 17h1M34 18h1M84 18h1" />
<path stroke="#858585" d="M79 5h1M81 6h1M121 6h1M101 9h1M81 12h1M121 12h1M101 15h1M139 15h1M21 16h1M121 16h1M41 17h1M34 19h1M49 19h1M57 19h1M93 19h1" />
<path stroke="rgba(52,46,16,0.7294117647058823)" d="M107 5h1M150 5h1M78 9h1M38 10h1M94 10h1M127 11h1M71 17h1M44 18h1M76 18h1" />
<path stroke="rgba(52,46,17,0.7294117647058823)" d="M110 7h1M66 11h1M84 17h1" />
<path stroke="rgba(52,47,17,0.7294117647058823)" d="M136 7h1M118 10h1M126 11h1M126 16h1" />
<path stroke="#8b8b8b" d="M121 8h1M19 11h1" />
<path stroke="#4d4d4d" d="M80 9h1M82 11h1" />
<path stroke="#898989" d="M41 11h1M41 16h1M12 19h1M17 19h1" />
<path stroke="rgba(20,21,4,0.7294117647058823)" d="M106 12h1" />
<path stroke="rgba(19,19,4,0.7294117647058823)" d="M30 14h1" />
<path stroke="#545454" d="M102 14h1" />
<path stroke="#909090" d="M130 19h1M143 19h1" />
</svg>