<svg xmlns="http://www.w3.org/2000/svg" viewBox="0 -0.5 200 20" shape-rendering="crispEdges">
<metadata>Made with Pixels to Svg https://codepen.io/shshaw/pen/XbxvNj</metadata>
<path stroke="#000000" d="M0 0h200M0 1h1M199 1h1M0 2h1M199 2h1M0 3h1M199 3h1M0 4h1M199 4h1M0 5h1M199 5h1M0 6h1M199 6h1M0 7h1M199 7h1M0 8h1M199 8h1M0 9h1M199 9h1M0 10h1M199 10h1M0 11h1M199 11h1M0 12h1M199 12h1M0 13h1M199 13h1M0 14h1M199 14h1M0 15h1M199 15h1M0 16h1M199 16h1M0 17h1M199 17h1M0 18h1M199 18h1M0 19h200" />
<path stroke="#aaaaaa" d="M1 1h5M8 1h12M21 1h3M28 1h2M31 1h3M35 1h6M42 1h1M45 1h9M55 1h4M62 1h4M67 1h3M71 1h5M78 1h1M82 1h1M85 1h3M92 1h22M116 1h3M121 1h1M129 1h1M131 1h5M138 1h1M141 1h2M149 1h2M152 1h7M161 1h1M165 1h4M170 1h5M176 1h9M187 1h2M191 1h7M1 2h1M1 3h1M1 5h1M1 7h1M1 8h1M1 9h1M1 10h1M1 11h1M1 12h1M1 13h1M1 14h1M1 15h1" />
<path stroke="#a7a7a7" d="M6 1h1M25 1h1M59 1h1M66 1h1M79 1h1M83 1h1M88 1h1M119 1h1M123 1h1M136 1h1M140 1h1M145 1h2M164 1h1M169 1h1" />
<path stroke="#a8a8a8" d="M7 1h1M24 1h1M26 1h2M30 1h1M34 1h1M41 1h1M43 1h2M60 1h2M81 1h1M84 1h1M89 1h3M114 1h2M120 1h1M122 1h1M124 1h2M128 1h1M137 1h1M139 1h1M143 1h1M148 1h1M151 1h1M159 1h2M162 1h1M185 1h1M190 1h1M1 4h1M1 16h1" />
<path stroke="#acacac" d="M20 1h1M54 1h1M70 1h1M76 1h2M126 1h2M130 1h1M175 1h1" />
<path stroke="#a6a6a6" d="M80 1h1M144 1h1M163 1h1M186 1h1M189 1h1M1 6h1" />
<path stroke="#a4a4a4" d="M147 1h1" />
<path stroke="#6f6f6f" d="M198 1h1M2 2h6M12 2h4M19 2h2M31 2h2M40 2h2M47 2h2M51 2h1M53 2h1M58 2h2M63 2h1M69 2h1M71 2h2M75 2h1M84 2h1M93 2h1M96 2h2M103 2h1M106 2h3M116 2h3M123 2h1M126 2h2M130 2h1M132 2h1M134 2h2M138 2h1M140 2h1M144 2h1M150 2h2M155 2h1M157 2h2M160 2h1M162 2h1M164 2h4M171 2h2M174 2h4M181 2h2M187 2h4M192 2h1M4 3h2M9 3h4M19 3h1M22 3h1M27 3h5M34 3h1M45 3h2M49 3h2M61 3h1M66 3h4M79 3h1M93 3h1M97 3h1M101 3h1M109 3h2M119 3h9M134 3h3M139 3h1M147 3h1M161 3h1M163 3h1M165 3h1M168 3h1M171 3h1M174 3h2M177 3h1M179 3h1M183 3h2M186 3h6M193 3h2M196 3h1M2 4h1M6 4h1M8 4h4M14 4h1M18 4h1M29 4h5M38 4h4M45 4h1M47 4h1M52 4h1M58 4h1M62 4h2M77 4h1M83 4h1M90 4h2M93 4h3M100 4h1M103 4h1M106 4h1M117 4h1M120 4h1M125 4h9M141 4h3M148 4h2M152 4h1M159 4h4M167 4h1M172 4h2M176 4h1M2 5h1M6 5h1M12 5h3M19 5h1M22 5h1M26 5h1M38 5h2M42 5h1M45 5h1M52 5h1M56 5h1M58 5h4M67 5h1M79 5h1M81 5h3M88 5h3M93 5h4M101 5h2M105 5h1M107 5h1M112 5h1M116 5h4M123 5h2M127 5h2M136 5h1M143 5h4M150 5h4M155 5h1M158 5h3M163 5h2M166 5h7M189 5h2M193 5h2M3 6h4M8 6h1M10 6h1M12 6h3M17 6h4M25 6h1M29 6h1M32 6h2M40 6h1M43 6h2M53 6h2M60 6h2M67 6h2M70 6h1M74 6h2M78 6h1M80 6h1M82 6h2M91 6h4M97 6h1M105 6h2M109 6h1M121 6h4M126 6h3M131 6h1M134 6h1M145 6h1M147 6h1M151 6h2M163 6h1M168 6h2M171 6h4M180 6h3M188 6h2M194 6h1M4 7h1M11 7h1M13 7h1M15 7h6M22 7h1M27 7h2M31 7h2M38 7h2M43 7h6M53 7h2M61 7h1M64 7h1M73 7h1M78 7h6M90 7h1M100 7h3M104 7h1M109 7h1M114 7h2M120 7h1M125 7h4M133 7h5M139 7h1M143 7h1M146 7h1M151 7h1M156 7h1M159 7h1M162 7h2M169 7h3M175 7h1M180 7h5M186 7h1M190 7h3M194 7h1M197 7h1M8 8h3M12 8h1M16 8h5M22 8h2M27 8h1M33 8h1M45 8h2M52 8h2M55 8h1M57 8h1M60 8h3M65 8h3M78 8h5M84 8h1M87 8h1M89 8h2M95 8h1M99 8h1M108 8h1M110 8h1M130 8h1M135 8h7M147 8h4M152 8h1M158 8h2M161 8h1M164 8h1M167 8h1M172 8h3M181 8h1M187 8h3M194 8h1M4 9h2M7 9h5M15 9h3M20 9h1M30 9h2M55 9h1M60 9h1M75 9h1M78 9h8M89 9h3M96 9h2M99 9h7M110 9h1M112 9h1M116 9h2M120 9h1M124 9h1M128 9h1M131 9h2M137 9h2M142 9h3M146 9h3M150 9h1M153 9h1M159 9h1M168 9h5M174 9h1M177 9h3M181 9h1M188 9h1M192 9h1M196 9h1M9 10h2M12 10h1M20 10h4M27 10h1M30 10h2M33 10h3M37 10h2M41 10h2M45 10h1M49 10h1M53 10h2M57 10h1M61 10h4M67 10h1M75 10h1M83 10h2M88 10h6M101 10h1M105 10h1M113 10h2M123 10h1M128 10h1M131 10h4M136 10h2M142 10h1M144 10h2M147 10h4M155 10h1M159 10h1M163 10h2M169 10h1M171 10h1M174 10h3M184 10h2M187 10h1M190 10h2M193 10h2M2 11h5M10 11h2M15 11h2M25 11h1M27 11h1M32 11h1M39 11h3M45 11h1M47 11h4M52 11h5M59 11h3M66 11h1M68 11h1M74 11h1M76 11h1M78 11h1M86 11h1M92 11h2M97 11h2M100 11h3M107 11h1M116 11h1M125 11h1M127 11h1M133 11h7M141 11h2M146 11h5M152 11h1M165 11h1M167 11h2M179 11h2M186 11h1M190 11h1M195 11h1M2 12h3M8 12h1M13 12h1M16 12h1M22 12h3M28 12h1M31 12h2M36 12h12M51 12h1M54 12h4M63 12h1M68 12h2M71 12h1M75 12h1M78 12h1M89 12h1M91 12h1M94 12h1M96 12h2M108 12h1M111 12h1M119 12h2M125 12h2M128 12h2M135 12h3M139 12h1M143 12h2M152 12h1M156 12h1M167 12h1M171 12h1M173 12h1M178 12h1M180 12h3M195 12h2M3 13h1M9 13h1M11 13h2M14 13h2M21 13h1M30 13h1M36 13h1M46 13h2M53 13h2M58 13h1M60 13h1M67 13h3M73 13h6M86 13h1M97 13h2M106 13h2M115 13h4M124 13h5M130 13h1M136 13h3M144 13h1M152 13h1M155 13h1M160 13h1M162 13h1M169 13h1M173 13h1M175 13h1M189 13h2M5 14h1M10 14h3M16 14h2M19 14h1M21 14h1M23 14h5M29 14h1M31 14h1M34 14h1M36 14h2M42 14h4M48 14h1M50 14h1M52 14h1M54 14h1M57 14h3M65 14h4M71 14h1M77 14h2M84 14h4M89 14h1M92 14h1M94 14h1M101 14h1M105 14h2M123 14h2M128 14h1M137 14h1M140 14h1M142 14h2M146 14h1M151 14h2M157 14h3M166 14h2M171 14h4M187 14h1M191 14h1M7 15h3M16 15h1M22 15h2M32 15h2M38 15h1M42 15h1M54 15h2M63 15h1M65 15h2M68 15h1M71 15h1M73 15h2M82 15h1M85 15h1M89 15h1M93 15h1M97 15h1M99 15h2M106 15h4M111 15h1M115 15h2M119 15h4M135 15h3M141 15h2M144 15h1M146 15h1M149 15h1M152 15h1M157 15h1M161 15h1M163 15h1M166 15h4M180 15h1M195 15h1M2 16h1M6 16h1M10 16h1M30 16h1M45 16h1M54 16h1M59 16h3M66 16h3M70 16h1M78 16h1M85 16h2M94 16h3M100 16h3M104 16h1M113 16h2M117 16h2M124 16h1M128 16h1M132 16h1M135 16h6M143 16h1M148 16h1M151 16h2M154 16h3M164 16h2M167 16h2M171 16h1M178 16h1M190 16h5" />
<path stroke="#6b6b6b" d="M8 2h1M21 2h1M23 2h1M26 2h1M29 2h1M38 2h1M43 2h1M45 2h1M49 2h1M55 2h1M73 2h1M76 2h1M78 2h1M86 2h2M90 2h2M100 2h2M109 2h1M119 2h1M122 2h1M128 2h1M142 2h1M3 3h1M18 3h1M37 3h1M42 3h1M54 3h2M57 3h1M59 3h1M63 3h1M87 3h1M106 3h2M112 3h1M115 3h1M137 3h1M143 3h1M145 3h1M149 3h1M156 3h1M162 3h1M167 3h1M172 3h2M12 4h2M20 4h1M22 4h1M35 4h1M44 4h1M48 4h2M51 4h1M53 4h1M55 4h1M66 4h2M70 4h2M79 4h1M87 4h1M97 4h1M123 4h2M135 4h1M157 4h1M166 4h1M170 4h1M180 4h1M184 4h1M196 4h1M5 5h1M9 5h2M25 5h1M44 5h1M49 5h1M51 5h1M70 5h1M85 5h1M91 5h1M99 5h2M115 5h1M130 5h1M132 5h1M134 5h1M147 5h1M175 5h1M180 5h3M184 5h2M191 5h1M195 5h2M9 6h1M15 6h2M22 6h1M26 6h1M28 6h1M41 6h1M56 6h3M65 6h1M71 6h1M87 6h1M95 6h1M100 6h1M108 6h1M110 6h1M118 6h2M136 6h1M143 6h1M146 6h1M153 6h1M155 6h2M160 6h3M164 6h1M166 6h1M175 6h3M179 6h1M190 6h1M195 6h1M26 7h1M30 7h1M35 7h1M37 7h1M69 7h1M92 7h1M110 7h2M132 7h1M152 7h1M195 7h2M4 8h1M6 8h1M13 8h3M24 8h1M30 8h1M51 8h1M56 8h1M63 8h2M70 8h3M75 8h1M106 8h1M116 8h2M123 8h1M128 8h1M151 8h1M163 8h1M166 8h1M175 8h1M177 8h1M180 8h1M196 8h1M42 9h2M65 9h1M67 9h2M77 9h1M87 9h2M93 9h1M109 9h1M118 9h1M157 9h2M183 9h1M185 9h3M11 10h1M16 10h1M24 10h1M32 10h1M39 10h1M46 10h1M59 10h1M65 10h1M74 10h1M76 10h1M97 10h1M106 10h1M110 10h1M122 10h1M127 10h1M129 10h1M152 10h1M158 10h1M161 10h1M172 10h1M177 10h1M195 10h1M8 11h2M12 11h1M65 11h1M80 11h3M84 11h2M90 11h2M118 11h3M122 11h1M126 11h1M130 11h1M132 11h1M153 11h1M162 11h1M166 11h1M177 11h1M181 11h3M185 11h1M191 11h1M9 12h1M12 12h1M19 12h1M26 12h1M35 12h1M84 12h1M105 12h1M112 12h2M115 12h2M130 12h1M134 12h1M141 12h1M145 12h2M155 12h1M158 12h1M172 12h1M175 12h2M188 12h1M190 12h1M197 12h1M5 13h1M17 13h1M19 13h1M31 13h1M42 13h2M45 13h1M50 13h1M52 13h1M61 13h2M71 13h1M80 13h1M89 13h1M91 13h1M93 13h1M109 13h1M112 13h2M131 13h1M146 13h1M148 13h1M158 13h1M161 13h1M163 13h1M166 13h1M168 13h1M186 13h1M191 13h1M193 13h2M7 14h1M40 14h1M49 14h1M61 14h3M74 14h1M95 14h1M97 14h1M99 14h1M131 14h1M134 14h2M145 14h1M160 14h1M179 14h1M182 14h1M184 14h1M190 14h1M193 14h1M12 15h1M14 15h1M24 15h1M35 15h1M41 15h1M51 15h3M70 15h1M77 15h1M80 15h1M88 15h1M90 15h1M104 15h1M110 15h1M126 15h3M140 15h1M145 15h1M147 15h2M156 15h1M171 15h1M175 15h1M182 15h1M3 16h1M7 16h1M14 16h1M19 16h1M24 16h1M31 16h1M34 16h1M38 16h1M40 16h1M75 16h1M103 16h1M115 16h1M120 16h1M122 16h1M150 16h1M162 16h2M169 16h1M173 16h1M186 16h1M1 18h1" />
<path stroke="#6c6c6c" d="M9 2h1M11 2h1M22 2h1M35 2h1M65 2h1M70 2h1M80 2h1M85 2h1M92 2h1M121 2h1M141 2h1M156 2h1M196 2h1M43 3h1M72 3h1M91 3h1M95 3h2M116 3h1M129 3h1M151 3h2M158 3h2M197 3h1M4 4h1M15 4h1M17 4h1M21 4h1M60 4h1M84 4h1M104 4h1M122 4h1M190 4h1M28 5h2M41 5h1M53 5h1M55 5h1M66 5h1M86 5h1M103 5h1M121 5h1M142 5h1M149 5h1M154 5h1M176 5h1M178 5h1M186 5h1M79 6h1M89 6h1M98 6h1M107 6h1M111 6h2M144 6h1M157 6h1M186 6h1M3 7h1M12 7h1M33 7h1M65 7h1M150 7h1M2 8h1M26 8h1M37 8h1M91 8h2M100 8h3M104 8h1M115 8h1M122 8h1M165 8h1M170 8h2M185 8h1M19 9h1M25 9h1M41 9h1M44 9h1M52 9h2M64 9h1M66 9h1M95 9h1M106 9h1M108 9h1M111 9h1M133 9h3M151 9h1M175 9h1M25 10h1M109 10h1M139 10h1M156 10h1M168 10h1M179 10h1M181 10h1M183 10h1M197 10h1M14 11h1M17 11h1M19 11h1M44 11h1M111 11h2M129 11h1M145 11h1M154 11h1M178 11h1M188 11h1M10 12h1M33 12h2M76 12h1M88 12h1M90 12h1M95 12h1M98 12h1M140 12h1M153 12h1M191 12h1M6 13h1M28 13h1M41 13h1M56 13h2M84 13h1M88 13h1M133 13h1M135 13h1M145 13h1M147 13h1M165 13h1M170 13h1M172 13h1M176 13h1M192 13h1M30 14h1M33 14h1M38 14h1M55 14h1M79 14h1M115 14h1M118 14h1M130 14h1M138 14h1M144 14h1M154 14h1M168 14h2M186 14h1M18 15h1M30 15h1M37 15h1M91 15h1M102 15h1M164 15h1M173 15h1M176 15h3M183 15h1M9 16h1M35 16h1M49 16h1M77 16h1M134 16h1M149 16h1M172 16h1M181 16h1M185 16h1M187 16h1M189 16h1" />
<path stroke="#717171" d="M10 2h1M16 2h2M27 2h2M34 2h1M57 2h1M66 2h1M95 2h1M98 2h1M104 2h1M115 2h1M131 2h1M133 2h1M136 2h1M149 2h1M154 2h1M8 3h1M23 3h1M25 3h1M40 3h1M44 3h1M74 3h1M76 3h1M80 3h1M85 3h1M99 3h2M105 3h1M113 3h1M117 3h1M138 3h1M140 3h1M142 3h1M153 3h1M155 3h1M164 3h1M176 3h1M182 3h1M192 3h1M7 4h1M42 4h1M56 4h1M81 4h1M101 4h1M114 4h1M121 4h1M139 4h1M145 4h1M147 4h1M155 4h1M174 4h2M183 4h1M187 4h1M189 4h1M193 4h2M4 5h1M7 5h1M16 5h1M18 5h1M21 5h1M33 5h1M35 5h1M57 5h1M69 5h1M75 5h1M109 5h1M111 5h1M126 5h1M173 5h1M7 6h1M23 6h1M30 6h2M38 6h1M47 6h1M55 6h1M72 6h1M76 6h1M86 6h1M101 6h2M133 6h1M5 7h1M29 7h1M57 7h1M66 7h1M70 7h1M75 7h1M86 7h1M95 7h3M105 7h1M116 7h2M121 7h1M124 7h1M129 7h1M138 7h1M149 7h1M154 7h2M157 7h1M161 7h1M173 7h1M176 7h2M34 8h1M39 8h1M48 8h1M54 8h1M83 8h1M96 8h2M112 8h1M114 8h1M118 8h1M124 8h2M134 8h1M145 8h1M154 8h1M190 8h1M192 8h1M197 8h1M12 9h1M26 9h2M34 9h3M40 9h1M45 9h1M58 9h1M62 9h1M69 9h1M71 9h1M113 9h1M115 9h1M122 9h1M127 9h1M139 9h1M156 9h1M165 9h1M167 9h1M3 10h1M5 10h1M13 10h2M17 10h1M26 10h1M44 10h1M66 10h1M70 10h1M104 10h1M115 10h1M119 10h2M130 10h1M143 10h1M146 10h1M153 10h1M162 10h1M165 10h1M170 10h1M20 11h2M24 11h1M31 11h1M46 11h1M57 11h2M63 11h2M67 11h1M73 11h1M88 11h1M94 11h1M96 11h1M109 11h2M114 11h1M143 11h1M156 11h1M160 11h2M170 11h4M175 11h1M192 11h2M5 12h1M20 12h1M50 12h1M59 12h1M64 12h4M92 12h1M101 12h1M107 12h1M118 12h1M121 12h1M127 12h1M133 12h1M147 12h1M160 12h1M168 12h1M184 12h1M193 12h2M2 13h1M7 13h1M13 13h1M24 13h1M33 13h2M48 13h1M99 13h1M149 13h1M151 13h1M153 13h2M159 13h1M178 13h1M180 13h1M185 13h1M8 14h1M28 14h1M56 14h1M90 14h2M93 14h1M96 14h1M107 14h1M111 14h1M133 14h1M136 14h1M161 14h2M170 14h1M178 14h1M181 14h1M194 14h1M196 14h2M5 15h1M25 15h2M45 15h1M48 15h2M59 15h1M61 15h1M67 15h1M72 15h1M76 15h1M86 15h2M114 15h1M117 15h2M123 15h1M132 15h3M138 15h1M155 15h1M158 15h2M162 15h1M186 15h1M193 15h1M15 16h1M17 16h1M25 16h1M27 16h1M58 16h1M69 16h1M72 16h1M74 16h1M79 16h1M84 16h1M92 16h1M130 16h1M141 16h2M166 16h1M170 16h1M183 16h1M197 16h1" />
<path stroke="#707070" d="M18 2h1M30 2h1M46 2h1M50 2h1M52 2h1M60 2h1M62 2h1M67 2h2M74 2h1M77 2h1M81 2h1M88 2h2M99 2h1M102 2h1M105 2h1M110 2h2M125 2h1M137 2h1M139 2h1M146 2h2M153 2h1M159 2h1M168 2h2M180 2h1M186 2h1M191 2h1M193 2h2M6 3h1M13 3h1M15 3h1M20 3h1M24 3h1M26 3h1M32 3h1M41 3h1M47 3h2M51 3h1M53 3h1M62 3h1M70 3h1M75 3h1M78 3h1M86 3h1M102 3h1M111 3h1M114 3h1M131 3h1M133 3h1M146 3h1M148 3h1M166 3h1M169 3h1M180 3h1M3 4h1M26 4h1M28 4h1M37 4h1M43 4h1M46 4h1M64 4h2M69 4h1M72 4h1M80 4h1M102 4h1M107 4h3M111 4h2M116 4h1M118 4h1M138 4h1M140 4h1M144 4h1M151 4h1M153 4h1M169 4h1M177 4h1M181 4h2M3 5h1M8 5h1M11 5h1M17 5h1M20 5h1M24 5h1M27 5h1M37 5h1M43 5h1M62 5h1M64 5h1M68 5h1M72 5h1M77 5h1M80 5h1M129 5h1M131 5h1M137 5h1M157 5h1M161 5h1M165 5h1M179 5h1M11 6h1M24 6h1M34 6h2M37 6h1M45 6h2M48 6h2M51 6h1M59 6h1M66 6h1M69 6h1M84 6h1M96 6h1M104 6h1M115 6h1M120 6h1M129 6h1M132 6h1M138 6h1M142 6h1M148 6h2M167 6h1M183 6h2M8 7h2M14 7h1M40 7h1M42 7h1M49 7h1M56 7h1M60 7h1M62 7h1M72 7h1M74 7h1M84 7h1M88 7h2M91 7h1M98 7h2M106 7h1M108 7h1M119 7h1M131 7h1M141 7h2M144 7h2M147 7h1M158 7h1M164 7h2M167 7h1M172 7h1M174 7h1M179 7h1M187 7h1M189 7h1M193 7h1M25 8h1M28 8h1M36 8h1M38 8h1M40 8h1M42 8h1M59 8h1M76 8h1M88 8h1M94 8h1M98 8h1M111 8h1M126 8h1M132 8h1M146 8h1M156 8h2M176 8h1M182 8h1M184 8h1M2 9h2M6 9h1M14 9h1M21 9h2M39 9h1M46 9h1M51 9h1M54 9h1M57 9h1M61 9h1M70 9h1M72 9h3M76 9h1M92 9h1M123 9h1M125 9h1M129 9h1M136 9h1M140 9h2M145 9h1M149 9h1M154 9h1M160 9h1M173 9h1M180 9h1M182 9h1M184 9h1M189 9h1M191 9h1M194 9h2M2 10h1M8 10h1M19 10h1M36 10h1M40 10h1M43 10h1M47 10h2M50 10h1M52 10h1M55 10h1M60 10h1M68 10h1M72 10h2M77 10h1M85 10h1M87 10h1M94 10h2M100 10h1M102 10h1M107 10h1M116 10h1M124 10h1M138 10h1M141 10h1M154 10h1M173 10h1M178 10h1M186 10h1M188 10h2M7 11h1M22 11h2M28 11h1M33 11h1M35 11h1M37 11h2M42 11h2M62 11h1M69 11h1M71 11h2M75 11h1M77 11h1M83 11h1M104 11h1M131 11h1M140 11h1M155 11h1M163 11h2M169 11h1M184 11h1M194 11h1M196 11h1M6 12h2M18 12h1M21 12h1M29 12h1M48 12h2M53 12h1M70 12h1M73 12h2M79 12h1M82 12h2M86 12h1M106 12h1M114 12h1M117 12h1M122 12h1M124 12h1M132 12h1M142 12h1M148 12h1M157 12h1M159 12h1M163 12h1M169 12h1M179 12h1M183 12h1M189 12h1M4 13h1M8 13h1M16 13h1M23 13h1M25 13h2M29 13h1M32 13h1M35 13h1M44 13h1M49 13h1M64 13h2M70 13h1M79 13h1M90 13h1M94 13h1M96 13h1M100 13h2M103 13h3M108 13h1M119 13h1M121 13h2M139 13h2M142 13h2M156 13h2M171 13h1M174 13h1M181 13h1M183 13h1M4 14h1M6 14h1M9 14h1M18 14h1M20 14h1M32 14h1M35 14h1M46 14h2M51 14h1M53 14h1M64 14h1M69 14h1M76 14h1M81 14h1M83 14h1M98 14h1M104 14h1M119 14h2M122 14h1M125 14h1M150 14h1M155 14h2M165 14h1M176 14h2M180 14h1M192 14h1M4 15h1M6 15h1M11 15h1M20 15h1M29 15h1M34 15h1M40 15h1M43 15h1M50 15h1M56 15h1M58 15h1M60 15h1M64 15h1M69 15h1M79 15h1M84 15h1M94 15h1M96 15h1M105 15h1M112 15h1M124 15h1M139 15h1M143 15h1M151 15h1M153 15h1M160 15h1M174 15h1M187 15h1M189 15h2M196 15h1M12 16h1M18 16h1M23 16h1M29 16h1M36 16h1M39 16h1M43 16h1M51 16h1M57 16h1M63 16h1M65 16h1M71 16h1M81 16h1M87 16h1M90 16h2M93 16h1M97 16h1M99 16h1M105 16h3M109 16h2M116 16h1M123 16h1M125 16h1M127 16h1M129 16h1M144 16h1M157 16h1M160 16h2M177 16h1M179 16h1M184 16h1M195 16h1" />
<path stroke="#6e6e6e" d="M24 2h2M36 2h2M39 2h1M42 2h1M54 2h1M64 2h1M94 2h1M114 2h1M120 2h1M129 2h1M143 2h1M170 2h1M183 2h1M2 3h1M7 3h1M16 3h1M33 3h1M35 3h2M60 3h1M65 3h1M82 3h1M84 3h1M89 3h2M92 3h1M94 3h1M108 3h1M128 3h1M130 3h1M160 3h1M178 3h1M185 3h1M195 3h1M5 4h1M19 4h1M25 4h1M34 4h1M57 4h1M59 4h1M61 4h1M68 4h1M73 4h1M85 4h2M89 4h1M92 4h1M96 4h1M98 4h2M105 4h1M119 4h1M136 4h1M150 4h1M156 4h1M158 4h1M163 4h1M171 4h1M179 4h1M185 4h2M191 4h1M23 5h1M40 5h1M46 5h1M48 5h1M65 5h1M76 5h1M78 5h1M84 5h1M87 5h1M92 5h1M97 5h1M106 5h1M120 5h1M122 5h1M135 5h1M139 5h3M162 5h1M174 5h1M183 5h1M187 5h2M192 5h1M197 5h1M2 6h1M21 6h1M42 6h1M50 6h1M62 6h1M81 6h1M88 6h1M90 6h1M113 6h2M116 6h2M125 6h1M135 6h1M137 6h1M170 6h1M187 6h1M191 6h1M193 6h1M196 6h2M2 7h1M23 7h2M55 7h1M67 7h1M103 7h1M112 7h2M130 7h1M140 7h1M153 7h1M185 7h1M3 8h1M7 8h1M21 8h1M29 8h1M31 8h2M41 8h1M44 8h1M47 8h1M49 8h1M68 8h2M73 8h1M77 8h1M85 8h2M93 8h1M103 8h1M119 8h1M127 8h1M129 8h1M143 8h1M155 8h1M160 8h1M168 8h2M186 8h1M191 8h1M18 9h1M23 9h1M63 9h1M86 9h1M152 9h1M176 9h1M193 9h1M28 10h2M71 10h1M96 10h1M98 10h1M108 10h1M111 10h2M118 10h1M121 10h1M135 10h1M151 10h1M166 10h2M182 10h1M196 10h1M26 11h1M51 11h1M79 11h1M99 11h1M103 11h1M105 11h2M115 11h1M117 11h1M121 11h1M124 11h1M128 11h1M151 11h1M159 11h1M176 11h1M187 11h1M189 11h1M27 12h1M58 12h1M77 12h1M87 12h1M100 12h1M109 12h1M138 12h1M170 12h1M174 12h1M177 12h1M185 12h2M192 12h1M10 13h1M18 13h1M20 13h1M37 13h2M55 13h1M59 13h1M63 13h1M66 13h1M81 13h2M85 13h1M87 13h1M102 13h1M111 13h1M129 13h1M167 13h1M177 13h1M184 13h1M197 13h1M13 14h1M22 14h1M41 14h1M60 14h1M72 14h2M112 14h1M132 14h1M139 14h1M141 14h1M147 14h1M149 14h1M153 14h1M185 14h1M188 14h1M2 15h2M10 15h1M15 15h1M17 15h1M19 15h1M31 15h1M39 15h1M75 15h1M78 15h1M92 15h1M95 15h1M98 15h1M125 15h1M165 15h1M170 15h1M179 15h1M181 15h1M188 15h1M194 15h1M4 16h2M13 16h1M21 16h1M42 16h1M44 16h1M46 16h1M52 16h1M62 16h1M76 16h1M82 16h1M119 16h1M131 16h1M133 16h1M153 16h1M158 16h1M174 16h1M176 16h1M180 16h1" />
<path stroke="#777777" d="M33 2h1M56 2h1M82 2h2M112 2h1M152 2h1M161 2h1M173 2h1M178 2h1M185 2h1M195 2h1M21 3h1M52 3h1M73 3h1M103 3h1M154 3h1M170 3h1M27 4h1M36 4h1M75 4h2M113 4h1M115 4h1M134 4h1M146 4h1M154 4h1M178 4h1M188 4h1M195 4h1M15 5h1M36 5h1M71 5h1M108 5h1M110 5h1M125 5h1M156 5h1M36 6h1M85 6h1M103 6h1M130 6h1M140 6h1M185 6h1M6 7h2M10 7h1M21 7h1M41 7h1M50 7h1M52 7h1M58 7h1M63 7h1M77 7h1M85 7h1M87 7h1M107 7h1M122 7h1M160 7h1M166 7h1M168 7h1M178 7h1M11 8h1M43 8h1M109 8h1M131 8h1M133 8h1M144 8h1M183 8h1M193 8h1M13 9h1M28 9h1M33 9h1M47 9h1M98 9h1M114 9h1M121 9h1M163 9h2M166 9h1M4 10h1M6 10h1M15 10h1M18 10h1M51 10h1M78 10h1M82 10h1M99 10h1M103 10h1M125 10h2M140 10h1M192 10h1M34 11h1M36 11h1M70 11h1M87 11h1M108 11h1M113 11h1M158 11h1M174 11h1M17 12h1M61 12h1M72 12h1M80 12h2M85 12h1M93 12h1M123 12h1M131 12h1M164 12h3M22 13h1M39 13h1M95 13h1M114 13h1M120 13h1M141 13h1M150 13h1M182 13h1M2 14h2M14 14h2M75 14h1M88 14h1M102 14h2M109 14h1M126 14h2M21 15h1M28 15h1M44 15h1M47 15h1M57 15h1M62 15h1M83 15h1M113 15h1M131 15h1M150 15h1M184 15h2M191 15h2M11 16h1M22 16h1M26 16h1M56 16h1M64 16h1M80 16h1M108 16h1M147 16h1M196 16h1" />
<path stroke="#696969" d="M44 2h1M17 3h1M38 3h1M64 3h1M83 3h1M88 3h1M50 4h1M54 4h1M54 5h1M113 5h1M177 5h1M99 6h1M192 6h1M93 7h2M50 8h1M120 8h2M142 8h1M179 8h1M24 9h1M107 9h1M197 9h1M18 11h1M123 11h1M144 11h1M157 11h1M102 12h2M110 13h1M188 13h1M80 14h1M100 14h1M114 14h1M13 15h1M36 15h1M103 15h1M130 15h1M172 15h1M37 16h1M121 16h1" />
<path stroke="#747474" d="M61 2h1M124 2h1M145 2h1M179 2h1M184 2h1M14 3h1M71 3h1M98 3h1M132 3h1M74 4h1M82 4h1M110 4h1M168 4h1M63 5h1M73 5h1M104 5h1M138 5h1M39 6h1M52 6h1M73 6h1M141 6h1M59 7h1M71 7h1M76 7h1M118 7h1M148 7h1M188 7h1M58 8h1M113 8h1M153 8h1M29 9h1M32 9h1M56 9h1M59 9h1M130 9h1M155 9h1M95 11h1M197 11h1M30 12h1M52 12h1M62 12h1M110 12h1M149 12h1M151 12h1M162 12h1M123 13h1M70 14h1M82 14h1M110 14h1M121 14h1M175 14h1M46 15h1M197 15h1M28 16h1M50 16h1M55 16h1M73 16h1M88 16h2M98 16h1M126 16h1M146 16h1M182 16h1M1 17h1" />
<path stroke="#6a6a6a" d="M79 2h1M113 2h1M163 2h1M39 3h1M58 3h1M144 3h1M157 3h1M24 4h1M78 4h1M88 4h1M137 4h1M165 4h1M197 4h1M30 5h3M47 5h1M50 5h1M98 5h1M133 5h1M27 6h1M63 6h1M150 6h1M154 6h1M159 6h1M165 6h1M25 7h1M36 7h1M5 8h1M74 8h1M162 8h1M195 8h1M117 10h1M11 12h1M25 12h1M104 12h1M187 12h1M27 13h1M40 13h1M51 13h1M72 13h1M83 13h1M132 13h1M164 13h1M196 13h1M113 14h1M129 14h1M148 14h1M183 14h1M189 14h1M81 15h1M20 16h1M32 16h2M41 16h1M53 16h1M83 16h1M159 16h1M175 16h1M188 16h1" />
<path stroke="#767676" d="M148 2h1M77 3h1M104 3h1M118 3h1M141 3h1M181 3h1M34 5h1M77 6h1M139 6h1M35 8h1M37 9h1M50 9h1M161 9h2M190 9h1M7 10h1M56 10h1M79 10h1M86 10h1M29 11h1M89 11h1M150 12h1M27 15h1M154 15h1M111 16h2M145 16h1" />
<path stroke="#686868" d="M197 2h1M56 3h1M150 3h1M148 5h1M178 6h1M107 8h1M94 9h1M119 9h1M58 10h1M160 10h1M15 12h1M116 14h1M101 15h1M47 16h1" />
<path stroke="#525252" d="M198 2h1M11 17h1M134 17h1M149 17h1M50 18h1M57 18h1M65 18h1M94 18h1M176 18h1M198 18h1" />
<path stroke="#787878" d="M81 3h1M192 4h1M69 10h1M80 10h1M179 13h1" />
<path stroke="#555555" d="M198 3h1M8 17h1M10 17h1M13 17h1M27 17h1M30 17h1M34 17h1M48 17h2M56 17h3M62 17h1M69 17h1M76 17h3M92 17h1M98 17h1M110 17h1M120 17h1M135 17h1M139 17h1M141 17h1M147 17h1M155 17h3M161 17h5M169 17h2M182 17h2M196 17h1M9 18h1M22 18h1M28 18h1M31 18h1M36 18h1M62 18h1M67 18h1M69 18h1M76 18h2M86 18h1M89 18h1M91 18h1M93 18h1M95 18h1M97 18h1M108 18h1M112 18h1M114 18h1M120 18h1M136 18h1M138 18h1M156 18h1M160 18h1M162 18h1M165 18h2M174 18h1M177 18h1M183 18h1M186 18h2" />
<path stroke="#666666" d="M16 4h1M23 4h1M164 4h1M114 5h1M64 6h1M34 7h1M68 7h1M105 8h1M178 8h1M157 10h1M180 10h1M13 11h1M14 12h1M99 12h1M154 12h1M195 13h1M39 14h1M117 14h1M129 15h1M8 16h1M36 17h1" />
<path stroke="#545454" d="M198 4h1M4 17h1M9 17h1M44 17h1M51 17h2M64 17h1M81 17h1M85 17h1M87 17h1M121 17h1M132 17h2M150 17h1M159 17h1M172 17h1M8 18h1M10 18h2M14 18h1M24 18h1M49 18h1M60 18h1M63 18h1M115 18h1M118 18h1M140 18h1M146 18h1M185 18h1" />
<path stroke="#7b7b7b" d="M74 5h1M123 7h1M48 9h1M126 9h1M81 10h1M30 11h1M60 12h1M16 16h1" />
<path stroke="#595959" d="M198 5h1M198 16h1M37 17h1M41 17h1M65 17h1M80 17h1M83 17h1M94 17h1M113 17h2M118 17h2M125 17h4M137 17h1M142 17h1M144 17h1M187 17h1M32 18h1M51 18h1M78 18h1M83 18h1M127 18h1M131 18h1M141 18h1M151 18h2" />
<path stroke="#646464" d="M158 6h1M92 13h1M134 13h1M187 13h1" />
<path stroke="#575757" d="M198 6h1M198 8h1M198 15h1M2 17h1M6 17h1M14 17h1M18 17h1M23 17h1M29 17h1M39 17h1M46 17h2M67 17h1M70 17h1M72 17h3M79 17h1M96 17h1M102 17h1M108 17h1M115 17h2M151 17h1M168 17h1M189 17h1M2 18h1M15 18h1M30 18h1M33 18h1M52 18h1M55 18h1M72 18h1M126 18h1M129 18h2M135 18h1M142 18h1M149 18h1M157 18h1M159 18h1M164 18h1M169 18h3M189 18h1" />
<path stroke="#797979" d="M51 7h1M38 9h1M49 9h1M161 12h1M108 14h1M163 14h2M195 14h1" />
<path stroke="#565656" d="M198 7h1M198 10h1M198 13h1M198 14h1M3 17h1M7 17h1M15 17h3M19 17h4M28 17h1M38 17h1M40 17h1M43 17h1M45 17h1M53 17h3M59 17h2M68 17h1M75 17h1M82 17h1M84 17h1M93 17h1M97 17h1M103 17h4M109 17h1M122 17h3M129 17h3M146 17h1M148 17h1M154 17h1M158 17h1M166 17h1M173 17h5M179 17h3M184 17h1M191 17h5M197 17h2M3 18h1M7 18h1M12 18h2M16 18h1M18 18h4M26 18h1M29 18h1M34 18h1M39 18h10M53 18h2M66 18h1M70 18h2M75 18h1M79 18h4M84 18h2M87 18h1M90 18h1M96 18h1M99 18h4M104 18h4M109 18h1M111 18h1M113 18h1M116 18h2M119 18h1M121 18h5M133 18h2M139 18h1M143 18h1M147 18h1M154 18h2M178 18h5M184 18h1M190 18h3M194 18h2M197 18h1" />
<path stroke="#4f4f4f" d="M198 9h1M26 17h1M31 17h1M63 17h1M99 17h1M160 17h1M23 18h1M37 18h1M64 18h1M88 18h1M175 18h1" />
<path stroke="#585858" d="M198 11h1M42 17h1M61 17h1M88 17h1M100 17h2M107 17h1M138 17h1M143 17h1M145 17h1M167 17h1M178 17h1M185 17h1M190 17h1M17 18h1M56 18h1M59 18h1M74 18h1M103 18h1M128 18h1M132 18h1M144 18h1M148 18h1M172 18h1M188 18h1M193 18h1M196 18h1" />
<path stroke="#505050" d="M198 12h1M32 17h2M86 17h1M90 17h1M111 17h1M171 17h1M27 18h1M92 18h1M137 18h1M167 18h1" />
<path stroke="#606060" d="M48 16h1M152 17h1" />
<path stroke="#515151" d="M5 17h1M50 17h1M91 17h1M112 17h1M140 17h1M38 18h1M58 18h1M68 18h1M145 18h1M161 18h1M168 18h1M173 18h1" />
<path stroke="#4d4d4d" d="M12 17h1M61 18h1" />
<path stroke="#5a5a5a" d="M24 17h2M66 17h1M71 17h1M89 17h1M95 17h1M117 17h1M136 17h1M153 17h1M186 17h1M188 17h1M4 18h3M25 18h1M35 18h1M73 18h1M110 18h1M150 18h1M153 18h1M158 18h1M163 18h1" />
<path stroke="#5c5c5c" d="M35 17h1" />
<path stroke="#4c4c4c" d="M98 18h1" />
</svg>