<svg xmlns="http://www.w3.org/2000/svg" viewBox="0 -0.5 200 20" shape-rendering="crispEdges">
<path stroke="#000000" d="M0 0h200M0 1h1M199 1h1M0 2h1M199 2h1M0 3h1M199 3h1M0 4h1M199 4h1M0 5h1M199 5h1M0 6h1M199 6h1M0 7h1M199 7h1M0 8h1M199 8h1M0 9h1M199 9h1M0 10h1M199 10h1M0 11h1M199 11h1M0 12h1M199 12h1M0 13h1M199 13h1M0 14h1M199 14h1M0 15h1M199 15h1M0 16h1M199 16h1M0 17h1M199 17h1M0 18h1M199 18h1M0 19h200" />
<path stroke="#2c2c2c" d="M1 1h1M8 1h2M11 1h1M14 1h7M22 1h2M27 1h3M31 1h2M38 1h1M43 1h7M60 1h1M70 1h1M72 1h2M78 1h5M90 1h2M98 1h6M106 1h1M108 1h1M112 1h1M114 1h4M119 1h1M125 1h3M130 1h2M133 1h4M139 1h9M156 1h1M158 1h2M161 1h3M169 1h7M179 1h7M189 1h3M197 1h2M1 2h2M5 2h1M9 2h1M11 2h3M16 2h1M19 2h2M29 2h4M35 2h1M37 2h1M40 2h1M43 2h1M46 2h3M50 2h2M62 2h1M65 2h1M71 2h2M74 2h3M78 2h1M81 2h1M84 2h2M88 2h3M93 2h2M97 2h1M104 2h2M110 2h2M114 2h1M116 2h3M123 2h1M132 2h1M134 2h5M146 2h1M151 2h1M155 2h2M160 2h1M162 2h1M164 2h2M167 2h1M174 2h4M180 2h3M186 2h2M191 2h3M10 3h1M16 3h1M19 3h2M22 3h1M25 3h2M28 3h3M45 3h4M61 3h1M68 3h3M78 3h1M82 3h1M86 3h1M90 3h1M102 3h1M106 3h1M109 3h1M119 3h1M122 3h1M128 3h1M131 3h1M133 3h1M147 3h1M152 3h1M156 3h1M161 3h1M165 3h3M171 3h1M174 3h1M177 3h4M183 3h3M189 3h2M193 3h1M196 3h1M1 4h2M11 4h1M13 4h2M19 4h1M28 4h5M34 4h1M40 4h2M47 4h1M51 4h1M53 4h1M56 4h1M63 4h1M67 4h2M70 4h1M72 4h2M80 4h1M83 4h1M85 4h1M90 4h2M94 4h1M101 4h1M104 4h1M108 4h2M111 4h1M122 4h1M141 4h3M149 4h1M151 4h3M171 4h3M185 4h1M196 4h1M12 5h3M19 5h3M33 5h1M38 5h3M43 5h3M51 5h1M64 5h2M77 5h1M81 5h1M88 5h2M93 5h1M96 5h2M100 5h1M107 5h1M123 5h1M127 5h1M136 5h2M139 5h1M141 5h1M150 5h3M159 5h1M161 5h2M182 5h1M188 5h1M197 5h1M6 6h1M11 6h1M14 6h1M17 6h2M22 6h1M25 6h1M28 6h1M33 6h2M40 6h1M42 6h1M45 6h2M50 6h2M59 6h1M61 6h2M66 6h2M69 6h1M76 6h1M78 6h1M80 6h1M83 6h1M90 6h3M101 6h1M106 6h1M108 6h2M111 6h1M113 6h1M126 6h4M142 6h1M149 6h1M151 6h2M165 6h1M167 6h1M175 6h1M191 6h1M193 6h1M195 6h2M2 7h1M4 7h1M15 7h2M23 7h1M26 7h1M29 7h1M38 7h1M43 7h1M47 7h1M49 7h1M72 7h1M81 7h2M98 7h3M104 7h1M109 7h1M112 7h1M116 7h1M120 7h1M125 7h4M136 7h1M139 7h2M143 7h1M145 7h1M147 7h1M156 7h1M158 7h2M163 7h2M170 7h1M174 7h2M180 7h1M183 7h2M189 7h3M2 8h1M4 8h1M9 8h1M12 8h1M15 8h4M20 8h1M25 8h1M29 8h1M36 8h1M38 8h1M40 8h1M45 8h1M47 8h1M52 8h2M56 8h1M60 8h2M63 8h1M65 8h1M69 8h1M79 8h1M88 8h2M95 8h1M108 8h1M112 8h1M128 8h1M130 8h1M148 8h2M152 8h1M155 8h1M159 8h3M164 8h1M170 8h1M172 8h1M175 8h2M195 8h1M7 9h6M14 9h5M22 9h1M41 9h1M51 9h1M54 9h2M60 9h4M65 9h1M68 9h1M70 9h1M75 9h1M81 9h1M84 9h1M100 9h2M104 9h2M109 9h3M117 9h1M120 9h1M124 9h1M128 9h2M132 9h1M138 9h1M143 9h1M146 9h5M153 9h2M159 9h2M169 9h2M177 9h3M182 9h1M187 9h2M194 9h1M10 10h1M12 10h1M27 10h1M29 10h4M45 10h1M48 10h1M52 10h3M57 10h1M59 10h1M62 10h3M67 10h1M83 10h1M90 10h1M92 10h1M106 10h2M110 10h1M120 10h1M123 10h2M127 10h1M129 10h1M133 10h3M144 10h2M148 10h3M164 10h1M171 10h1M174 10h1M185 10h1M188 10h4M195 10h1M1 11h1M3 11h3M12 11h1M22 11h2M27 11h2M38 11h2M42 11h2M45 11h1M49 11h3M55 11h3M60 11h3M66 11h1M72 11h1M78 11h2M91 11h1M97 11h1M101 11h1M106 11h1M114 11h1M125 11h1M129 11h3M137 11h1M141 11h1M146 11h2M155 11h1M159 11h1M163 11h3M167 11h2M179 11h3M184 11h3M189 11h1M194 11h3M3 12h2M7 12h2M18 12h1M21 12h4M29 12h1M31 12h1M36 12h6M45 12h3M51 12h1M53 12h1M57 12h2M67 12h3M71 12h1M77 12h1M95 12h2M108 12h2M111 12h1M115 12h1M117 12h1M119 12h1M128 12h2M138 12h2M152 12h2M159 12h1M167 12h1M170 12h1M181 12h3M185 12h1M192 12h2M196 12h1M14 13h3M20 13h2M32 13h1M36 13h2M41 13h1M44 13h1M49 13h1M52 13h1M62 13h1M64 13h7M74 13h2M79 13h1M82 13h1M86 13h1M89 13h1M93 13h2M98 13h1M100 13h1M106 13h3M111 13h1M115 13h2M121 13h1M124 13h1M126 13h3M136 13h2M140 13h1M143 13h2M147 13h1M156 13h2M167 13h1M170 13h2M174 13h1M190 13h1M193 13h1M197 13h1M7 14h1M9 14h1M13 14h1M16 14h5M24 14h1M35 14h1M42 14h1M45 14h3M52 14h2M55 14h1M59 14h2M63 14h1M66 14h4M71 14h1M81 14h1M92 14h1M94 14h1M101 14h1M105 14h1M111 14h1M122 14h4M128 14h1M132 14h1M134 14h1M146 14h2M151 14h1M165 14h2M168 14h1M173 14h2M176 14h1M192 14h1M1 15h1M6 15h1M19 15h1M22 15h2M34 15h2M38 15h1M50 15h1M58 15h1M65 15h1M68 15h2M78 15h2M84 15h1M88 15h1M93 15h1M99 15h2M104 15h1M106 15h3M112 15h1M115 15h1M119 15h4M133 15h1M149 15h1M158 15h2M163 15h1M165 15h1M167 15h1M170 15h1M181 15h1M194 15h1M196 15h1M1 16h2M4 16h1M7 16h1M9 16h2M21 16h1M23 16h1M29 16h2M34 16h1M36 16h1M42 16h2M45 16h1M51 16h1M59 16h3M70 16h3M81 16h1M86 16h2M97 16h1M102 16h1M104 16h2M109 16h2M116 16h2M119 16h1M123 16h2M127 16h2M131 16h2M135 16h2M142 16h1M150 16h2M153 16h3M157 16h2M160 16h2M167 16h2M190 16h1M194 16h2M1 17h1M8 17h2M11 17h1M13 17h1M19 17h2M24 17h1M27 17h2M37 17h1M46 17h4M54 17h1M65 17h1M70 17h1M74 17h1M78 17h3M100 17h5M108 17h1M114 17h4M119 17h1M125 17h3M130 17h1M133 17h1M137 17h1M143 17h2M156 17h1M158 17h2M162 17h1M173 17h2M185 17h2M196 17h3M3 18h1M9 18h2M12 18h1M16 18h1M18 18h1M22 18h3M26 18h1M36 18h1M38 18h1M40 18h1M42 18h1M52 18h2M55 18h1M57 18h1M60 18h2M63 18h1M67 18h2M73 18h1M76 18h7M84 18h1M88 18h3M98 18h1M108 18h1M110 18h3M119 18h1M122 18h1M126 18h1M139 18h2M142 18h2M152 18h1M155 18h1M159 18h3M164 18h1M170 18h1M172 18h1M175 18h3M181 18h1M184 18h1M188 18h2" />
<path stroke="#292929" d="M2 1h2M5 1h1M13 1h1M35 1h1M40 1h1M42 1h1M54 1h2M57 1h1M62 1h1M64 1h3M75 1h1M84 1h1M89 1h1M97 1h1M105 1h1M111 1h1M113 1h1M121 1h1M124 1h1M129 1h1M138 1h1M149 1h1M151 1h3M155 1h1M165 1h1M167 1h1M177 1h1M187 1h1M193 1h3M3 2h1M7 2h2M10 2h1M14 2h1M17 2h1M25 2h2M28 2h1M34 2h1M36 2h1M38 2h2M42 2h1M44 2h1M52 2h1M54 2h2M57 2h1M59 2h1M64 2h1M68 2h1M77 2h1M86 2h1M91 2h1M95 2h1M99 2h4M107 2h1M121 2h2M126 2h1M128 2h2M140 2h5M147 2h1M149 2h1M157 2h1M159 2h1M170 2h2M183 2h1M189 2h1M196 2h1M2 3h2M5 3h1M7 3h1M12 3h1M15 3h1M32 3h1M35 3h2M41 3h1M44 3h1M50 3h1M55 3h1M57 3h1M59 3h2M63 3h4M75 3h1M80 3h1M84 3h2M91 3h2M94 3h4M101 3h1M111 3h2M114 3h4M121 3h1M124 3h1M126 3h2M129 3h2M135 3h2M143 3h1M145 3h1M153 3h1M157 3h4M164 3h1M168 3h1M173 3h1M176 3h1M187 3h1M192 3h1M195 3h1M197 3h2M4 4h2M7 4h1M9 4h1M15 4h1M17 4h2M25 4h2M38 4h1M43 4h1M45 4h1M52 4h1M57 4h5M64 4h1M66 4h1M69 4h1M77 4h1M92 4h1M96 4h1M99 4h1M103 4h1M105 4h2M112 4h1M114 4h1M116 4h1M119 4h2M123 4h1M125 4h1M127 4h1M129 4h2M132 4h1M136 4h2M139 4h1M144 4h1M147 4h1M156 4h2M159 4h1M161 4h1M166 4h2M170 4h1M175 4h2M179 4h3M183 4h2M186 4h1M191 4h1M197 4h1M2 5h1M5 5h1M10 5h2M18 5h1M23 5h1M25 5h3M41 5h1M50 5h1M52 5h1M55 5h1M59 5h1M61 5h2M66 5h2M69 5h1M72 5h1M80 5h1M83 5h3M87 5h1M91 5h2M95 5h1M101 5h1M106 5h1M109 5h1M112 5h1M115 5h3M120 5h3M129 5h1M134 5h2M140 5h1M142 5h1M144 5h2M154 5h2M157 5h1M163 5h2M167 5h2M170 5h3M179 5h2M185 5h1M187 5h1M190 5h1M192 5h4M198 5h1M1 6h2M4 6h1M7 6h1M9 6h2M12 6h1M15 6h1M20 6h2M23 6h1M29 6h1M31 6h1M35 6h1M37 6h1M41 6h1M43 6h1M47 6h1M49 6h1M53 6h1M63 6h1M70 6h3M74 6h1M79 6h1M81 6h1M88 6h2M94 6h2M97 6h3M104 6h1M107 6h1M110 6h1M112 6h1M114 6h3M118 6h3M122 6h1M124 6h1M131 6h1M133 6h4M138 6h1M143 6h1M145 6h1M147 6h1M159 6h1M163 6h2M166 6h1M168 6h1M170 6h1M174 6h1M177 6h1M180 6h1M182 6h2M188 6h1M1 7h1M3 7h1M9 7h1M12 7h1M14 7h1M18 7h1M20 7h1M27 7h1M31 7h3M35 7h1M40 7h1M45 7h1M53 7h3M57 7h1M61 7h1M64 7h3M68 7h2M74 7h2M79 7h1M84 7h1M89 7h1M91 7h3M97 7h1M102 7h1M106 7h1M108 7h1M111 7h1M115 7h1M119 7h1M124 7h1M132 7h1M135 7h1M138 7h1M142 7h1M149 7h1M151 7h3M155 7h1M161 7h1M169 7h1M172 7h1M177 7h1M182 7h1M186 7h1M193 7h3M198 7h1M3 8h1M5 8h3M14 8h1M22 8h1M27 8h1M30 8h1M32 8h1M37 8h1M42 8h1M44 8h1M48 8h2M57 8h1M66 8h1M68 8h1M70 8h1M75 8h1M77 8h1M81 8h1M83 8h2M86 8h1M92 8h2M96 8h1M99 8h6M106 8h1M110 8h1M114 8h4M121 8h1M124 8h1M126 8h2M132 8h1M134 8h2M137 8h2M140 8h1M143 8h1M146 8h1M157 8h1M163 8h1M165 8h3M169 8h1M174 8h1M181 8h2M185 8h2M188 8h1M190 8h2M194 8h1M196 8h3M1 9h1M3 9h2M6 9h1M19 9h2M24 9h2M27 9h1M31 9h1M34 9h1M36 9h1M39 9h1M42 9h2M46 9h1M58 9h1M64 9h1M67 9h1M69 9h1M72 9h1M74 9h1M79 9h1M83 9h1M86 9h3M90 9h1M92 9h1M96 9h2M99 9h1M103 9h1M106 9h3M112 9h1M116 9h1M127 9h1M134 9h1M137 9h1M140 9h2M151 9h2M158 9h1M168 9h1M172 9h1M174 9h1M176 9h1M183 9h1M185 9h1M192 9h1M197 9h1M1 10h1M3 10h1M8 10h1M13 10h1M17 10h1M19 10h1M22 10h1M25 10h1M33 10h2M36 10h1M38 10h2M41 10h2M46 10h1M49 10h1M55 10h1M60 10h1M65 10h1M71 10h2M75 10h2M88 10h1M94 10h1M96 10h2M101 10h1M105 10h1M108 10h2M112 10h1M114 10h1M116 10h3M121 10h2M128 10h1M130 10h2M136 10h2M139 10h1M146 10h1M151 10h2M154 10h1M162 10h1M166 10h1M168 10h1M175 10h1M177 10h1M182 10h1M184 10h1M186 10h1M194 10h1M197 10h2M9 11h3M14 11h2M25 11h2M41 11h1M47 11h1M53 11h1M64 11h1M69 11h1M71 11h1M76 11h2M82 11h5M88 11h1M92 11h1M96 11h1M99 11h1M103 11h1M109 11h1M117 11h8M128 11h1M134 11h1M136 11h1M139 11h2M143 11h1M145 11h1M149 11h1M151 11h3M160 11h1M170 11h1M172 11h1M175 11h3M182 11h2M187 11h2M190 11h1M1 12h1M5 12h1M12 12h2M26 12h2M32 12h1M43 12h1M49 12h1M55 12h1M59 12h1M63 12h1M74 12h1M79 12h1M83 12h1M86 12h1M88 12h1M90 12h3M94 12h1M98 12h1M100 12h1M105 12h2M112 12h3M120 12h1M124 12h1M126 12h1M131 12h1M133 12h1M135 12h1M140 12h1M142 12h2M146 12h1M148 12h1M154 12h3M160 12h1M163 12h1M168 12h1M171 12h2M174 12h2M177 12h1M179 12h1M188 12h1M194 12h1M1 13h1M3 13h1M6 13h2M9 13h2M13 13h1M18 13h1M24 13h1M28 13h1M30 13h2M35 13h1M38 13h1M42 13h2M47 13h1M53 13h1M55 13h2M59 13h3M63 13h1M77 13h1M81 13h1M84 13h1M87 13h1M91 13h1M97 13h1M102 13h2M105 13h1M112 13h3M118 13h1M129 13h1M133 13h1M139 13h1M142 13h1M145 13h2M148 13h2M151 13h1M153 13h1M155 13h1M158 13h1M160 13h3M165 13h2M169 13h1M176 13h2M181 13h1M184 13h3M189 13h1M194 13h1M198 13h1M5 14h2M10 14h1M12 14h1M21 14h2M26 14h1M28 14h1M31 14h1M34 14h1M37 14h2M41 14h1M43 14h1M49 14h2M54 14h1M57 14h1M61 14h2M64 14h1M74 14h1M76 14h2M79 14h2M83 14h2M86 14h2M90 14h1M95 14h3M99 14h1M112 14h2M115 14h2M118 14h1M130 14h2M133 14h1M135 14h2M138 14h2M141 14h2M153 14h2M157 14h2M167 14h1M171 14h1M177 14h1M179 14h2M182 14h2M185 14h2M188 14h1M190 14h1M194 14h1M196 14h1M198 14h1M3 15h1M8 15h1M10 15h1M16 15h3M24 15h1M26 15h1M30 15h2M33 15h1M36 15h1M40 15h1M43 15h1M45 15h1M52 15h1M54 15h2M61 15h1M64 15h1M67 15h1M72 15h1M74 15h1M76 15h1M81 15h1M89 15h4M95 15h1M97 15h2M102 15h1M105 15h1M110 15h2M117 15h1M124 15h2M127 15h2M136 15h2M140 15h1M142 15h3M146 15h1M148 15h1M151 15h1M155 15h1M157 15h1M161 15h1M164 15h1M169 15h1M175 15h6M187 15h1M190 15h1M5 16h2M15 16h1M19 16h2M25 16h1M31 16h1M35 16h1M38 16h4M46 16h2M54 16h1M63 16h1M66 16h2M74 16h1M77 16h2M83 16h2M90 16h1M94 16h2M100 16h1M107 16h1M113 16h1M125 16h1M133 16h1M137 16h1M139 16h2M143 16h1M148 16h2M162 16h1M164 16h2M171 16h4M176 16h1M178 16h1M180 16h1M183 16h1M185 16h1M189 16h1M192 16h1M197 16h1M2 17h1M12 17h1M15 17h2M18 17h1M23 17h1M30 17h4M35 17h2M40 17h1M42 17h1M44 17h1M53 17h1M55 17h1M57 17h1M61 17h1M64 17h1M72 17h1M82 17h1M84 17h1M90 17h4M96 17h1M98 17h1M113 17h1M121 17h1M129 17h1M132 17h1M135 17h1M140 17h2M146 17h1M149 17h1M151 17h3M155 17h1M161 17h1M165 17h1M167 17h1M169 17h1M172 17h1M176 17h1M180 17h2M184 17h1M189 17h2M192 17h3M4 18h4M14 18h1M20 18h1M25 18h1M27 18h3M31 18h2M37 18h1M44 18h1M46 18h2M49 18h2M56 18h1M65 18h1M69 18h1M74 18h1M86 18h1M91 18h2M94 18h1M96 18h1M102 18h3M106 18h1M115 18h4M123 18h1M127 18h2M132 18h1M134 18h2M137 18h1M141 18h1M146 18h1M148 18h2M157 18h1M163 18h1M165 18h2M169 18h1M174 18h1M185 18h2M192 18h1M196 18h2" />
<path stroke="#2e2e2e" d="M4 1h1M6 1h2M21 1h1M39 1h1M52 1h2M56 1h1M58 1h1M61 1h1M74 1h1M77 1h1M83 1h1M86 1h1M95 1h1M104 1h1M107 1h1M120 1h1M128 1h1M137 1h1M154 1h1M157 1h1M160 1h1M164 1h1M168 1h1M186 1h1M188 1h1M192 1h1M6 2h1M18 2h1M33 2h1M41 2h1M53 2h1M60 2h1M63 2h1M69 2h1M96 2h1M103 2h1M106 2h1M108 2h1M112 2h1M127 2h1M131 2h1M133 2h1M139 2h1M152 2h2M158 2h1M166 2h1M168 2h2M172 2h2M188 2h1M190 2h1M194 2h1M1 3h1M4 3h1M8 3h2M11 3h1M13 3h1M21 3h1M23 3h2M27 3h1M31 3h1M33 3h2M49 3h1M53 3h1M62 3h1M67 3h1M71 3h1M73 3h2M79 3h1M99 3h1M105 3h1M110 3h1M123 3h1M134 3h1M138 3h1M140 3h1M146 3h1M148 3h1M155 3h1M163 3h1M169 3h1M175 3h1M182 3h1M186 3h1M188 3h1M191 3h1M3 4h1M10 4h1M33 4h1M37 4h1M39 4h1M65 4h1M86 4h1M95 4h1M98 4h1M100 4h1M102 4h1M107 4h1M126 4h1M133 4h2M138 4h1M140 4h1M148 4h1M160 4h1M169 4h1M174 4h1M187 4h1M194 4h1M1 5h1M3 5h2M6 5h3M22 5h1M35 5h1M42 5h1M56 5h1M73 5h1M76 5h1M79 5h1M82 5h1M90 5h1M102 5h1M105 5h1M118 5h2M125 5h1M131 5h1M146 5h1M153 5h1M158 5h1M160 5h1M165 5h1M173 5h1M178 5h1M5 6h1M8 6h1M19 6h1M32 6h1M44 6h1M48 6h1M55 6h1M60 6h1M75 6h1M84 6h1M86 6h1M93 6h1M105 6h1M121 6h1M125 6h1M132 6h1M137 6h1M148 6h1M156 6h1M171 6h3M184 6h2M194 6h1M5 7h1M7 7h1M11 7h1M13 7h1M17 7h1M21 7h2M28 7h1M30 7h1M39 7h1M44 7h1M46 7h1M48 7h1M56 7h1M58 7h1M60 7h1M62 7h1M70 7h1M77 7h2M80 7h1M83 7h1M90 7h1M95 7h1M101 7h1M103 7h1M113 7h1M129 7h3M133 7h1M144 7h1M146 7h1M154 7h1M157 7h1M162 7h1M165 7h2M171 7h1M173 7h1M179 7h1M185 7h1M188 7h1M192 7h1M8 8h1M10 8h1M19 8h1M21 8h1M23 8h1M39 8h1M41 8h1M46 8h1M54 8h2M59 8h1M62 8h1M78 8h1M80 8h1M82 8h1M87 8h1M90 8h1M98 8h1M111 8h1M118 8h1M131 8h1M141 8h1M145 8h1M147 8h1M150 8h1M154 8h1M156 8h1M158 8h1M168 8h1M173 8h1M184 8h1M189 8h1M40 9h1M57 9h1M76 9h1M78 9h1M80 9h1M89 9h1M95 9h1M122 9h2M131 9h1M133 9h1M142 9h1M144 9h2M156 9h1M171 9h1M181 9h1M184 9h1M191 9h1M193 9h1M195 9h2M6 10h1M9 10h1M15 10h1M20 10h1M23 10h1M26 10h1M28 10h1M43 10h1M61 10h1M66 10h1M68 10h1M77 10h1M84 10h2M87 10h1M89 10h1M91 10h1M93 10h1M95 10h1M126 10h1M132 10h1M141 10h1M143 10h1M147 10h1M155 10h1M163 10h1M165 10h1M169 10h2M173 10h1M176 10h1M178 10h1M192 10h2M2 11h1M6 11h2M16 11h1M20 11h1M31 11h1M33 11h2M36 11h1M48 11h1M52 11h1M54 11h1M58 11h2M67 11h2M73 11h1M93 11h2M98 11h1M100 11h1M102 11h1M104 11h1M107 11h1M110 11h1M115 11h2M127 11h1M133 11h1M142 11h1M148 11h1M150 11h1M156 11h1M169 11h1M171 11h1M173 11h1M6 12h1M20 12h1M42 12h1M44 12h1M48 12h1M54 12h1M56 12h1M61 12h1M64 12h1M73 12h1M75 12h1M81 12h2M84 12h2M89 12h1M97 12h1M122 12h1M132 12h1M136 12h2M141 12h1M147 12h1M157 12h1M166 12h1M169 12h1M173 12h1M180 12h1M184 12h1M189 12h1M195 12h1M4 13h1M8 13h1M11 13h1M22 13h2M25 13h2M29 13h1M33 13h2M46 13h1M73 13h1M76 13h1M78 13h1M80 13h1M85 13h1M90 13h1M117 13h1M119 13h2M122 13h1M125 13h1M152 13h1M173 13h1M175 13h1M183 13h1M4 14h1M23 14h1M25 14h1M27 14h1M29 14h1M36 14h1M48 14h1M51 14h1M56 14h1M58 14h1M89 14h1M91 14h1M93 14h1M106 14h2M109 14h1M119 14h2M137 14h1M152 14h1M155 14h2M159 14h1M172 14h1M181 14h1M187 14h1M191 14h1M2 15h1M5 15h1M7 15h1M11 15h1M15 15h1M20 15h1M28 15h1M49 15h1M53 15h1M56 15h2M59 15h1M66 15h1M71 15h1M73 15h1M87 15h1M96 15h1M109 15h1M116 15h1M118 15h1M131 15h2M134 15h1M138 15h2M152 15h2M160 15h1M166 15h1M168 15h1M174 15h1M195 15h1M18 16h1M44 16h1M50 16h1M57 16h2M62 16h1M65 16h1M69 16h1M75 16h1M85 16h1M92 16h2M99 16h1M101 16h1M106 16h1M114 16h1M118 16h1M129 16h2M152 16h1M156 16h1M170 16h1M181 16h1M184 16h1M191 16h1M193 16h1M5 17h3M21 17h2M38 17h1M43 17h1M56 17h1M58 17h1M60 17h1M66 17h1M73 17h1M75 17h1M81 17h1M86 17h1M88 17h1M99 17h1M105 17h3M112 17h1M120 17h1M128 17h1M131 17h1M134 17h1M136 17h1M142 17h1M145 17h1M154 17h1M157 17h1M163 17h1M182 17h2M187 17h1M8 18h1M11 18h1M17 18h1M19 18h1M21 18h1M39 18h1M41 18h1M59 18h1M62 18h1M85 18h1M87 18h1M93 18h1M95 18h1M99 18h1M109 18h1M114 18h1M124 18h2M130 18h1M138 18h1M144 18h2M154 18h1M156 18h1M158 18h1M167 18h2M173 18h1M187 18h1M190 18h2M194 18h1M198 18h1" />
<path stroke="#2f2f2f" d="M10 1h1M50 1h1M59 1h1M71 1h1M87 1h2M96 1h1M118 1h1M176 1h1M178 1h1M4 2h1M15 2h1M27 2h1M61 2h1M66 2h2M83 2h1M115 2h1M124 2h2M130 2h1M154 2h1M179 2h1M51 3h1M76 3h2M93 3h1M113 3h1M118 3h1M120 3h1M132 3h1M139 3h1M142 3h1M154 3h1M170 3h1M194 3h1M6 4h1M8 4h1M46 4h1M62 4h1M74 4h1M81 4h1M93 4h1M110 4h1M117 4h2M121 4h1M131 4h1M145 4h1M155 4h1M162 4h1M168 4h1M182 4h1M189 4h1M193 4h1M195 4h1M15 5h1M17 5h1M34 5h1M37 5h1M57 5h1M60 5h1M68 5h1M75 5h1M94 5h1M124 5h1M156 5h1M166 5h1M169 5h1M174 5h1M189 5h1M3 6h1M13 6h1M30 6h1M38 6h2M52 6h1M54 6h1M68 6h1M77 6h1M82 6h1M96 6h1M102 6h1M117 6h1M140 6h1M146 6h1M189 6h1M8 7h1M10 7h1M42 7h1M50 7h1M59 7h1M86 7h1M88 7h1M107 7h1M117 7h1M121 7h1M141 7h1M167 7h1M176 7h1M187 7h1M197 7h1M11 8h1M28 8h1M33 8h2M94 8h1M97 8h1M113 8h1M153 8h1M187 8h1M192 8h1M2 9h1M5 9h1M13 9h1M21 9h1M29 9h2M32 9h1M35 9h1M50 9h1M59 9h1M71 9h1M73 9h1M85 9h1M163 9h3M167 9h1M173 9h1M180 9h1M2 10h1M14 10h1M21 10h1M40 10h1M44 10h1M47 10h1M50 10h2M70 10h1M79 10h1M100 10h1M102 10h2M113 10h1M125 10h1M140 10h1M142 10h1M187 10h1M32 11h1M35 11h1M37 11h1M46 11h1M74 11h2M89 11h1M138 11h1M158 11h1M161 11h1M192 11h2M197 11h2M2 12h1M16 12h1M28 12h1M30 12h1M50 12h1M52 12h1M62 12h1M65 12h2M78 12h1M118 12h1M123 12h1M125 12h1M127 12h1M151 12h1M165 12h1M178 12h1M2 13h1M12 13h1M48 13h1M54 13h1M58 13h1M95 13h1M99 13h1M101 13h1M130 13h1M138 13h1M178 13h1M180 13h1M182 13h1M1 14h1M3 14h1M8 14h1M15 14h1M44 14h1M65 14h1M70 14h1M75 14h1M85 14h1M98 14h1M104 14h1M110 14h1M121 14h1M126 14h2M140 14h1M150 14h1M161 14h2M175 14h1M197 14h1M4 15h1M9 15h1M21 15h1M29 15h1M32 15h1M39 15h1M46 15h3M62 15h1M82 15h2M85 15h2M123 15h1M141 15h1M156 15h1M162 15h1M186 15h1M189 15h1M193 15h1M198 15h1M11 16h2M17 16h1M22 16h1M27 16h1M64 16h1M79 16h2M88 16h2M91 16h1M146 16h2M166 16h1M177 16h1M196 16h1M198 16h1M4 17h1M10 17h1M17 17h1M29 17h1M39 17h1M45 17h1M50 17h1M59 17h1M62 17h1M77 17h1M87 17h1M95 17h1M97 17h1M118 17h1M124 17h1M139 17h1M147 17h1M164 17h1M170 17h2M175 17h1M177 17h2M34 18h1M45 18h1M48 18h1M54 18h1M66 18h1M83 18h1M113 18h1M131 18h1M153 18h1" />
<path stroke="#2a2a2a" d="M12 1h1M24 1h1M26 1h1M30 1h1M33 1h1M37 1h1M67 1h1M69 1h1M92 1h1M109 1h2M132 1h1M150 1h1M196 1h1M21 2h2M24 2h1M45 2h1M49 2h1M70 2h1M73 2h1M80 2h1M87 2h1M92 2h1M109 2h1M119 2h2M18 3h1M37 3h1M42 3h2M54 3h1M56 3h1M58 3h1M72 3h1M83 3h1M87 3h1M89 3h1M108 3h1M137 3h1M149 3h1M151 3h1M162 3h1M172 3h1M12 4h1M21 4h2M35 4h1M44 4h1M48 4h2M55 4h1M71 4h1M78 4h2M84 4h1M87 4h1M89 4h1M97 4h1M124 4h1M135 4h1M150 4h1M158 4h1M163 4h1M165 4h1M190 4h1M9 5h1M28 5h2M46 5h1M48 5h2M53 5h1M70 5h1M78 5h1M86 5h1M98 5h1M103 5h1M113 5h2M130 5h1M132 5h2M147 5h1M149 5h1M175 5h2M181 5h1M183 5h2M186 5h1M191 5h1M196 5h1M16 6h1M26 6h1M56 6h3M65 6h1M87 6h1M100 6h1M144 6h1M153 6h1M155 6h1M157 6h1M160 6h1M162 6h1M179 6h1M186 6h2M190 6h1M197 6h2M24 7h1M36 7h2M67 7h1M110 7h1M150 7h1M196 7h1M1 8h1M13 8h1M24 8h1M26 8h1M31 8h1M50 8h2M64 8h1M71 8h3M91 8h1M107 8h1M119 8h2M122 8h2M129 8h1M151 8h1M162 8h1M171 8h1M177 8h1M180 8h1M23 9h1M44 9h1M52 9h2M66 9h1M77 9h1M93 9h1M118 9h1M135 9h1M157 9h1M175 9h1M11 10h1M16 10h1M24 10h1M74 10h1M111 10h1M156 10h1M158 10h2M161 10h1M167 10h1M172 10h1M179 10h1M181 10h1M183 10h1M196 10h1M8 11h1M17 11h3M44 11h1M65 11h1M80 11h1M90 11h1M105 11h1M111 11h2M126 11h1M132 11h1M144 11h1M154 11h1M162 11h1M166 11h1M178 11h1M191 11h1M9 12h1M11 12h1M19 12h1M33 12h3M76 12h1M104 12h1M116 12h1M130 12h1M134 12h1M145 12h1M158 12h1M176 12h1M186 12h1M190 12h2M197 12h2M5 13h1M17 13h1M19 13h1M45 13h1M50 13h1M57 13h1M71 13h2M88 13h1M109 13h1M131 13h2M135 13h1M163 13h2M168 13h1M172 13h1M191 13h2M30 14h1M33 14h1M40 14h1M72 14h2M114 14h1M144 14h2M149 14h1M160 14h1M169 14h1M184 14h1M193 14h1M12 15h1M14 15h1M37 15h1M41 15h1M51 15h1M70 15h1M77 15h1M80 15h1M126 15h1M145 15h1M147 15h1M171 15h1M173 15h1M182 15h2M188 15h1M3 16h1M13 16h2M24 16h1M32 16h1M52 16h1M76 16h1M82 16h1M103 16h1M115 16h1M120 16h1M122 16h1M134 16h1M159 16h1M163 16h1M169 16h1M186 16h3M3 17h1M26 17h1M67 17h1M69 17h1M109 17h3M150 17h1M195 17h1M1 18h2M13 18h1M15 18h1M30 18h1M51 18h1M64 18h1M70 18h1M72 18h1M75 18h1M100 18h2M129 18h1M151 18h1M162 18h1M171 18h1M180 18h1M195 18h1" />
<path stroke="#262626" d="M25 1h1M34 1h1M68 1h1M93 1h2M198 2h1M88 3h1M150 3h1M23 4h1M50 4h1M164 4h1M47 5h1M148 5h1M178 6h1M25 7h1M94 7h1M119 9h1M58 10h1M157 10h1M160 10h1M180 10h1M13 11h1M15 12h1M99 12h1M92 13h1M187 13h1M195 13h1M117 14h1M101 15h1M8 16h1M48 16h1M121 16h1M25 17h1M34 17h1M68 17h1M178 18h2" />
<path stroke="#282828" d="M36 1h1M23 2h1M79 2h1M113 2h1M163 2h1M17 3h1M38 3h2M107 3h1M16 4h1M20 4h1M24 4h1M54 4h1M88 4h1M198 4h1M30 5h3M99 5h1M177 5h1M27 6h1M64 6h1M150 6h1M154 6h1M161 6h1M176 6h1M192 6h1M74 8h1M105 8h1M186 9h1M198 9h1M81 11h1M157 11h1M10 12h1M25 12h1M102 12h2M187 12h1M27 13h1M40 13h1M51 13h1M83 13h1M188 13h1M196 13h1M129 14h1M148 14h1M189 14h1M13 15h1M103 15h1M129 15h1M172 15h1M33 16h1M49 16h1M53 16h1M175 16h1M71 18h1M107 18h1M120 18h2" />
<path stroke="#313131" d="M41 1h1M63 1h1M76 1h1M122 1h1M148 1h1M145 2h1M195 2h1M81 3h1M98 3h1M103 3h2M76 4h1M115 4h1M128 4h1M154 4h1M177 4h1M63 5h1M104 5h1M110 5h1M128 5h1M36 6h1M85 6h1M169 6h1M19 7h1M76 7h1M87 7h1M148 7h1M67 8h1M144 8h1M26 9h1M33 9h1M49 9h1M82 9h1M102 9h1M113 9h1M125 9h1M69 10h1M78 10h1M86 10h1M138 10h1M153 10h1M29 11h1M40 11h1M108 11h1M113 11h1M135 11h1M80 12h1M87 12h1M101 12h1M164 12h1M123 13h1M2 14h1M88 14h1M102 14h1M75 15h1M185 15h1M191 15h1M26 16h1M73 16h1M138 16h1M141 16h1M144 16h1M179 16h1M14 17h1M52 17h1M71 17h1M89 17h1M148 17h1M160 17h1M188 17h1M58 18h1" />
<path stroke="#333333" d="M51 1h1M56 2h1M148 2h1M113 4h1M74 5h1M73 6h1M139 6h1M118 7h1M125 8h1M133 8h1M38 9h1M98 9h1M7 10h1M18 10h1M56 10h1M80 10h1M70 11h1M95 11h1M174 11h1M150 12h1M141 13h1M150 13h1M159 13h1M195 14h1M27 15h1M56 16h1M126 16h1M145 16h1M51 17h1M76 17h1M193 18h1" />
<path stroke="#303030" d="M85 1h1M166 1h1M58 2h1M82 2h1M98 2h1M150 2h1M161 2h1M178 2h1M184 2h2M6 3h1M14 3h1M40 3h1M52 3h1M100 3h1M125 3h1M141 3h1M27 4h1M36 4h1M42 4h1M75 4h1M82 4h1M146 4h1M178 4h1M188 4h1M16 5h1M24 5h1M58 5h1M71 5h1M108 5h1M111 5h1M126 5h1M138 5h1M143 5h1M24 6h1M103 6h1M123 6h1M130 6h1M141 6h1M181 6h1M6 7h1M41 7h1M63 7h1M71 7h1M73 7h1M85 7h1M105 7h1M114 7h1M134 7h1M137 7h1M160 7h1M168 7h1M178 7h1M181 7h1M43 8h1M76 8h1M85 8h1M109 8h1M136 8h1M139 8h1M193 8h1M28 9h1M37 9h1M45 9h1M56 9h1M91 9h1M114 9h2M121 9h1M130 9h1M155 9h1M161 9h2M189 9h1M5 10h1M35 10h1M37 10h1M73 10h1M82 10h1M98 10h2M104 10h1M115 10h1M119 10h1M21 11h1M24 11h1M63 11h1M17 12h1M70 12h1M72 12h1M107 12h1M110 12h1M121 12h1M144 12h1M149 12h1M39 13h1M96 13h1M104 13h1M11 14h1M14 14h1M32 14h1M78 14h1M82 14h1M103 14h1M143 14h1M170 14h1M42 15h1M60 15h1M63 15h1M94 15h1M113 15h2M135 15h1M150 15h1M184 15h1M192 15h1M28 16h1M55 16h1M68 16h1M96 16h1M98 16h1M108 16h1M111 16h1M182 16h1M41 17h1M63 17h1M83 17h1M85 17h1M122 17h1M138 17h1M166 17h1M168 17h1M179 17h1M191 17h1M33 18h1M43 18h1M136 18h1M147 18h1M150 18h1M182 18h1" />
<path stroke="#343434" d="M123 1h1M51 7h1M123 7h1M183 8h1M48 9h1M126 9h1M4 10h1M81 10h1M60 12h1M161 12h1M163 14h2M16 16h1M123 17h1" />
<path stroke="#272727" d="M197 2h1M144 3h1M54 5h1M158 6h1M34 7h1M142 8h1M178 8h2M94 9h1M14 12h1M110 13h1M134 13h1M39 14h1M100 14h1M130 15h1M37 16h1M94 17h1M105 18h1" />
<path stroke="#323232" d="M181 3h1M192 4h1M36 5h1M52 7h1M96 7h1M122 7h1M35 8h1M58 8h1M47 9h1M136 9h1M139 9h1M166 9h1M190 9h1M30 11h1M87 11h1M93 12h1M162 12h1M154 13h1M179 13h1M108 14h1M178 14h1M25 15h1M44 15h1M154 15h1M197 15h1M112 16h1M35 18h1M97 18h1M133 18h1M183 18h1" />
</svg>