<svg xmlns="http://www.w3.org/2000/svg" viewBox="0 -0.5 200 20" shape-rendering="crispEdges">
<metadata>Made with Pixels to Svg https://codepen.io/shshaw/pen/XbxvNj</metadata>
<path stroke="#000000" d="M0 0h200M0 1h1M199 1h1M0 2h1M199 2h1M0 3h1M199 3h1M0 4h1M199 4h1M0 5h1M199 5h1M0 6h1M199 6h1M0 7h1M199 7h1M0 8h1M199 8h1M0 9h1M199 9h1M0 10h1M199 10h1M0 11h1M199 11h1M0 12h1M199 12h1M0 13h1M199 13h1M0 14h1M199 14h1M0 15h1M199 15h1M0 16h1M199 16h1M0 17h1M199 17h1M0 18h1M199 18h1M0 19h200" />
<path stroke="#bec7ff" d="M1 1h1M3 1h2M9 1h6M16 1h4M21 1h1M29 1h1M32 1h2M35 1h6M42 1h1M45 1h9M55 1h3M63 1h2M68 1h1M73 1h3M85 1h2M94 1h2M97 1h2M100 1h3M104 1h3M108 1h6M116 1h3M121 1h1M129 1h1M132 1h3M138 1h1M141 1h1M149 1h2M152 1h1M154 1h1M156 1h2M166 1h3M171 1h4M179 1h6M191 1h5M197 1h1M1 2h1M1 3h1M1 5h1M1 7h1M1 8h1M1 11h1M1 12h1M1 13h1M1 14h1M1 15h1" />
<path stroke="#bdc6ff" d="M2 1h1M8 1h1M24 1h1M28 1h1M30 1h1M41 1h1M43 1h2M58 1h1M60 1h1M65 1h1M67 1h1M71 1h2M81 1h2M84 1h1M87 1h1M89 1h2M92 1h1M107 1h1M120 1h1M122 1h1M128 1h1M137 1h1M139 1h1M151 1h1M153 1h1M155 1h1M159 1h1M161 1h1M165 1h1M170 1h1M188 1h1" />
<path stroke="#bfc8ff" d="M5 1h1M23 1h1M31 1h1M62 1h1M69 1h1M96 1h1M175 1h1M196 1h1M1 10h1" />
<path stroke="#bbc4ff" d="M6 1h1M25 1h1M59 1h1M66 1h1M83 1h1M88 1h1M123 1h1M136 1h1M146 1h1M164 1h1M169 1h1" />
<path stroke="#bac4ff" d="M7 1h1M79 1h1M119 1h1M140 1h1M145 1h1" />
<path stroke="#c0c9ff" d="M15 1h1M20 1h1M135 1h1M158 1h1M178 1h1" />
<path stroke="#c1c9ff" d="M22 1h1M103 1h1" />
<path stroke="#bcc5ff" d="M26 1h2M34 1h1M93 1h1M114 1h2M124 1h2M131 1h1M148 1h1M160 1h1M185 1h1M190 1h1M1 4h1M1 16h1" />
<path stroke="#c1caff" d="M54 1h1M130 1h1M1 9h1" />
<path stroke="#bbc5ff" d="M61 1h1M91 1h1M143 1h1M162 1h1" />
<path stroke="#c2caff" d="M70 1h1M76 1h2" />
<path stroke="#c0c8ff" d="M78 1h1M99 1h1M142 1h1M177 1h1M187 1h1" />
<path stroke="#bac3ff" d="M80 1h1M186 1h1" />
<path stroke="#c3cbff" d="M126 1h2" />
<path stroke="#b9c3ff" d="M144 1h1M163 1h1" />
<path stroke="#b7c1ff" d="M147 1h1" />
<path stroke="#c3ccff" d="M176 1h1" />
<path stroke="#b8c2ff" d="M189 1h1" />
<path stroke="#7e88bf" d="M198 1h1M2 2h6M12 2h5M18 2h3M30 2h3M40 2h2M46 2h3M50 2h2M53 2h1M58 2h2M63 2h1M69 2h1M71 2h2M74 2h2M77 2h1M84 2h1M88 2h1M93 2h2M96 2h2M102 2h7M110 2h1M116 2h3M123 2h1M126 2h2M130 2h1M134 2h5M140 2h1M144 2h1M150 2h2M155 2h1M157 2h2M162 2h1M164 2h4M171 2h2M174 2h4M180 2h3M187 2h4M192 2h1M4 3h3M9 3h4M15 3h1M19 3h1M22 3h1M24 3h8M33 3h2M41 3h1M45 3h6M53 3h1M61 3h2M66 3h4M75 3h1M79 3h1M82 3h1M85 3h2M93 3h1M97 3h1M101 3h1M109 3h2M114 3h1M119 3h9M134 3h2M139 3h1M147 3h2M161 3h1M163 3h1M165 3h2M168 3h1M171 3h1M174 3h2M177 3h3M183 3h9M193 3h4M2 4h1M6 4h1M8 4h4M18 4h1M29 4h5M38 4h4M43 4h1M46 4h2M52 4h1M56 4h1M58 4h1M62 4h4M72 4h2M77 4h1M80 4h1M83 4h1M90 4h2M93 4h3M99 4h5M106 4h3M117 4h2M120 4h1M126 4h8M138 4h1M140 4h5M148 4h2M151 4h2M159 4h4M167 4h1M169 4h1M172 4h2M175 4h2M181 4h1M2 5h1M6 5h1M8 5h1M12 5h3M19 5h6M26 5h1M38 5h2M42 5h2M45 5h1M56 5h1M58 5h4M64 5h1M67 5h2M76 5h2M79 5h1M81 5h3M88 5h3M93 5h4M101 5h2M105 5h1M107 5h1M116 5h4M123 5h1M127 5h3M131 5h1M136 5h2M139 5h1M143 5h4M150 5h4M155 5h1M158 5h3M164 5h8M174 5h1M188 5h3M193 5h1M3 6h4M8 6h1M11 6h4M17 6h4M24 6h2M29 6h1M32 6h2M40 6h1M43 6h4M51 6h1M53 6h2M59 6h3M66 6h3M70 6h1M75 6h1M78 6h1M80 6h1M82 6h2M91 6h4M96 6h2M101 6h1M105 6h2M109 6h1M114 6h2M120 6h9M131 6h1M134 6h1M145 6h1M147 6h3M151 6h2M167 6h3M171 6h4M180 6h2M183 6h1M188 6h2M194 6h1M4 7h1M11 7h1M14 7h7M22 7h2M27 7h2M31 7h2M38 7h2M43 7h6M53 7h2M56 7h1M61 7h1M64 7h1M73 7h2M78 7h6M90 7h2M98 7h7M108 7h1M114 7h3M120 7h1M125 7h4M130 7h2M133 7h5M139 7h8M154 7h1M156 7h1M158 7h2M162 7h3M169 7h3M174 7h2M180 7h7M189 7h5M197 7h1M7 8h3M12 8h1M17 8h7M25 8h1M28 8h1M33 8h1M38 8h1M40 8h2M45 8h2M52 8h2M55 8h1M60 8h3M66 8h3M76 8h7M84 8h7M94 8h2M99 8h1M108 8h1M111 8h1M118 8h1M126 8h1M130 8h1M135 8h7M147 8h4M152 8h1M155 8h7M167 8h2M172 8h3M176 8h1M187 8h3M194 8h1M197 8h1M2 9h3M7 9h5M15 9h3M20 9h1M22 9h1M30 9h2M54 9h1M60 9h3M70 9h1M73 9h4M78 9h8M89 9h4M96 9h2M99 9h7M110 9h1M112 9h1M116 9h2M120 9h1M123 9h2M128 9h1M132 9h1M137 9h2M142 9h2M146 9h4M153 9h1M159 9h1M168 9h6M177 9h2M181 9h2M184 9h1M188 9h1M192 9h5M9 10h2M12 10h1M20 10h4M27 10h2M30 10h2M33 10h3M37 10h2M40 10h4M49 10h1M53 10h2M57 10h1M60 10h5M66 10h2M71 10h3M83 10h2M88 10h8M98 10h1M101 10h1M105 10h1M107 10h1M113 10h2M120 10h1M124 10h1M127 10h1M132 10h3M136 10h2M142 10h1M144 10h2M147 10h4M154 10h2M163 10h1M169 10h1M171 10h1M173 10h4M178 10h1M185 10h7M193 10h2M2 11h4M7 11h1M11 11h1M15 11h2M22 11h2M25 11h1M27 11h1M32 11h1M37 11h7M45 11h1M47 11h11M59 11h4M64 11h1M66 11h1M68 11h1M72 11h1M74 11h3M78 11h1M83 11h1M86 11h1M92 11h2M97 11h8M107 11h1M115 11h2M127 11h1M131 11h1M133 11h7M141 11h2M146 11h4M155 11h1M160 11h1M163 11h3M167 11h3M179 11h2M184 11h1M186 11h1M194 11h2M2 12h3M8 12h1M16 12h1M21 12h4M28 12h1M36 12h12M51 12h1M54 12h5M67 12h3M71 12h1M75 12h1M78 12h1M83 12h1M87 12h1M89 12h1M91 12h1M94 12h1M96 12h2M106 12h1M108 12h2M114 12h1M117 12h1M119 12h4M125 12h2M128 12h2M136 12h2M139 12h1M142 12h3M152 12h1M156 12h2M159 12h1M167 12h1M169 12h2M174 12h1M178 12h1M180 12h5M189 12h1M193 12h1M195 12h2M3 13h2M8 13h2M12 13h1M14 13h3M20 13h2M25 13h1M32 13h1M36 13h1M44 13h1M46 13h2M49 13h1M53 13h2M59 13h2M64 13h7M73 13h9M85 13h2M90 13h1M97 13h2M103 13h2M106 13h3M115 13h4M124 13h4M136 13h4M143 13h1M152 13h2M155 13h2M160 13h1M169 13h1M171 13h1M174 13h2M190 13h1M5 14h2M8 14h5M16 14h5M22 14h6M29 14h1M31 14h2M35 14h3M42 14h7M50 14h4M57 14h3M64 14h5M71 14h1M77 14h2M81 14h1M84 14h4M91 14h2M94 14h1M98 14h1M101 14h1M105 14h2M123 14h2M128 14h1M137 14h1M140 14h4M146 14h1M150 14h3M155 14h4M165 14h2M171 14h4M180 14h1M191 14h2M2 15h3M6 15h4M11 15h1M15 15h2M22 15h1M32 15h3M38 15h3M42 15h1M50 15h1M54 15h2M60 15h2M63 15h1M65 15h2M68 15h2M71 15h1M73 15h3M79 15h1M82 15h1M85 15h1M94 15h1M96 15h2M99 15h2M106 15h4M111 15h1M115 15h2M119 15h4M133 15h1M135 15h3M139 15h1M141 15h3M149 15h1M152 15h1M157 15h2M160 15h2M163 15h1M166 15h4M174 15h1M189 15h1M194 15h2M2 16h1M5 16h1M10 16h1M18 16h1M21 16h1M25 16h1M30 16h1M36 16h1M39 16h1M43 16h3M59 16h4M66 16h3M70 16h2M81 16h1M85 16h2M91 16h1M93 16h4M100 16h3M104 16h3M114 16h1M116 16h3M123 16h2M128 16h2M131 16h2M135 16h6M142 16h2M148 16h1M151 16h2M154 16h4M160 16h2M165 16h1M167 16h2M171 16h1M177 16h2M190 16h5" />
<path stroke="#7d87be" d="M8 2h1M25 2h1M36 2h2M39 2h1M42 2h1M54 2h1M64 2h1M114 2h1M129 2h1M159 2h2M170 2h1M183 2h1M2 3h1M35 3h2M60 3h1M65 3h1M90 3h1M92 3h1M94 3h1M112 3h1M128 3h1M130 3h1M136 3h1M160 3h1M173 3h1M5 4h1M14 4h1M25 4h1M34 4h1M45 4h1M57 4h1M59 4h1M61 4h1M68 4h1M85 4h2M92 4h1M96 4h1M98 4h1M105 4h1M125 4h1M156 4h1M171 4h1M179 4h1M185 4h2M191 4h1M11 5h1M40 5h1M52 5h1M69 5h1M84 5h1M87 5h1M92 5h1M97 5h1M106 5h1M112 5h1M120 5h1M135 5h1M140 5h2M163 5h1M172 5h1M179 5h1M187 5h1M192 5h1M194 5h1M197 5h1M2 6h1M10 6h1M15 6h1M21 6h1M42 6h1M62 6h1M81 6h1M90 6h1M110 6h1M113 6h1M117 6h1M137 6h1M156 6h1M163 6h1M170 6h1M193 6h1M196 6h1M2 7h1M13 7h1M55 7h1M112 7h2M153 7h1M194 7h1M3 8h1M6 8h1M16 8h1M27 8h1M29 8h1M44 8h1M47 8h1M49 8h1M57 8h1M63 8h1M65 8h1M69 8h1M103 8h1M127 8h1M143 8h1M164 8h1M166 8h1M169 8h1M181 8h1M186 8h1M191 8h1M5 9h1M18 9h1M55 9h1M63 9h1M86 9h1M150 9h1M152 9h1M174 9h1M176 9h1M179 9h1M2 10h1M29 10h1M45 10h1M75 10h1M96 10h1M108 10h1M112 10h1M116 10h1M118 10h1M121 10h1M123 10h1M131 10h1M135 10h1M151 10h1M182 10h1M184 10h1M10 11h1M26 11h1M79 11h1M82 11h1M106 11h1M121 11h1M124 11h1M130 11h1M150 11h1M152 11h2M187 11h1M189 11h2M32 12h1M77 12h1M100 12h1M111 12h1M113 12h1M135 12h1M138 12h1M171 12h1M173 12h1M177 12h1M185 12h1M192 12h1M11 13h1M30 13h1M37 13h2M55 13h1M58 13h1M63 13h1M87 13h1M102 13h1M128 13h1M144 13h1M157 13h1M162 13h1M173 13h1M177 13h1M184 13h1M189 13h1M197 13h1M13 14h1M21 14h1M34 14h1M41 14h1M54 14h1M60 14h1M95 14h1M112 14h1M132 14h1M139 14h1M153 14h1M159 14h1M167 14h1M182 14h1M187 14h1M10 15h1M17 15h1M19 15h1M23 15h1M31 15h1M78 15h1M90 15h1M92 15h2M95 15h1M125 15h1M144 15h1M146 15h1M165 15h1M179 15h2M6 16h1M46 16h1M54 16h1M78 16h1M119 16h1M133 16h1M150 16h1M153 16h1M164 16h1M180 16h1M185 16h1" />
<path stroke="#7b85bd" d="M9 2h1M11 2h1M21 2h2M26 2h1M29 2h1M35 2h1M65 2h1M70 2h1M73 2h1M76 2h1M85 2h1M90 2h1M119 2h1M143 2h1M16 3h1M72 3h1M87 3h1M89 3h1M137 3h1M149 3h1M151 3h1M158 3h1M162 3h1M167 3h1M17 4h1M22 4h1M35 4h1M48 4h2M51 4h1M60 4h1M71 4h1M119 4h1M123 4h2M135 4h2M150 4h1M163 4h1M180 4h1M190 4h1M196 4h1M9 5h1M29 5h1M46 5h1M48 5h1M65 5h2M78 5h1M103 5h1M122 5h1M134 5h1M147 5h1M149 5h1M154 5h1M162 5h1M183 5h1M186 5h1M22 6h1M58 6h1M65 6h1M71 6h1M107 6h2M118 6h1M157 6h1M160 6h1M179 6h1M187 6h1M190 6h2M195 6h1M197 6h1M24 7h1M26 7h1M69 7h1M109 7h1M151 7h1M196 7h1M15 8h1M32 8h1M75 8h1M91 8h3M104 8h1M122 8h2M128 8h2M163 8h1M177 8h1M25 9h1M42 9h3M53 9h1M68 9h1M77 9h1M93 9h1M95 9h1M108 9h1M118 9h1M183 9h1M11 10h1M16 10h1M32 10h1M39 10h1M59 10h1M65 10h1M74 10h1M122 10h1M139 10h1M156 10h1M158 10h2M167 10h1M172 10h1M179 10h1M181 10h1M195 10h1M8 11h1M12 11h1M65 11h1M117 11h1M119 11h1M162 11h1M181 11h1M13 12h1M26 12h2M95 12h1M98 12h1M115 12h1M130 12h1M140 12h2M153 12h1M155 12h1M186 12h1M188 12h1M197 12h1M10 13h1M31 13h1M41 13h1M45 13h1M52 13h1M61 13h1M89 13h1M93 13h1M109 13h1M111 13h1M113 13h1M129 13h1M131 13h1M146 13h1M165 13h2M193 13h1M30 14h1M38 14h1M49 14h1M62 14h2M72 14h2M79 14h1M97 14h1M99 14h1M130 14h1M154 14h1M160 14h1M169 14h1M179 14h1M184 14h2M193 14h1M30 15h1M70 15h1M77 15h1M91 15h1M110 15h1M127 15h2M140 15h1M156 15h1M170 15h2M173 15h1M182 15h2M188 15h1M4 16h1M9 16h1M19 16h1M34 16h2M38 16h1M76 16h1M120 16h1M122 16h1M169 16h1M173 16h1M187 16h1M189 16h1" />
<path stroke="#808ac0" d="M10 2h1M17 2h1M28 2h1M52 2h1M57 2h1M95 2h1M131 2h1M147 2h1M149 2h1M153 2h1M169 2h1M194 2h1M23 3h1M44 3h1M51 3h1M76 3h1M80 3h1M99 3h2M105 3h1M113 3h1M140 3h1M153 3h1M155 3h1M176 3h1M182 3h1M7 4h1M69 4h1M114 4h1M139 4h1M145 4h1M177 4h1M182 4h1M194 4h1M18 5h1M37 5h1M57 5h1M72 5h1M80 5h1M109 5h1M124 5h1M173 5h1M23 6h1M30 6h1M35 6h1M37 6h1M47 6h1M49 6h1M84 6h1M86 6h1M102 6h1M104 6h1M133 6h1M138 6h1M40 7h1M42 7h1M62 7h1M75 7h1M84 7h1M88 7h2M96 7h2M105 7h1M149 7h1M155 7h1M165 7h1M167 7h1M176 7h2M187 7h1M48 8h1M59 8h1M83 8h1M96 8h1M114 8h1M132 8h1M146 8h1M182 8h1M192 8h1M21 9h1M27 9h1M36 9h1M40 9h1M57 9h2M72 9h1M122 9h1M136 9h1M144 9h1M167 9h1M180 9h1M189 9h1M191 9h1M3 10h1M13 10h2M17 10h1M19 10h1M36 10h1M55 10h1M68 10h1M70 10h1M85 10h1M87 10h1M100 10h1M102 10h1M138 10h1M141 10h1M146 10h1M162 10h1M170 10h1M6 11h1M20 11h1M31 11h1M33 11h1M35 11h1M46 11h1M58 11h1M73 11h1M77 11h1M96 11h1M140 11h1M143 11h1M161 11h1M172 11h2M193 11h1M5 12h1M50 12h1M63 12h2M73 12h2M85 12h1M124 12h1M131 12h1M133 12h1M148 12h1M163 12h1M168 12h1M179 12h1M194 12h1M2 13h1M7 13h1M26 13h1M35 13h1M48 13h1M96 13h1M99 13h1M101 13h1M122 13h1M130 13h1M149 13h1M151 13h1M178 13h1M180 13h2M56 14h1M76 14h1M89 14h1M133 14h1M136 14h1M181 14h1M194 14h1M5 15h1M43 15h1M64 15h1M67 15h1M72 15h1M105 15h1M117 15h1M123 15h1M153 15h1M190 15h1M193 15h1M15 16h1M17 16h1M57 16h1M69 16h1M74 16h1M79 16h1M84 16h1M92 16h1M130 16h1M141 16h1M144 16h1M166 16h1M179 16h1M183 16h1M197 16h1" />
<path stroke="#757fba" d="M23 2h1M44 2h1M79 2h1M17 3h1M56 3h1M64 3h1M24 4h1M54 4h1M88 4h1M165 4h1M197 4h1M50 5h1M113 5h2M133 5h1M99 6h1M154 6h1M192 6h1M5 8h1M71 8h1M107 8h1M120 8h2M24 9h1M107 9h1M117 10h1M18 11h1M118 11h1M123 11h1M144 11h1M157 11h1M10 12h2M102 12h2M187 12h1M51 13h1M83 13h1M132 13h1M188 13h1M196 13h1M80 14h1M114 14h1M183 14h1M13 15h1M36 15h1M103 15h1M172 15h1M20 16h1M47 16h1" />
<path stroke="#7c86be" d="M24 2h1M45 2h1M49 2h1M78 2h1M86 2h1M101 2h1M109 2h1M120 2h1M142 2h1M156 2h1M7 3h1M18 3h1M42 3h1M54 3h1M63 3h1M84 3h1M106 3h1M108 3h1M115 3h1M143 3h1M145 3h1M152 3h1M156 3h1M12 4h1M19 4h1M21 4h1M53 4h1M66 4h1M70 4h1M79 4h1M89 4h1M158 4h1M166 4h1M25 5h1M44 5h1M49 5h1M70 5h1M100 5h1M130 5h1M132 5h1M180 5h2M185 5h1M196 5h1M50 6h1M87 6h2M95 6h1M100 6h1M116 6h1M135 6h1M143 6h1M146 6h1M153 6h1M162 6h1M166 6h1M175 6h1M182 6h1M30 7h1M37 7h1M67 7h1M92 7h1M110 7h1M132 7h1M4 8h1M13 8h1M24 8h1M31 8h1M51 8h1M56 8h1M72 8h2M116 8h2M119 8h1M151 8h1M175 8h1M180 8h1M196 8h1M23 9h1M65 9h1M133 9h1M157 9h1M185 9h1M187 9h1M24 10h1M76 10h1M106 10h1M110 10h2M128 10h1M152 10h1M161 10h1M177 10h1M196 10h1M17 11h1M44 11h1M84 11h1M91 11h1M105 11h1M120 11h1M132 11h1M159 11h1M166 11h1M176 11h1M183 11h1M185 11h1M191 11h1M9 12h1M12 12h1M19 12h1M34 12h2M84 12h1M105 12h1M145 12h1M158 12h1M175 12h1M190 12h1M5 13h1M17 13h1M19 13h1M50 13h1M71 13h1M82 13h1M84 13h1M148 13h1M158 13h1M163 13h1M167 13h1M191 13h1M7 14h1M134 14h1M145 14h1M147 14h1M149 14h1M188 14h1M190 14h1M12 15h1M14 15h1M24 15h1M35 15h1M41 15h1M51 15h1M53 15h1M80 15h1M89 15h1M98 15h1M104 15h1M147 15h1M175 15h1M3 16h1M13 16h1M24 16h1M31 16h1M40 16h1M42 16h1M52 16h1M75 16h1M82 16h1M103 16h1M115 16h1M158 16h1M174 16h1M176 16h1" />
<path stroke="#828cc1" d="M27 2h1M66 2h1M98 2h1M115 2h1M133 2h1M8 3h1M42 4h1M121 4h1M155 4h1M187 4h1M189 4h1M4 5h1M7 5h1M16 5h1M35 5h1M126 5h1M55 6h1M21 7h1M86 7h1M95 7h1M157 7h1M39 8h1M97 8h1M125 8h1M145 8h1M26 9h1M45 9h1M113 9h1M139 9h1M104 10h1M119 10h1M153 10h1M21 11h1M24 11h1M67 11h1M94 11h1M156 11h1M20 12h1M66 12h1M70 12h1M82 12h1M101 12h1M107 12h1M118 12h1M33 13h1M154 13h1M159 13h1M93 14h1M161 14h2M170 14h1M178 14h1M25 15h1M47 15h1M86 15h2M114 15h1M118 15h1M12 16h1M58 16h1M1 17h1" />
<path stroke="#838dc1" d="M33 2h1M112 2h1M152 2h1M173 2h1M178 2h2M21 3h1M71 3h1M73 3h1M98 3h1M170 3h1M27 4h1M115 4h1M134 4h1M168 4h1M188 4h1M15 5h1M71 5h1M73 5h1M75 5h1M108 5h1M125 5h1M138 5h1M156 5h1M130 6h1M185 6h1M6 7h2M52 7h1M58 7h1M77 7h1M107 7h1M160 7h1M166 7h1M168 7h1M188 7h1M11 8h1M43 8h1M109 8h1M131 8h1M144 8h1M153 8h1M47 9h1M98 9h1M164 9h1M6 10h1M15 10h1M115 10h1M126 10h1M165 10h1M192 10h1M34 11h1M36 11h1M70 11h1M87 11h1M192 11h1M61 12h1M72 12h1M81 12h1M93 12h1M110 12h1M123 12h1M166 12h1M22 13h1M120 13h1M141 13h1M2 14h1M14 14h2M82 14h1M88 14h1M109 14h1M21 15h1M28 15h1M57 15h1M83 15h1M131 15h1M150 15h1M162 15h1M184 15h1M11 16h1M50 16h1M55 16h1M64 16h1M108 16h1M147 16h1" />
<path stroke="#818bc1" d="M34 2h1M154 2h1M40 3h1M117 3h1M138 3h1M142 3h1M164 3h1M192 3h1M81 4h1M174 4h1M183 4h1M193 4h1M27 5h1M111 5h1M7 6h1M31 6h1M38 6h1M5 7h1M57 7h1M66 7h1M121 7h1M124 7h1M129 7h1M138 7h1M34 8h1M54 8h1M124 8h1M190 8h1M34 9h2M39 9h1M71 9h1M125 9h1M127 9h1M165 9h1M5 10h1M26 10h1M44 10h1M47 10h1M130 10h1M143 10h1M63 11h1M88 11h1M109 11h2M170 11h1M59 12h1M65 12h1M127 12h1M147 12h1M160 12h1M13 13h1M114 13h1M28 14h1M90 14h1M107 14h1M120 14h1M196 14h2M26 15h1M45 15h1M48 15h2M59 15h1M134 15h1M138 15h1M186 15h1M27 16h1" />
<path stroke="#7882bc" d="M38 2h1M43 2h1M55 2h1M100 2h1M122 2h1M128 2h1M3 3h1M37 3h1M55 3h1M57 3h1M59 3h1M116 3h1M172 3h1M44 4h1M87 4h1M97 4h1M184 4h1M5 5h1M51 5h1M85 5h1M91 5h1M121 5h1M175 5h1M182 5h1M191 5h1M195 5h1M9 6h1M16 6h1M28 6h1M41 6h1M56 6h2M111 6h1M144 6h1M155 6h1M164 6h1M177 6h1M186 6h1M35 7h1M111 7h1M195 7h1M30 8h1M70 8h1M106 8h1M41 9h1M66 9h1M87 9h2M158 9h1M25 10h1M46 10h1M97 10h1M80 11h1M85 11h1M122 11h1M126 11h1M129 11h1M177 11h1M33 12h1M112 12h1M6 13h1M18 13h1M42 13h2M57 13h1M62 13h1M72 13h1M88 13h1M133 13h1M147 13h1M161 13h1M164 13h1M170 13h1M192 13h1M194 13h1M40 14h1M61 14h1M74 14h1M131 14h1M168 14h1M88 15h1M126 15h1M145 15h1M148 15h1M177 15h2M83 16h1M149 16h1M159 16h1M172 16h1M186 16h1" />
<path stroke="#8791c4" d="M56 2h1M82 2h1M161 2h1M185 2h1M52 3h1M75 4h1M110 5h1M85 7h1M122 7h1M193 8h1M28 9h1M37 9h1M121 9h1M99 10h1M39 13h1M44 15h1M185 15h1M56 16h1" />
<path stroke="#7f89bf" d="M60 2h1M62 2h1M67 2h2M81 2h1M89 2h1M99 2h1M111 2h1M125 2h1M132 2h1M139 2h1M146 2h1M168 2h1M186 2h1M191 2h1M193 2h1M13 3h1M20 3h1M32 3h1M70 3h1M74 3h1M78 3h1M102 3h1M111 3h1M131 3h1M133 3h1M146 3h1M169 3h1M180 3h1M3 4h1M26 4h1M28 4h1M37 4h1M109 4h1M111 4h2M116 4h1M147 4h1M153 4h1M3 5h1M17 5h1M33 5h1M62 5h1M157 5h1M161 5h1M34 6h1M48 6h1M69 6h1M72 6h1M74 6h1M76 6h1M129 6h1M132 6h1M142 6h1M184 6h1M8 7h2M29 7h1M49 7h1M60 7h1M70 7h1M72 7h1M106 7h1M117 7h1M119 7h1M147 7h1M161 7h1M172 7h2M179 7h1M10 8h1M36 8h1M42 8h1M98 8h1M110 8h1M112 8h1M134 8h1M154 8h1M184 8h1M6 9h1M12 9h1M14 9h1M46 9h1M51 9h1M69 9h1M115 9h1M129 9h1M131 9h1M140 9h2M145 9h1M154 9h1M156 9h1M160 9h1M8 10h1M48 10h1M50 10h1M52 10h1M77 10h1M164 10h1M28 11h1M69 11h1M71 11h1M114 11h1M125 11h1M171 11h1M175 11h1M196 11h1M6 12h2M18 12h1M29 12h1M31 12h1M48 12h2M53 12h1M79 12h1M86 12h1M92 12h1M132 12h1M23 13h2M29 13h1M34 13h1M94 13h1M100 13h1M105 13h1M119 13h1M121 13h1M140 13h1M142 13h1M183 13h1M185 13h1M4 14h1M69 14h1M83 14h1M96 14h1M104 14h1M111 14h1M119 14h1M122 14h1M125 14h1M176 14h2M20 15h1M29 15h1M56 15h1M58 15h1M76 15h1M84 15h1M112 15h1M124 15h1M132 15h1M151 15h1M155 15h1M159 15h1M187 15h1M196 15h1M23 16h1M29 16h1M51 16h1M63 16h1M65 16h1M72 16h1M87 16h1M90 16h1M97 16h1M99 16h1M107 16h1M109 16h2M113 16h1M125 16h1M127 16h1M170 16h1M184 16h1M195 16h1" />
<path stroke="#858fc2" d="M61 2h1M14 3h1M110 4h1M39 6h1M59 7h1M63 7h1M148 7h1M178 7h1M113 8h1M133 8h1M56 9h1M155 9h1M197 11h1M30 12h1M70 14h1M46 15h1M73 16h1M88 16h2" />
<path stroke="#7a84bc" d="M80 2h1M92 2h1M196 2h1M91 3h1M4 4h1M13 4h1M55 4h1M84 4h1M104 4h1M122 4h1M170 4h1M28 5h1M41 5h1M53 5h1M55 5h1M142 5h1M176 5h1M178 5h1M119 6h1M33 7h1M152 7h1M2 8h1M26 8h1M64 8h1M101 8h1M115 8h1M52 9h1M64 9h1M109 9h1M111 9h1M134 9h2M151 9h1M19 11h1M90 11h1M112 11h1M154 11h1M178 11h1M182 11h1M76 12h1M90 12h1M116 12h1M135 13h1M145 13h1M172 13h1M176 13h1M186 13h1M55 14h1M115 14h1M186 14h1M37 15h1M176 15h1M7 16h1M14 16h1M181 16h1" />
<path stroke="#8690c3" d="M83 2h1M195 2h1M77 3h1M118 3h1M141 3h1M154 3h1M76 4h1M178 4h1M195 4h1M34 5h1M85 6h1M103 6h1M140 6h1M10 7h1M41 7h1M50 7h1M87 7h1M58 8h1M33 9h1M50 9h1M114 9h1M161 9h3M51 10h1M79 10h1M82 10h1M103 10h1M125 10h1M140 10h1M89 11h1M108 11h1M158 11h1M174 11h1M17 12h1M80 12h1M164 12h2M95 13h1M123 13h1M182 13h1M3 14h1M75 14h1M103 14h1M126 14h2M62 15h1M113 15h1M192 15h1M22 16h1M28 16h1M80 16h1M111 16h2M196 16h1" />
<path stroke="#7983bc" d="M87 2h1M121 2h1M141 2h1M95 3h2M129 3h1M159 3h1M197 3h1M15 4h1M86 5h1M115 5h1M184 5h1M26 6h1M79 6h1M89 6h1M98 6h1M112 6h1M3 7h1M12 7h1M65 7h1M150 7h1M14 8h1M37 8h1M100 8h1M102 8h1M165 8h1M170 8h2M185 8h1M19 9h1M67 9h1M106 9h1M175 9h1M109 10h1M129 10h1M166 10h1M168 10h1M183 10h1M197 10h1M9 11h1M14 11h1M111 11h1M128 11h1M145 11h1M151 11h1M188 11h1M88 12h1M134 12h1M172 12h1M191 12h1M28 13h1M56 13h1M168 13h1M33 14h1M118 14h1M135 14h1M138 14h1M144 14h1M18 15h1M102 15h1M164 15h1M181 15h1M77 16h1M134 16h1M162 16h1" />
<path stroke="#7781bb" d="M91 2h1M39 3h1M78 4h1M137 4h1M157 4h1M10 5h1M30 5h2M159 6h1M161 6h1M176 6h1M74 8h1M186 9h1M81 11h1M146 12h1M27 13h1M40 13h1M113 14h1M49 16h1M163 16h1M175 16h1M188 16h1" />
<path stroke="#7680bb" d="M113 2h1M163 2h1M43 3h1M58 3h1M83 3h1M107 3h1M157 3h1M20 4h1M67 4h1M32 5h1M98 5h2M63 6h1M136 6h1M150 6h1M165 6h1M36 7h1M50 8h1M162 8h1M195 8h1M25 12h1M104 12h1M176 12h1M91 13h1M129 14h1M148 14h1M189 14h1M52 15h1M81 15h1M33 16h1M41 16h1M53 16h1" />
<path stroke="#848ec2" d="M124 2h1M145 2h1M184 2h1M132 3h1M36 4h1M74 4h1M82 4h1M113 4h1M146 4h1M154 4h1M63 5h1M104 5h1M36 6h1M52 6h1M73 6h1M77 6h1M141 6h1M71 7h1M118 7h1M13 9h1M29 9h1M32 9h1M59 9h1M130 9h1M95 11h1M113 11h1M52 12h1M62 12h1M149 12h1M151 12h1M162 12h1M110 14h1M121 14h1M175 14h1M197 15h1M26 16h1M98 16h1M126 16h1M146 16h1M182 16h1" />
<path stroke="#8892c4" d="M148 2h1M104 3h1M181 3h1M36 5h1M139 6h1M76 7h1M35 8h1M190 9h1M7 10h1M18 10h1M56 10h1M69 10h1M78 10h1M86 10h1M29 11h1M150 12h1M27 15h1M154 15h1M191 15h1M145 16h1" />
<path stroke="#737db9" d="M197 2h1M88 3h1M150 3h1M50 4h1M47 5h1M54 5h1M148 5h1M27 6h1M178 6h1M25 7h1M93 7h2M179 8h1M94 9h1M119 9h1M58 10h1M160 10h1M15 12h1M100 14h1M116 14h1M101 15h1M37 16h1M121 16h1" />
<path stroke="#586299" d="M198 2h1M134 17h1M50 18h1M58 18h1M65 18h1M94 18h1M161 18h1M176 18h1M198 18h1" />
<path stroke="#747eb9" d="M38 3h1M144 3h1M177 5h1M142 8h1M197 9h1M110 13h1M112 13h1M130 15h1M32 16h1" />
<path stroke="#8a93c5" d="M81 3h1M38 9h1M49 9h1M80 10h1" />
<path stroke="#8992c4" d="M103 3h1M183 8h1M166 9h1M4 10h1M150 13h1M102 14h1M195 14h1" />
<path stroke="#5b659c" d="M198 3h1M49 17h1M62 17h1M64 17h1M69 17h1M76 17h1M78 17h1M110 17h1M124 17h1M135 17h1M148 17h1M155 17h1M157 17h1M163 17h1M182 17h1M8 18h1M10 18h1M28 18h1M39 18h1M67 18h1M86 18h1M95 18h1M114 18h1M116 18h1M136 18h1M139 18h1M160 18h1M166 18h1M186 18h1" />
<path stroke="#717cb8" d="M16 4h1M64 6h1M14 12h1M154 12h1M195 13h1M129 15h1" />
<path stroke="#727db9" d="M23 4h1M164 4h1M68 7h1M105 8h1M13 11h1M99 12h1M117 14h1" />
<path stroke="#8b95c6" d="M192 4h1M164 14h1" />
<path stroke="#5a649b" d="M198 4h1M4 17h1M9 17h1M30 17h1M44 17h1M51 17h2M81 17h1M85 17h1M87 17h1M92 17h1M132 17h2M139 17h1M141 17h1M150 17h1M159 17h1M11 18h1M14 18h1M24 18h1M36 18h1M49 18h1M60 18h1M63 18h1M118 18h1M140 18h1M146 18h1M185 18h1" />
<path stroke="#8e97c7" d="M74 5h1M123 7h1" />
<path stroke="#5f69a0" d="M198 5h1M41 17h1M83 17h1M94 17h1M128 17h1M144 17h1M32 18h1M83 18h1M151 18h1" />
<path stroke="#b9c2ff" d="M1 6h1" />
<path stroke="#6f7ab7" d="M158 6h1M134 13h1M39 14h1" />
<path stroke="#5c669d" d="M198 6h1M198 7h1M198 8h1M198 10h1M198 13h1M198 14h1M2 17h2M6 17h2M14 17h10M28 17h2M38 17h3M43 17h1M45 17h4M53 17h4M59 17h2M68 17h1M73 17h3M82 17h1M84 17h1M93 17h1M97 17h1M102 17h5M109 17h1M122 17h2M129 17h3M146 17h2M154 17h1M158 17h1M166 17h1M168 17h1M173 17h5M179 17h3M184 17h1M191 17h8M2 18h2M7 18h1M12 18h2M16 18h1M18 18h4M26 18h1M29 18h1M40 18h9M53 18h2M66 18h1M70 18h2M75 18h1M77 18h1M79 18h4M84 18h2M87 18h1M90 18h1M96 18h1M99 18h4M104 18h4M109 18h1M111 18h1M113 18h1M117 18h1M119 18h7M128 18h2M133 18h2M143 18h1M147 18h1M154 18h3M162 18h1M165 18h1M178 18h7M188 18h5M194 18h2M197 18h1" />
<path stroke="#707bb8" d="M34 7h1M180 10h1M92 13h1" />
<path stroke="#8d96c7" d="M51 7h1M126 9h1M161 12h1M163 14h1" />
<path stroke="#707ab7" d="M178 8h1M157 10h1M8 16h1" />
<path stroke="#8f98c7" d="M48 9h1M81 10h1M16 16h1" />
<path stroke="#555f96" d="M198 9h1M198 12h1" />
<path stroke="#8c95c6" d="M30 11h1M60 12h1M108 14h1" />
<path stroke="#5e689f" d="M198 11h1M42 17h1M61 17h1M88 17h1M100 17h1M107 17h2M113 17h1M118 17h2M136 17h1M138 17h1M143 17h1M145 17h1M178 17h1M185 17h2M190 17h1M6 18h1M17 18h1M56 18h1M59 18h1M74 18h1M103 18h1M127 18h1M144 18h1M148 18h1M153 18h1M164 18h1M169 18h2M172 18h1M193 18h1M196 18h1" />
<path stroke="#8b94c5" d="M179 13h1" />
<path stroke="#6d77b6" d="M187 13h1" />
<path stroke="#5d679e" d="M198 15h1M67 17h1M70 17h1M72 17h1M79 17h1M96 17h1M101 17h1M115 17h2M151 17h1M167 17h1M189 17h1M15 18h1M30 18h1M33 18h2M52 18h1M55 18h1M72 18h1M126 18h1M130 18h1M132 18h1M135 18h1M142 18h1M149 18h1M157 18h1M159 18h1M171 18h1" />
<path stroke="#6d78b6" d="M48 16h1" />
<path stroke="#606aa1" d="M198 16h1" />
<path stroke="#576097" d="M5 17h1M86 17h1M167 18h1" />
<path stroke="#59639a" d="M8 17h1M10 17h2M13 17h1M27 17h1M34 17h1M57 17h2M77 17h1M98 17h1M120 17h2M156 17h1M161 17h2M164 17h2M169 17h2M172 17h1M183 17h1M9 18h1M22 18h1M31 18h1M57 18h1M62 18h1M69 18h1M76 18h1M89 18h1M91 18h1M93 18h1M97 18h1M108 18h1M112 18h1M138 18h1M174 18h1M177 18h1M187 18h1" />
<path stroke="#525b92" d="M12 17h1" />
<path stroke="#616ba2" d="M24 17h2M66 17h1M95 17h1M126 17h1M153 17h1M188 17h1M4 18h1M25 18h1M35 18h1M73 18h1M150 18h1M158 18h1" />
<path stroke="#566097" d="M26 17h1M91 17h1M111 17h2M140 17h1M37 18h2M137 18h1" />
<path stroke="#555e95" d="M31 17h2M90 17h1M171 17h1M64 18h1M88 18h1M175 18h1" />
<path stroke="#565f96" d="M33 17h1M63 17h1M99 17h1M160 17h1M23 18h1" />
<path stroke="#626da4" d="M35 17h1M114 17h1" />
<path stroke="#6671a7" d="M36 17h1M152 17h1" />
<path stroke="#606ba2" d="M37 17h1M71 17h1M80 17h1M89 17h1M117 17h1M125 17h1M110 18h1M141 18h1M163 18h1" />
<path stroke="#586198" d="M50 17h1M149 17h1M27 18h1M68 18h1M92 18h1M115 18h1M145 18h1M168 18h1M173 18h1" />
<path stroke="#5f6aa1" d="M65 17h1M142 17h1M51 18h1M78 18h1" />
<path stroke="#616ca3" d="M127 17h1M131 18h1" />
<path stroke="#636ea4" d="M137 17h1M152 18h1" />
<path stroke="#636ea5" d="M187 17h1" />
<path stroke="#7c86bd" d="M1 18h1" />
<path stroke="#646fa6" d="M5 18h1" />
<path stroke="#535d94" d="M61 18h1M98 18h1" />
</svg>