<svg xmlns="http://www.w3.org/2000/svg" viewBox="0 -0.5 176 166" shape-rendering="crispEdges">
<path stroke="#000000" d="M2 0h171M1 1h1M173 1h1M0 2h1M174 2h1M0 3h1M175 3h1M0 4h1M175 4h1M0 5h1M175 5h1M0 6h1M175 6h1M0 7h1M175 7h1M0 8h1M26 8h52M175 8h1M0 9h1M26 9h52M175 9h1M0 10h1M26 10h52M175 10h1M0 11h1M26 11h52M175 11h1M0 12h1M26 12h52M175 12h1M0 13h1M26 13h52M175 13h1M0 14h1M26 14h52M175 14h1M0 15h1M26 15h52M175 15h1M0 16h1M26 16h52M175 16h1M0 17h1M26 17h52M175 17h1M0 18h1M26 18h52M175 18h1M0 19h1M26 19h52M175 19h1M0 20h1M26 20h52M175 20h1M0 21h1M26 21h52M175 21h1M0 22h1M26 22h52M175 22h1M0 23h1M26 23h52M175 23h1M0 24h1M26 24h52M175 24h1M0 25h1M26 25h52M175 25h1M0 26h1M26 26h52M175 26h1M0 27h1M26 27h52M175 27h1M0 28h1M26 28h52M175 28h1M0 29h1M26 29h52M175 29h1M0 30h1M26 30h52M175 30h1M0 31h1M26 31h52M175 31h1M0 32h1M26 32h52M175 32h1M0 33h1M26 33h52M175 33h1M0 34h1M26 34h52M175 34h1M0 35h1M26 35h52M175 35h1M0 36h1M26 36h52M175 36h1M0 37h1M26 37h52M175 37h1M0 38h1M26 38h52M175 38h1M0 39h1M26 39h52M175 39h1M0 40h1M26 40h52M175 40h1M0 41h1M26 41h52M175 41h1M0 42h1M26 42h52M175 42h1M0 43h1M26 43h52M175 43h1M0 44h1M26 44h52M175 44h1M0 45h1M26 45h52M175 45h1M0 46h1M26 46h52M175 46h1M0 47h1M26 47h52M175 47h1M0 48h1M26 48h52M175 48h1M0 49h1M26 49h52M175 49h1M0 50h1M26 50h52M175 50h1M0 51h1M26 51h52M175 51h1M0 52h1M26 52h52M175 52h1M0 53h1M26 53h52M175 53h1M0 54h1M26 54h52M175 54h1M0 55h1M26 55h52M175 55h1M0 56h1M26 56h52M175 56h1M0 57h1M26 57h52M175 57h1M0 58h1M26 58h52M175 58h1M0 59h1M26 59h52M175 59h1M0 60h1M26 60h52M175 60h1M0 61h1M26 61h52M175 61h1M0 62h1M26 62h52M175 62h1M0 63h1M26 63h52M175 63h1M0 64h1M26 64h52M175 64h1M0 65h1M26 65h52M175 65h1M0 66h1M26 66h52M175 66h1M0 67h1M26 67h52M175 67h1M0 68h1M26 68h52M175 68h1M0 69h1M26 69h52M175 69h1M0 70h1M26 70h52M175 70h1M0 71h1M26 71h52M175 71h1M0 72h1M26 72h52M175 72h1M0 73h1M26 73h52M175 73h1M0 74h1M26 74h52M175 74h1M0 75h1M26 75h52M175 75h1M0 76h1M26 76h52M175 76h1M0 77h1M26 77h52M175 77h1M0 78h1M175 78h1M0 79h1M175 79h1M0 80h1M175 80h1M0 81h1M175 81h1M0 82h1M175 82h1M0 83h1M175 83h1M0 84h1M175 84h1M0 85h1M175 85h1M0 86h1M175 86h1M0 87h1M175 87h1M0 88h1M175 88h1M0 89h1M175 89h1M0 90h1M175 90h1M0 91h1M175 91h1M0 92h1M175 92h1M0 93h1M175 93h1M0 94h1M175 94h1M0 95h1M175 95h1M0 96h1M175 96h1M0 97h1M175 97h1M0 98h1M175 98h1M0 99h1M175 99h1M0 100h1M175 100h1M0 101h1M175 101h1M0 102h1M175 102h1M0 103h1M175 103h1M0 104h1M175 104h1M0 105h1M175 105h1M0 106h1M175 106h1M0 107h1M175 107h1M0 108h1M175 108h1M0 109h1M175 109h1M0 110h1M175 110h1M0 111h1M175 111h1M0 112h1M175 112h1M0 113h1M175 113h1M0 114h1M175 114h1M0 115h1M175 115h1M0 116h1M175 116h1M0 117h1M175 117h1M0 118h1M175 118h1M0 119h1M175 119h1M0 120h1M175 120h1M0 121h1M175 121h1M0 122h1M175 122h1M0 123h1M175 123h1M0 124h1M175 124h1M0 125h1M175 125h1M0 126h1M175 126h1M0 127h1M175 127h1M0 128h1M175 128h1M0 129h1M175 129h1M0 130h1M175 130h1M0 131h1M175 131h1M0 132h1M175 132h1M0 133h1M175 133h1M0 134h1M175 134h1M0 135h1M175 135h1M0 136h1M175 136h1M0 137h1M175 137h1M0 138h1M175 138h1M0 139h1M175 139h1M0 140h1M175 140h1M0 141h1M175 141h1M0 142h1M175 142h1M0 143h1M175 143h1M0 144h1M175 144h1M0 145h1M175 145h1M0 146h1M175 146h1M0 147h1M175 147h1M0 148h1M175 148h1M0 149h1M175 149h1M0 150h1M175 150h1M0 151h1M175 151h1M0 152h1M175 152h1M0 153h1M175 153h1M0 154h1M175 154h1M0 155h1M175 155h1M0 156h1M175 156h1M0 157h1M175 157h1M0 158h1M175 158h1M0 159h1M175 159h1M0 160h1M175 160h1M0 161h1M175 161h1M0 162h1M175 162h1M1 163h1M175 163h1M2 164h1M174 164h1M3 165h171" />
<path stroke="#ffffff" d="M2 1h171M1 2h172M1 3h3M1 4h2M1 5h2M1 6h2M1 7h2M1 8h2M24 8h1M78 8h1M1 9h2M24 9h1M78 9h1M1 10h2M24 10h1M78 10h1M1 11h2M24 11h1M78 11h1M1 12h2M24 12h1M78 12h1M1 13h2M24 13h1M78 13h1M1 14h2M24 14h1M78 14h1M1 15h2M24 15h1M78 15h1M1 16h2M24 16h1M78 16h1M1 17h2M24 17h1M78 17h1M1 18h2M24 18h1M78 18h1M1 19h2M24 19h1M78 19h1M1 20h2M24 20h1M78 20h1M1 21h2M24 21h1M78 21h1M1 22h2M24 22h1M78 22h1M1 23h2M24 23h1M78 23h1M1 24h2M8 24h17M78 24h1M1 25h2M78 25h1M1 26h2M24 26h1M78 26h1M104 26h1M122 26h1M1 27h2M24 27h1M78 27h1M104 27h1M122 27h1M1 28h2M24 28h1M78 28h1M104 28h1M122 28h1M1 29h2M24 29h1M78 29h1M104 29h1M122 29h1M1 30h2M24 30h1M78 30h1M104 30h1M122 30h1M1 31h2M24 31h1M78 31h1M104 31h1M122 31h1M1 32h2M24 32h1M78 32h1M104 32h1M122 32h1M1 33h2M24 33h1M78 33h1M104 33h1M122 33h1M1 34h2M24 34h1M78 34h1M104 34h1M122 34h1M1 35h2M24 35h1M78 35h1M104 35h1M122 35h1M1 36h2M24 36h1M78 36h1M104 36h1M122 36h1M160 36h1M1 37h2M24 37h1M78 37h1M104 37h1M122 37h1M160 37h1M1 38h2M24 38h1M78 38h1M104 38h1M122 38h1M160 38h1M1 39h2M24 39h1M78 39h1M104 39h1M122 39h1M160 39h1M1 40h2M24 40h1M78 40h1M104 40h1M122 40h1M160 40h1M1 41h2M24 41h1M78 41h1M104 41h1M122 41h1M160 41h1M1 42h2M8 42h17M78 42h1M88 42h17M106 42h17M160 42h1M1 43h2M78 43h1M160 43h1M1 44h2M24 44h1M78 44h1M104 44h1M122 44h1M160 44h1M1 45h2M24 45h1M78 45h1M104 45h1M122 45h1M160 45h1M1 46h2M24 46h1M78 46h1M104 46h1M122 46h1M160 46h1M1 47h2M24 47h1M78 47h1M104 47h1M122 47h1M160 47h1M1 48h2M24 48h1M78 48h1M104 48h1M122 48h1M160 48h1M1 49h2M24 49h1M78 49h1M104 49h1M122 49h1M160 49h1M1 50h2M24 50h1M78 50h1M104 50h1M122 50h1M160 50h1M1 51h2M24 51h1M78 51h1M104 51h1M122 51h1M160 51h1M1 52h2M24 52h1M78 52h1M104 52h1M122 52h1M144 52h17M1 53h2M24 53h1M78 53h1M104 53h1M122 53h1M1 54h2M24 54h1M78 54h1M104 54h1M122 54h1M1 55h2M24 55h1M78 55h1M104 55h1M122 55h1M1 56h2M24 56h1M78 56h1M104 56h1M122 56h1M1 57h2M24 57h1M78 57h1M104 57h1M122 57h1M1 58h2M24 58h1M78 58h1M104 58h1M122 58h1M1 59h2M24 59h1M78 59h1M104 59h1M122 59h1M1 60h2M8 60h17M78 60h1M88 60h17M106 60h17M1 61h2M78 61h1M1 62h2M24 62h1M78 62h1M1 63h2M24 63h1M78 63h1M1 64h2M24 64h1M78 64h1M1 65h2M24 65h1M78 65h1M1 66h2M24 66h1M78 66h1M1 67h2M24 67h1M78 67h1M1 68h2M24 68h1M78 68h1M1 69h2M24 69h1M78 69h1M1 70h2M24 70h1M78 70h1M1 71h2M24 71h1M78 71h1M1 72h2M24 72h1M78 72h1M1 73h2M24 73h1M78 73h1M1 74h2M24 74h1M78 74h1M1 75h2M24 75h1M78 75h1M1 76h2M24 76h1M78 76h1M1 77h2M24 77h1M78 77h1M1 78h2M8 78h17M26 78h53M1 79h2M1 80h2M1 81h2M1 82h2M1 83h2M1 84h2M24 84h1M42 84h1M60 84h1M78 84h1M96 84h1M114 84h1M132 84h1M150 84h1M168 84h1M1 85h2M24 85h1M42 85h1M60 85h1M78 85h1M96 85h1M114 85h1M132 85h1M150 85h1M168 85h1M1 86h2M24 86h1M42 86h1M60 86h1M78 86h1M96 86h1M114 86h1M132 86h1M150 86h1M168 86h1M1 87h2M24 87h1M42 87h1M60 87h1M78 87h1M96 87h1M114 87h1M132 87h1M150 87h1M168 87h1M1 88h2M24 88h1M42 88h1M60 88h1M78 88h1M96 88h1M114 88h1M132 88h1M150 88h1M168 88h1M1 89h2M24 89h1M42 89h1M60 89h1M78 89h1M96 89h1M114 89h1M132 89h1M150 89h1M168 89h1M1 90h2M24 90h1M42 90h1M60 90h1M78 90h1M96 90h1M114 90h1M132 90h1M150 90h1M168 90h1M1 91h2M24 91h1M42 91h1M60 91h1M78 91h1M96 91h1M114 91h1M132 91h1M150 91h1M168 91h1M1 92h2M24 92h1M42 92h1M60 92h1M78 92h1M96 92h1M114 92h1M132 92h1M150 92h1M168 92h1M1 93h2M24 93h1M42 93h1M60 93h1M78 93h1M96 93h1M114 93h1M132 93h1M150 93h1M168 93h1M1 94h2M24 94h1M42 94h1M60 94h1M78 94h1M96 94h1M114 94h1M132 94h1M150 94h1M168 94h1M1 95h2M24 95h1M42 95h1M60 95h1M78 95h1M96 95h1M114 95h1M132 95h1M150 95h1M168 95h1M1 96h2M24 96h1M42 96h1M60 96h1M78 96h1M96 96h1M114 96h1M132 96h1M150 96h1M168 96h1M1 97h2M24 97h1M42 97h1M60 97h1M78 97h1M96 97h1M114 97h1M132 97h1M150 97h1M168 97h1M1 98h2M24 98h1M42 98h1M60 98h1M78 98h1M96 98h1M114 98h1M132 98h1M150 98h1M168 98h1M1 99h2M24 99h1M42 99h1M60 99h1M78 99h1M96 99h1M114 99h1M132 99h1M150 99h1M168 99h1M1 100h2M8 100h17M26 100h17M44 100h17M62 100h17M80 100h17M98 100h17M116 100h17M134 100h17M152 100h17M1 101h2M1 102h2M24 102h1M42 102h1M60 102h1M78 102h1M96 102h1M114 102h1M132 102h1M150 102h1M168 102h1M1 103h2M24 103h1M42 103h1M60 103h1M78 103h1M96 103h1M114 103h1M132 103h1M150 103h1M168 103h1M1 104h2M24 104h1M42 104h1M60 104h1M78 104h1M96 104h1M114 104h1M132 104h1M150 104h1M168 104h1M1 105h2M24 105h1M42 105h1M60 105h1M78 105h1M96 105h1M114 105h1M132 105h1M150 105h1M168 105h1M1 106h2M24 106h1M42 106h1M60 106h1M78 106h1M96 106h1M114 106h1M132 106h1M150 106h1M168 106h1M1 107h2M24 107h1M42 107h1M60 107h1M78 107h1M96 107h1M114 107h1M132 107h1M150 107h1M168 107h1M1 108h2M24 108h1M42 108h1M60 108h1M78 108h1M96 108h1M114 108h1M132 108h1M150 108h1M168 108h1M1 109h2M24 109h1M42 109h1M60 109h1M78 109h1M96 109h1M114 109h1M132 109h1M150 109h1M168 109h1M1 110h2M24 110h1M42 110h1M60 110h1M78 110h1M96 110h1M114 110h1M132 110h1M150 110h1M168 110h1M1 111h2M24 111h1M42 111h1M60 111h1M78 111h1M96 111h1M114 111h1M132 111h1M150 111h1M168 111h1M1 112h2M24 112h1M42 112h1M60 112h1M78 112h1M96 112h1M114 112h1M132 112h1M150 112h1M168 112h1M1 113h2M24 113h1M42 113h1M60 113h1M78 113h1M96 113h1M114 113h1M132 113h1M150 113h1M168 113h1M1 114h2M24 114h1M42 114h1M60 114h1M78 114h1M96 114h1M114 114h1M132 114h1M150 114h1M168 114h1M1 115h2M24 115h1M42 115h1M60 115h1M78 115h1M96 115h1M114 115h1M132 115h1M150 115h1M168 115h1M1 116h2M24 116h1M42 116h1M60 116h1M78 116h1M96 116h1M114 116h1M132 116h1M150 116h1M168 116h1M1 117h2M24 117h1M42 117h1M60 117h1M78 117h1M96 117h1M114 117h1M132 117h1M150 117h1M168 117h1M1 118h2M8 118h17M26 118h17M44 118h17M62 118h17M80 118h17M98 118h17M116 118h17M134 118h17M152 118h17M1 119h2M1 120h2M24 120h1M42 120h1M60 120h1M78 120h1M96 120h1M114 120h1M132 120h1M150 120h1M168 120h1M1 121h2M24 121h1M42 121h1M60 121h1M78 121h1M96 121h1M114 121h1M132 121h1M150 121h1M168 121h1M1 122h2M24 122h1M42 122h1M60 122h1M78 122h1M96 122h1M114 122h1M132 122h1M150 122h1M168 122h1M1 123h2M24 123h1M42 123h1M60 123h1M78 123h1M96 123h1M114 123h1M132 123h1M150 123h1M168 123h1M1 124h2M24 124h1M42 124h1M60 124h1M78 124h1M96 124h1M114 124h1M132 124h1M150 124h1M168 124h1M1 125h2M24 125h1M42 125h1M60 125h1M78 125h1M96 125h1M114 125h1M132 125h1M150 125h1M168 125h1M1 126h2M24 126h1M42 126h1M60 126h1M78 126h1M96 126h1M114 126h1M132 126h1M150 126h1M168 126h1M1 127h2M24 127h1M42 127h1M60 127h1M78 127h1M96 127h1M114 127h1M132 127h1M150 127h1M168 127h1M1 128h2M24 128h1M42 128h1M60 128h1M78 128h1M96 128h1M114 128h1M132 128h1M150 128h1M168 128h1M1 129h2M24 129h1M42 129h1M60 129h1M78 129h1M96 129h1M114 129h1M132 129h1M150 129h1M168 129h1M1 130h2M24 130h1M42 130h1M60 130h1M78 130h1M96 130h1M114 130h1M132 130h1M150 130h1M168 130h1M1 131h2M24 131h1M42 131h1M60 131h1M78 131h1M96 131h1M114 131h1M132 131h1M150 131h1M168 131h1M1 132h2M24 132h1M42 132h1M60 132h1M78 132h1M96 132h1M114 132h1M132 132h1M150 132h1M168 132h1M1 133h2M24 133h1M42 133h1M60 133h1M78 133h1M96 133h1M114 133h1M132 133h1M150 133h1M168 133h1M1 134h2M24 134h1M42 134h1M60 134h1M78 134h1M96 134h1M114 134h1M132 134h1M150 134h1M168 134h1M1 135h2M24 135h1M42 135h1M60 135h1M78 135h1M96 135h1M114 135h1M132 135h1M150 135h1M168 135h1M1 136h2M8 136h17M26 136h17M44 136h17M62 136h17M80 136h17M98 136h17M116 136h17M134 136h17M152 136h17M1 137h2M1 138h2M1 139h2M1 140h2M1 141h2M1 142h2M24 142h1M42 142h1M60 142h1M78 142h1M96 142h1M114 142h1M132 142h1M150 142h1M168 142h1M1 143h2M24 143h1M42 143h1M60 143h1M78 143h1M96 143h1M114 143h1M132 143h1M150 143h1M168 143h1M1 144h2M24 144h1M42 144h1M60 144h1M78 144h1M96 144h1M114 144h1M132 144h1M150 144h1M168 144h1M1 145h2M24 145h1M42 145h1M60 145h1M78 145h1M96 145h1M114 145h1M132 145h1M150 145h1M168 145h1M1 146h2M24 146h1M42 146h1M60 146h1M78 146h1M96 146h1M114 146h1M132 146h1M150 146h1M168 146h1M1 147h2M24 147h1M42 147h1M60 147h1M78 147h1M96 147h1M114 147h1M132 147h1M150 147h1M168 147h1M1 148h2M24 148h1M42 148h1M60 148h1M78 148h1M96 148h1M114 148h1M132 148h1M150 148h1M168 148h1M1 149h2M24 149h1M42 149h1M60 149h1M78 149h1M96 149h1M114 149h1M132 149h1M150 149h1M168 149h1M1 150h2M24 150h1M42 150h1M60 150h1M78 150h1M96 150h1M114 150h1M132 150h1M150 150h1M168 150h1M1 151h2M24 151h1M42 151h1M60 151h1M78 151h1M96 151h1M114 151h1M132 151h1M150 151h1M168 151h1M1 152h2M24 152h1M42 152h1M60 152h1M78 152h1M96 152h1M114 152h1M132 152h1M150 152h1M168 152h1M1 153h2M24 153h1M42 153h1M60 153h1M78 153h1M96 153h1M114 153h1M132 153h1M150 153h1M168 153h1M1 154h2M24 154h1M42 154h1M60 154h1M78 154h1M96 154h1M114 154h1M132 154h1M150 154h1M168 154h1M1 155h2M24 155h1M42 155h1M60 155h1M78 155h1M96 155h1M114 155h1M132 155h1M150 155h1M168 155h1M1 156h2M24 156h1M42 156h1M60 156h1M78 156h1M96 156h1M114 156h1M132 156h1M150 156h1M168 156h1M1 157h2M24 157h1M42 157h1M60 157h1M78 157h1M96 157h1M114 157h1M132 157h1M150 157h1M168 157h1M1 158h2M8 158h17M26 158h17M44 158h17M62 158h17M80 158h17M98 158h17M116 158h17M134 158h17M152 158h17M1 159h2M1 160h2M1 161h2M1 162h2" />
<path stroke="#c6c6c6" d="M173 2h1M4 3h169M3 4h170M3 5h170M3 6h170M3 7h4M79 7h94M3 8h4M79 8h94M3 9h4M79 9h94M3 10h4M79 10h94M3 11h4M79 11h94M3 12h4M79 12h94M3 13h4M79 13h94M3 14h4M79 14h94M3 15h4M79 15h94M3 16h4M79 16h94M3 17h4M79 17h94M3 18h4M79 18h94M3 19h4M79 19h94M3 20h4M79 20h94M3 21h4M79 21h94M3 22h4M79 22h94M3 23h4M79 23h94M3 24h4M79 24h94M3 25h4M79 25h8M123 25h50M3 26h4M79 26h8M123 26h50M3 27h4M79 27h8M123 27h50M3 28h4M79 28h8M123 28h50M3 29h4M79 29h8M123 29h50M3 30h4M79 30h8M123 30h50M3 31h4M79 31h8M123 31h50M3 32h4M79 32h8M123 32h50M3 33h4M79 33h8M123 33h50M3 34h4M79 34h8M123 34h50M3 35h4M79 35h8M123 35h20M161 35h12M3 36h4M79 36h8M123 36h20M161 36h12M3 37h4M79 37h8M123 37h11M135 37h8M161 37h12M3 38h4M79 38h8M123 38h11M136 38h7M161 38h12M3 39h4M79 39h8M123 39h11M137 39h6M161 39h12M3 40h4M79 40h8M123 40h11M138 40h5M161 40h12M3 41h4M79 41h8M123 41h11M139 41h4M161 41h12M3 42h4M79 42h8M123 42h2M140 42h3M161 42h12M3 43h4M79 43h8M123 43h2M141 43h2M161 43h12M3 44h4M79 44h8M123 44h2M140 44h3M161 44h12M3 45h4M79 45h8M123 45h11M139 45h4M161 45h12M3 46h4M79 46h8M123 46h11M138 46h5M161 46h12M3 47h4M79 47h8M123 47h11M137 47h6M161 47h12M3 48h4M79 48h8M123 48h11M136 48h7M161 48h12M3 49h4M79 49h8M123 49h11M135 49h8M161 49h12M3 50h4M79 50h8M123 50h20M161 50h12M3 51h4M79 51h8M123 51h20M161 51h12M3 52h4M79 52h8M123 52h20M161 52h12M3 53h4M79 53h8M123 53h50M3 54h4M79 54h8M123 54h50M3 55h4M79 55h8M123 55h50M3 56h4M79 56h8M123 56h50M3 57h4M79 57h8M123 57h50M3 58h4M79 58h8M123 58h50M3 59h4M79 59h8M123 59h50M3 60h4M79 60h8M123 60h50M3 61h4M79 61h94M3 62h4M79 62h94M3 63h4M79 63h94M3 64h4M79 64h94M3 65h4M79 65h94M3 66h4M79 66h94M3 67h4M79 67h94M3 68h4M79 68h94M3 69h4M79 69h94M3 70h4M79 70h94M3 71h4M79 71h94M3 72h4M79 72h94M3 73h4M79 73h94M3 74h4M79 74h94M3 75h4M79 75h94M3 76h4M79 76h94M3 77h4M79 77h94M3 78h4M79 78h94M3 79h170M3 80h170M3 81h170M3 82h170M3 83h4M169 83h4M3 84h4M169 84h4M3 85h4M169 85h4M3 86h4M169 86h4M3 87h4M169 87h4M3 88h4M169 88h4M3 89h4M169 89h4M3 90h4M169 90h4M3 91h4M169 91h4M3 92h4M169 92h4M3 93h4M169 93h4M3 94h4M169 94h4M3 95h4M169 95h4M3 96h4M169 96h4M3 97h4M169 97h4M3 98h4M169 98h4M3 99h4M169 99h4M3 100h4M169 100h4M3 101h4M169 101h4M3 102h4M169 102h4M3 103h4M169 103h4M3 104h4M169 104h4M3 105h4M169 105h4M3 106h4M169 106h4M3 107h4M169 107h4M3 108h4M169 108h4M3 109h4M169 109h4M3 110h4M169 110h4M3 111h4M169 111h4M3 112h4M169 112h4M3 113h4M169 113h4M3 114h4M169 114h4M3 115h4M169 115h4M3 116h4M169 116h4M3 117h4M169 117h4M3 118h4M169 118h4M3 119h4M169 119h4M3 120h4M169 120h4M3 121h4M169 121h4M3 122h4M169 122h4M3 123h4M169 123h4M3 124h4M169 124h4M3 125h4M169 125h4M3 126h4M169 126h4M3 127h4M169 127h4M3 128h4M169 128h4M3 129h4M169 129h4M3 130h4M169 130h4M3 131h4M169 131h4M3 132h4M169 132h4M3 133h4M169 133h4M3 134h4M169 134h4M3 135h4M169 135h4M3 136h4M169 136h4M3 137h170M3 138h170M3 139h170M3 140h170M3 141h4M169 141h4M3 142h4M169 142h4M3 143h4M169 143h4M3 144h4M169 144h4M3 145h4M169 145h4M3 146h4M169 146h4M3 147h4M169 147h4M3 148h4M169 148h4M3 149h4M169 149h4M3 150h4M169 150h4M3 151h4M169 151h4M3 152h4M169 152h4M3 153h4M169 153h4M3 154h4M169 154h4M3 155h4M169 155h4M3 156h4M169 156h4M3 157h4M169 157h4M3 158h4M169 158h4M3 159h170M3 160h170M3 161h170M3 162h169M2 163h1" />
<path stroke="#555555" d="M173 3h2M173 4h2M173 5h2M173 6h2M173 7h2M173 8h2M173 9h2M173 10h2M173 11h2M173 12h2M173 13h2M173 14h2M173 15h2M173 16h2M173 17h2M173 18h2M173 19h2M173 20h2M173 21h2M173 22h2M173 23h2M173 24h2M173 25h2M173 26h2M173 27h2M173 28h2M173 29h2M173 30h2M173 31h2M173 32h2M173 33h2M173 34h2M173 35h2M173 36h2M173 37h2M173 38h2M173 39h2M173 40h2M173 41h2M173 42h2M173 43h2M173 44h2M173 45h2M173 46h2M173 47h2M173 48h2M173 49h2M173 50h2M173 51h2M173 52h2M173 53h2M173 54h2M173 55h2M173 56h2M173 57h2M173 58h2M173 59h2M173 60h2M173 61h2M173 62h2M173 63h2M173 64h2M173 65h2M173 66h2M173 67h2M173 68h2M173 69h2M173 70h2M173 71h2M173 72h2M173 73h2M173 74h2M173 75h2M173 76h2M173 77h2M173 78h2M173 79h2M173 80h2M173 81h2M173 82h2M173 83h2M173 84h2M173 85h2M173 86h2M173 87h2M173 88h2M173 89h2M173 90h2M173 91h2M173 92h2M173 93h2M173 94h2M173 95h2M173 96h2M173 97h2M173 98h2M173 99h2M173 100h2M173 101h2M173 102h2M173 103h2M173 104h2M173 105h2M173 106h2M173 107h2M173 108h2M173 109h2M173 110h2M173 111h2M173 112h2M173 113h2M173 114h2M173 115h2M173 116h2M173 117h2M173 118h2M173 119h2M173 120h2M173 121h2M173 122h2M173 123h2M173 124h2M173 125h2M173 126h2M173 127h2M173 128h2M173 129h2M173 130h2M173 131h2M173 132h2M173 133h2M173 134h2M173 135h2M173 136h2M173 137h2M173 138h2M173 139h2M173 140h2M173 141h2M173 142h2M173 143h2M173 144h2M173 145h2M173 146h2M173 147h2M173 148h2M173 149h2M173 150h2M173 151h2M173 152h2M173 153h2M173 154h2M173 155h2M173 156h2M173 157h2M173 158h2M173 159h2M173 160h2M173 161h2M172 162h3M3 163h172M3 164h171" />
<path stroke="#373737" d="M7 7h17M25 7h53M7 8h1M25 8h1M7 9h1M25 9h1M7 10h1M25 10h1M7 11h1M25 11h1M7 12h1M25 12h1M7 13h1M25 13h1M7 14h1M25 14h1M7 15h1M25 15h1M7 16h1M25 16h1M7 17h1M25 17h1M7 18h1M25 18h1M7 19h1M25 19h1M7 20h1M25 20h1M7 21h1M25 21h1M7 22h1M25 22h1M7 23h1M25 23h1M25 24h1M7 25h17M25 25h1M87 25h17M105 25h17M7 26h1M25 26h1M87 26h1M105 26h1M7 27h1M25 27h1M87 27h1M105 27h1M7 28h1M25 28h1M87 28h1M105 28h1M7 29h1M25 29h1M87 29h1M105 29h1M7 30h1M25 30h1M87 30h1M105 30h1M7 31h1M25 31h1M87 31h1M105 31h1M7 32h1M25 32h1M87 32h1M105 32h1M7 33h1M25 33h1M87 33h1M105 33h1M7 34h1M25 34h1M87 34h1M105 34h1M7 35h1M25 35h1M87 35h1M105 35h1M143 35h17M7 36h1M25 36h1M87 36h1M105 36h1M143 36h1M7 37h1M25 37h1M87 37h1M105 37h1M143 37h1M7 38h1M25 38h1M87 38h1M105 38h1M143 38h1M7 39h1M25 39h1M87 39h1M105 39h1M143 39h1M7 40h1M25 40h1M87 40h1M105 40h1M143 40h1M7 41h1M25 41h1M87 41h1M105 41h1M143 41h1M25 42h1M143 42h1M7 43h17M25 43h1M87 43h17M105 43h17M143 43h1M7 44h1M25 44h1M87 44h1M105 44h1M143 44h1M7 45h1M25 45h1M87 45h1M105 45h1M143 45h1M7 46h1M25 46h1M87 46h1M105 46h1M143 46h1M7 47h1M25 47h1M87 47h1M105 47h1M143 47h1M7 48h1M25 48h1M87 48h1M105 48h1M143 48h1M7 49h1M25 49h1M87 49h1M105 49h1M143 49h1M7 50h1M25 50h1M87 50h1M105 50h1M143 50h1M7 51h1M25 51h1M87 51h1M105 51h1M143 51h1M7 52h1M25 52h1M87 52h1M105 52h1M7 53h1M25 53h1M87 53h1M105 53h1M7 54h1M25 54h1M87 54h1M105 54h1M7 55h1M25 55h1M87 55h1M105 55h1M7 56h1M25 56h1M87 56h1M105 56h1M7 57h1M25 57h1M87 57h1M105 57h1M7 58h1M25 58h1M87 58h1M105 58h1M7 59h1M25 59h1M87 59h1M105 59h1M25 60h1M7 61h17M25 61h1M7 62h1M25 62h1M7 63h1M25 63h1M7 64h1M25 64h1M7 65h1M25 65h1M7 66h1M25 66h1M7 67h1M25 67h1M7 68h1M25 68h1M7 69h1M25 69h1M7 70h1M25 70h1M7 71h1M25 71h1M7 72h1M25 72h1M7 73h1M25 73h1M7 74h1M25 74h1M7 75h1M25 75h1M7 76h1M25 76h1M7 77h1M25 77h1M7 83h17M25 83h17M43 83h17M61 83h17M79 83h17M97 83h17M115 83h17M133 83h17M151 83h17M7 84h1M25 84h1M43 84h1M61 84h1M79 84h1M97 84h1M115 84h1M133 84h1M151 84h1M7 85h1M25 85h1M43 85h1M61 85h1M79 85h1M97 85h1M115 85h1M133 85h1M151 85h1M7 86h1M25 86h1M43 86h1M61 86h1M79 86h1M97 86h1M115 86h1M133 86h1M151 86h1M7 87h1M25 87h1M43 87h1M61 87h1M79 87h1M97 87h1M115 87h1M133 87h1M151 87h1M7 88h1M25 88h1M43 88h1M61 88h1M79 88h1M97 88h1M115 88h1M133 88h1M151 88h1M7 89h1M25 89h1M43 89h1M61 89h1M79 89h1M97 89h1M115 89h1M133 89h1M151 89h1M7 90h1M25 90h1M43 90h1M61 90h1M79 90h1M97 90h1M115 90h1M133 90h1M151 90h1M7 91h1M25 91h1M43 91h1M61 91h1M79 91h1M97 91h1M115 91h1M133 91h1M151 91h1M7 92h1M25 92h1M43 92h1M61 92h1M79 92h1M97 92h1M115 92h1M133 92h1M151 92h1M7 93h1M25 93h1M43 93h1M61 93h1M79 93h1M97 93h1M115 93h1M133 93h1M151 93h1M7 94h1M25 94h1M43 94h1M61 94h1M79 94h1M97 94h1M115 94h1M133 94h1M151 94h1M7 95h1M25 95h1M43 95h1M61 95h1M79 95h1M97 95h1M115 95h1M133 95h1M151 95h1M7 96h1M25 96h1M43 96h1M61 96h1M79 96h1M97 96h1M115 96h1M133 96h1M151 96h1M7 97h1M25 97h1M43 97h1M61 97h1M79 97h1M97 97h1M115 97h1M133 97h1M151 97h1M7 98h1M25 98h1M43 98h1M61 98h1M79 98h1M97 98h1M115 98h1M133 98h1M151 98h1M7 99h1M25 99h1M43 99h1M61 99h1M79 99h1M97 99h1M115 99h1M133 99h1M151 99h1M7 101h17M25 101h17M43 101h17M61 101h17M79 101h17M97 101h17M115 101h17M133 101h17M151 101h17M7 102h1M25 102h1M43 102h1M61 102h1M79 102h1M97 102h1M115 102h1M133 102h1M151 102h1M7 103h1M25 103h1M43 103h1M61 103h1M79 103h1M97 103h1M115 103h1M133 103h1M151 103h1M7 104h1M25 104h1M43 104h1M61 104h1M79 104h1M97 104h1M115 104h1M133 104h1M151 104h1M7 105h1M25 105h1M43 105h1M61 105h1M79 105h1M97 105h1M115 105h1M133 105h1M151 105h1M7 106h1M25 106h1M43 106h1M61 106h1M79 106h1M97 106h1M115 106h1M133 106h1M151 106h1M7 107h1M25 107h1M43 107h1M61 107h1M79 107h1M97 107h1M115 107h1M133 107h1M151 107h1M7 108h1M25 108h1M43 108h1M61 108h1M79 108h1M97 108h1M115 108h1M133 108h1M151 108h1M7 109h1M25 109h1M43 109h1M61 109h1M79 109h1M97 109h1M115 109h1M133 109h1M151 109h1M7 110h1M25 110h1M43 110h1M61 110h1M79 110h1M97 110h1M115 110h1M133 110h1M151 110h1M7 111h1M25 111h1M43 111h1M61 111h1M79 111h1M97 111h1M115 111h1M133 111h1M151 111h1M7 112h1M25 112h1M43 112h1M61 112h1M79 112h1M97 112h1M115 112h1M133 112h1M151 112h1M7 113h1M25 113h1M43 113h1M61 113h1M79 113h1M97 113h1M115 113h1M133 113h1M151 113h1M7 114h1M25 114h1M43 114h1M61 114h1M79 114h1M97 114h1M115 114h1M133 114h1M151 114h1M7 115h1M25 115h1M43 115h1M61 115h1M79 115h1M97 115h1M115 115h1M133 115h1M151 115h1M7 116h1M25 116h1M43 116h1M61 116h1M79 116h1M97 116h1M115 116h1M133 116h1M151 116h1M7 117h1M25 117h1M43 117h1M61 117h1M79 117h1M97 117h1M115 117h1M133 117h1M151 117h1M7 119h17M25 119h17M43 119h17M61 119h17M79 119h17M97 119h17M115 119h17M133 119h17M151 119h17M7 120h1M25 120h1M43 120h1M61 120h1M79 120h1M97 120h1M115 120h1M133 120h1M151 120h1M7 121h1M25 121h1M43 121h1M61 121h1M79 121h1M97 121h1M115 121h1M133 121h1M151 121h1M7 122h1M25 122h1M43 122h1M61 122h1M79 122h1M97 122h1M115 122h1M133 122h1M151 122h1M7 123h1M25 123h1M43 123h1M61 123h1M79 123h1M97 123h1M115 123h1M133 123h1M151 123h1M7 124h1M25 124h1M43 124h1M61 124h1M79 124h1M97 124h1M115 124h1M133 124h1M151 124h1M7 125h1M25 125h1M43 125h1M61 125h1M79 125h1M97 125h1M115 125h1M133 125h1M151 125h1M7 126h1M25 126h1M43 126h1M61 126h1M79 126h1M97 126h1M115 126h1M133 126h1M151 126h1M7 127h1M25 127h1M43 127h1M61 127h1M79 127h1M97 127h1M115 127h1M133 127h1M151 127h1M7 128h1M25 128h1M43 128h1M61 128h1M79 128h1M97 128h1M115 128h1M133 128h1M151 128h1M7 129h1M25 129h1M43 129h1M61 129h1M79 129h1M97 129h1M115 129h1M133 129h1M151 129h1M7 130h1M25 130h1M43 130h1M61 130h1M79 130h1M97 130h1M115 130h1M133 130h1M151 130h1M7 131h1M25 131h1M43 131h1M61 131h1M79 131h1M97 131h1M115 131h1M133 131h1M151 131h1M7 132h1M25 132h1M43 132h1M61 132h1M79 132h1M97 132h1M115 132h1M133 132h1M151 132h1M7 133h1M25 133h1M43 133h1M61 133h1M79 133h1M97 133h1M115 133h1M133 133h1M151 133h1M7 134h1M25 134h1M43 134h1M61 134h1M79 134h1M97 134h1M115 134h1M133 134h1M151 134h1M7 135h1M25 135h1M43 135h1M61 135h1M79 135h1M97 135h1M115 135h1M133 135h1M151 135h1M7 141h17M25 141h17M43 141h17M61 141h17M79 141h17M97 141h17M115 141h17M133 141h17M151 141h17M7 142h1M25 142h1M43 142h1M61 142h1M79 142h1M97 142h1M115 142h1M133 142h1M151 142h1M7 143h1M25 143h1M43 143h1M61 143h1M79 143h1M97 143h1M115 143h1M133 143h1M151 143h1M7 144h1M25 144h1M43 144h1M61 144h1M79 144h1M97 144h1M115 144h1M133 144h1M151 144h1M7 145h1M25 145h1M43 145h1M61 145h1M79 145h1M97 145h1M115 145h1M133 145h1M151 145h1M7 146h1M25 146h1M43 146h1M61 146h1M79 146h1M97 146h1M115 146h1M133 146h1M151 146h1M7 147h1M25 147h1M43 147h1M61 147h1M79 147h1M97 147h1M115 147h1M133 147h1M151 147h1M7 148h1M25 148h1M43 148h1M61 148h1M79 148h1M97 148h1M115 148h1M133 148h1M151 148h1M7 149h1M25 149h1M43 149h1M61 149h1M79 149h1M97 149h1M115 149h1M133 149h1M151 149h1M7 150h1M25 150h1M43 150h1M61 150h1M79 150h1M97 150h1M115 150h1M133 150h1M151 150h1M7 151h1M25 151h1M43 151h1M61 151h1M79 151h1M97 151h1M115 151h1M133 151h1M151 151h1M7 152h1M25 152h1M43 152h1M61 152h1M79 152h1M97 152h1M115 152h1M133 152h1M151 152h1M7 153h1M25 153h1M43 153h1M61 153h1M79 153h1M97 153h1M115 153h1M133 153h1M151 153h1M7 154h1M25 154h1M43 154h1M61 154h1M79 154h1M97 154h1M115 154h1M133 154h1M151 154h1M7 155h1M25 155h1M43 155h1M61 155h1M79 155h1M97 155h1M115 155h1M133 155h1M151 155h1M7 156h1M25 156h1M43 156h1M61 156h1M79 156h1M97 156h1M115 156h1M133 156h1M151 156h1M7 157h1M25 157h1M43 157h1M61 157h1M79 157h1M97 157h1M115 157h1M133 157h1M151 157h1" />
<path stroke="#8b8b8b" d="M24 7h1M78 7h1M8 8h16M8 9h16M8 10h16M8 11h16M8 12h16M8 13h16M8 14h16M8 15h16M8 16h16M8 17h16M8 18h16M8 19h16M8 20h16M8 21h16M8 22h16M8 23h16M7 24h1M24 25h1M104 25h1M122 25h1M8 26h16M88 26h16M106 26h16M8 27h16M88 27h16M106 27h16M8 28h16M88 28h16M106 28h16M8 29h16M88 29h16M106 29h16M8 30h16M88 30h16M106 30h16M8 31h16M88 31h16M106 31h16M8 32h16M88 32h16M106 32h16M8 33h16M88 33h16M106 33h16M8 34h16M88 34h16M106 34h16M8 35h16M88 35h16M106 35h16M160 35h1M8 36h16M88 36h16M106 36h16M144 36h16M8 37h16M88 37h16M106 37h16M134 37h1M144 37h16M8 38h16M88 38h16M106 38h16M134 38h2M144 38h16M8 39h16M88 39h16M106 39h16M134 39h3M144 39h16M8 40h16M88 40h16M106 40h16M134 40h4M144 40h16M8 41h16M88 41h16M106 41h16M134 41h5M144 41h16M7 42h1M87 42h1M105 42h1M125 42h15M144 42h16M24 43h1M104 43h1M122 43h1M125 43h16M144 43h16M8 44h16M88 44h16M106 44h16M125 44h15M144 44h16M8 45h16M88 45h16M106 45h16M134 45h5M144 45h16M8 46h16M88 46h16M106 46h16M134 46h4M144 46h16M8 47h16M88 47h16M106 47h16M134 47h3M144 47h16M8 48h16M88 48h16M106 48h16M134 48h2M144 48h16M8 49h16M88 49h16M106 49h16M134 49h1M144 49h16M8 50h16M88 50h16M106 50h16M144 50h16M8 51h16M88 51h16M106 51h16M144 51h16M8 52h16M88 52h16M106 52h16M143 52h1M8 53h16M88 53h16M106 53h16M8 54h16M88 54h16M106 54h16M8 55h16M88 55h16M106 55h16M8 56h16M88 56h16M106 56h16M8 57h16M88 57h16M106 57h16M8 58h16M88 58h16M106 58h16M8 59h16M88 59h16M106 59h16M7 60h1M87 60h1M105 60h1M24 61h1M8 62h16M8 63h16M8 64h16M8 65h16M8 66h16M8 67h16M8 68h16M8 69h16M8 70h16M8 71h16M8 72h16M8 73h16M8 74h16M8 75h16M8 76h16M8 77h16M7 78h1M25 78h1M24 83h1M42 83h1M60 83h1M78 83h1M96 83h1M114 83h1M132 83h1M150 83h1M168 83h1M8 84h16M26 84h16M44 84h16M62 84h16M80 84h16M98 84h16M116 84h16M134 84h16M152 84h16M8 85h16M26 85h16M44 85h16M62 85h16M80 85h16M98 85h16M116 85h16M134 85h16M152 85h16M8 86h16M26 86h16M44 86h16M62 86h16M80 86h16M98 86h16M116 86h16M134 86h16M152 86h16M8 87h16M26 87h16M44 87h16M62 87h16M80 87h16M98 87h16M116 87h16M134 87h16M152 87h16M8 88h16M26 88h16M44 88h16M62 88h16M80 88h16M98 88h16M116 88h16M134 88h16M152 88h16M8 89h16M26 89h16M44 89h16M62 89h16M80 89h16M98 89h16M116 89h16M134 89h16M152 89h16M8 90h16M26 90h16M44 90h16M62 90h16M80 90h16M98 90h16M116 90h16M134 90h16M152 90h16M8 91h16M26 91h16M44 91h16M62 91h16M80 91h16M98 91h16M116 91h16M134 91h16M152 91h16M8 92h16M26 92h16M44 92h16M62 92h16M80 92h16M98 92h16M116 92h16M134 92h16M152 92h16M8 93h16M26 93h16M44 93h16M62 93h16M80 93h16M98 93h16M116 93h16M134 93h16M152 93h16M8 94h16M26 94h16M44 94h16M62 94h16M80 94h16M98 94h16M116 94h16M134 94h16M152 94h16M8 95h16M26 95h16M44 95h16M62 95h16M80 95h16M98 95h16M116 95h16M134 95h16M152 95h16M8 96h16M26 96h16M44 96h16M62 96h16M80 96h16M98 96h16M116 96h16M134 96h16M152 96h16M8 97h16M26 97h16M44 97h16M62 97h16M80 97h16M98 97h16M116 97h16M134 97h16M152 97h16M8 98h16M26 98h16M44 98h16M62 98h16M80 98h16M98 98h16M116 98h16M134 98h16M152 98h16M8 99h16M26 99h16M44 99h16M62 99h16M80 99h16M98 99h16M116 99h16M134 99h16M152 99h16M7 100h1M25 100h1M43 100h1M61 100h1M79 100h1M97 100h1M115 100h1M133 100h1M151 100h1M24 101h1M42 101h1M60 101h1M78 101h1M96 101h1M114 101h1M132 101h1M150 101h1M168 101h1M8 102h16M26 102h16M44 102h16M62 102h16M80 102h16M98 102h16M116 102h16M134 102h16M152 102h16M8 103h16M26 103h16M44 103h16M62 103h16M80 103h16M98 103h16M116 103h16M134 103h16M152 103h16M8 104h16M26 104h16M44 104h16M62 104h16M80 104h16M98 104h16M116 104h16M134 104h16M152 104h16M8 105h16M26 105h16M44 105h16M62 105h16M80 105h16M98 105h16M116 105h16M134 105h16M152 105h16M8 106h16M26 106h16M44 106h16M62 106h16M80 106h16M98 106h16M116 106h16M134 106h16M152 106h16M8 107h16M26 107h16M44 107h16M62 107h16M80 107h16M98 107h16M116 107h16M134 107h16M152 107h16M8 108h16M26 108h16M44 108h16M62 108h16M80 108h16M98 108h16M116 108h16M134 108h16M152 108h16M8 109h16M26 109h16M44 109h16M62 109h16M80 109h16M98 109h16M116 109h16M134 109h16M152 109h16M8 110h16M26 110h16M44 110h16M62 110h16M80 110h16M98 110h16M116 110h16M134 110h16M152 110h16M8 111h16M26 111h16M44 111h16M62 111h16M80 111h16M98 111h16M116 111h16M134 111h16M152 111h16M8 112h16M26 112h16M44 112h16M62 112h16M80 112h16M98 112h16M116 112h16M134 112h16M152 112h16M8 113h16M26 113h16M44 113h16M62 113h16M80 113h16M98 113h16M116 113h16M134 113h16M152 113h16M8 114h16M26 114h16M44 114h16M62 114h16M80 114h16M98 114h16M116 114h16M134 114h16M152 114h16M8 115h16M26 115h16M44 115h16M62 115h16M80 115h16M98 115h16M116 115h16M134 115h16M152 115h16M8 116h16M26 116h16M44 116h16M62 116h16M80 116h16M98 116h16M116 116h16M134 116h16M152 116h16M8 117h16M26 117h16M44 117h16M62 117h16M80 117h16M98 117h16M116 117h16M134 117h16M152 117h16M7 118h1M25 118h1M43 118h1M61 118h1M79 118h1M97 118h1M115 118h1M133 118h1M151 118h1M24 119h1M42 119h1M60 119h1M78 119h1M96 119h1M114 119h1M132 119h1M150 119h1M168 119h1M8 120h16M26 120h16M44 120h16M62 120h16M80 120h16M98 120h16M116 120h16M134 120h16M152 120h16M8 121h16M26 121h16M44 121h16M62 121h16M80 121h16M98 121h16M116 121h16M134 121h16M152 121h16M8 122h16M26 122h16M44 122h16M62 122h16M80 122h16M98 122h16M116 122h16M134 122h16M152 122h16M8 123h16M26 123h16M44 123h16M62 123h16M80 123h16M98 123h16M116 123h16M134 123h16M152 123h16M8 124h16M26 124h16M44 124h16M62 124h16M80 124h16M98 124h16M116 124h16M134 124h16M152 124h16M8 125h16M26 125h16M44 125h16M62 125h16M80 125h16M98 125h16M116 125h16M134 125h16M152 125h16M8 126h16M26 126h16M44 126h16M62 126h16M80 126h16M98 126h16M116 126h16M134 126h16M152 126h16M8 127h16M26 127h16M44 127h16M62 127h16M80 127h16M98 127h16M116 127h16M134 127h16M152 127h16M8 128h16M26 128h16M44 128h16M62 128h16M80 128h16M98 128h16M116 128h16M134 128h16M152 128h16M8 129h16M26 129h16M44 129h16M62 129h16M80 129h16M98 129h16M116 129h16M134 129h16M152 129h16M8 130h16M26 130h16M44 130h16M62 130h16M80 130h16M98 130h16M116 130h16M134 130h16M152 130h16M8 131h16M26 131h16M44 131h16M62 131h16M80 131h16M98 131h16M116 131h16M134 131h16M152 131h16M8 132h16M26 132h16M44 132h16M62 132h16M80 132h16M98 132h16M116 132h16M134 132h16M152 132h16M8 133h16M26 133h16M44 133h16M62 133h16M80 133h16M98 133h16M116 133h16M134 133h16M152 133h16M8 134h16M26 134h16M44 134h16M62 134h16M80 134h16M98 134h16M116 134h16M134 134h16M152 134h16M8 135h16M26 135h16M44 135h16M62 135h16M80 135h16M98 135h16M116 135h16M134 135h16M152 135h16M7 136h1M25 136h1M43 136h1M61 136h1M79 136h1M97 136h1M115 136h1M133 136h1M151 136h1M24 141h1M42 141h1M60 141h1M78 141h1M96 141h1M114 141h1M132 141h1M150 141h1M168 141h1M8 142h16M26 142h16M44 142h16M62 142h16M80 142h16M98 142h16M116 142h16M134 142h16M152 142h16M8 143h16M26 143h16M44 143h16M62 143h16M80 143h16M98 143h16M116 143h16M134 143h16M152 143h16M8 144h16M26 144h16M44 144h16M62 144h16M80 144h16M98 144h16M116 144h16M134 144h16M152 144h16M8 145h16M26 145h16M44 145h16M62 145h16M80 145h16M98 145h16M116 145h16M134 145h16M152 145h16M8 146h16M26 146h16M44 146h16M62 146h16M80 146h16M98 146h16M116 146h16M134 146h16M152 146h16M8 147h16M26 147h16M44 147h16M62 147h16M80 147h16M98 147h16M116 147h16M134 147h16M152 147h16M8 148h16M26 148h16M44 148h16M62 148h16M80 148h16M98 148h16M116 148h16M134 148h16M152 148h16M8 149h16M26 149h16M44 149h16M62 149h16M80 149h16M98 149h16M116 149h16M134 149h16M152 149h16M8 150h16M26 150h16M44 150h16M62 150h16M80 150h16M98 150h16M116 150h16M134 150h16M152 150h16M8 151h16M26 151h16M44 151h16M62 151h16M80 151h16M98 151h16M116 151h16M134 151h16M152 151h16M8 152h16M26 152h16M44 152h16M62 152h16M80 152h16M98 152h16M116 152h16M134 152h16M152 152h16M8 153h16M26 153h16M44 153h16M62 153h16M80 153h16M98 153h16M116 153h16M134 153h16M152 153h16M8 154h16M26 154h16M44 154h16M62 154h16M80 154h16M98 154h16M116 154h16M134 154h16M152 154h16M8 155h16M26 155h16M44 155h16M62 155h16M80 155h16M98 155h16M116 155h16M134 155h16M152 155h16M8 156h16M26 156h16M44 156h16M62 156h16M80 156h16M98 156h16M116 156h16M134 156h16M152 156h16M8 157h16M26 157h16M44 157h16M62 157h16M80 157h16M98 157h16M116 157h16M134 157h16M152 157h16M7 158h1M25 158h1M43 158h1M61 158h1M79 158h1M97 158h1M115 158h1M133 158h1M151 158h1" />
</svg>